<svg xmlns="http://www.w3.org/2000/svg" xmlns:xlink="http://www.w3.org/1999/xlink" id="body_5" preserveAspectRatio="xMinYMin meet" viewBox="0 0 709 888"><defs><clipPath id="1"><path id="" clip-rule="evenodd" transform="matrix(1 0 0 1 0 0)" d="M0 666L0 0L0 0L532 0L532 0L532 666L532 666L0 666z" /></clipPath><clipPath id="2"><path id="" clip-rule="evenodd" transform="matrix(1 0 0 1 0 0)" d="M68.48 289.32L68.48 80.28003L68.48 80.28003L433.16 80.28003L433.16 80.28003L433.16 289.32z" /></clipPath></defs><g transform="matrix(1.333333 0 0 1.333333 0 0)"><g clip-path="url(#1)"><g clip-path="url(#2)"><path id="1224" transform="matrix(1 0 0 -1 0 666)" d="M68.59952 375L433.1595 375L433.1595 585.72L68.59952 585.72z" stroke="none" fill="#FFFFFF" fill-rule="nonzero" /><path id="1241" transform="matrix(1 0 0 -1 0 666)" d="M201.08 543.48L388.64 543.48L388.64 583.1995L201.08 583.1995z" stroke="none" fill="#FFFFFF" fill-rule="nonzero" /><path id="1242" transform="matrix(1 0 0 -1 0 666)" d="M201.08 582.72L389.12 582.72L389.12 583.68L201.08 583.68z" stroke="none" fill="#000000" fill-rule="nonzero" /><path id="1243" transform="matrix(1 0 0 -1 0 666)" d="M388.16 543L389.12 543L389.12 583.2L388.16 583.2z" stroke="none" fill="#000000" fill-rule="nonzero" /><path id="1244" transform="matrix(1 0 0 -1 0 666)" d="M200.6 543L388.64 543L388.64 543.96L200.6 543.96z" stroke="none" fill="#000000" fill-rule="nonzero" /><path id="1245" transform="matrix(1 0 0 -1 0 666)" d="M200.6 543.48L201.56 543.48L201.56 583.68L200.6 583.68z" stroke="none" fill="#000000" fill-rule="nonzero" /><path id="1246" transform="matrix(1 0 0 -1 0 666)" d="M201.44 563.4L389 563.4L389 564.36L201.44 564.36z" stroke="none" fill="#000000" fill-rule="nonzero" /><path id="1247" transform="matrix(1 0 0 -1 0 666)" d="M86.96 401.04L127.5195 401.04L127.5195 437.0395L86.96 437.0395z" stroke="none" fill="#FFFFFF" fill-rule="nonzero" /><path id="1248" transform="matrix(1 0 0 -1 0 666)" d="M86.96 436.56L128 436.56L128 437.52L86.96 437.52z" stroke="none" fill="#000000" fill-rule="nonzero" /><path id="1249" transform="matrix(1 0 0 -1 0 666)" d="M127.04 400.56L128 400.56L128 437.04L127.04 437.04z" stroke="none" fill="#000000" fill-rule="nonzero" /><path id="1250" transform="matrix(1 0 0 -1 0 666)" d="M86.48 400.56L127.52 400.56L127.52 401.52L86.48 401.52z" stroke="none" fill="#000000" fill-rule="nonzero" /><path id="1251" transform="matrix(1 0 0 -1 0 666)" d="M86.48 401.04L87.43999 401.04L87.43999 437.52L86.48 437.52z" stroke="none" fill="#000000" fill-rule="nonzero" /><path id="1252" transform="matrix(1 0 0 -1 0 666)" d="M222.44 446.76L272.7195 446.76L272.7195 485.0395L222.44 485.0395z" stroke="none" fill="#FFFFFF" fill-rule="nonzero" /><path id="1253" transform="matrix(1 0 0 -1 0 666)" d="M222.44 484.56L273.2 484.56L273.2 485.52L222.44 485.52z" stroke="none" fill="#000000" fill-rule="nonzero" /><path id="1254" transform="matrix(1 0 0 -1 0 666)" d="M272.24 446.28L273.2 446.28L273.2 485.04L272.24 485.04z" stroke="none" fill="#000000" fill-rule="nonzero" /><path id="1255" transform="matrix(1 0 0 -1 0 666)" d="M221.96 446.28L272.72 446.28L272.72 447.24L221.96 447.24z" stroke="none" fill="#000000" fill-rule="nonzero" /><path id="1256" transform="matrix(1 0 0 -1 0 666)" d="M221.96 446.76L222.92 446.76L222.92 485.52L221.96 485.52z" stroke="none" fill="#000000" fill-rule="nonzero" /><path id="1351" transform="matrix(1 0 0 -1 0 666)" d="M324.56 471.24L382.76 471.24L382.76 472.2L324.56 472.2z" stroke="none" fill="#000000" fill-rule="nonzero" /><path id="1352" transform="matrix(1 0 0 -1 0 666)" d="M381.8 413.52L382.76 413.52L382.76 471.72L381.8 471.72z" stroke="none" fill="#000000" fill-rule="nonzero" /><path id="1353" transform="matrix(1 0 0 -1 0 666)" d="M324.08 413.52L382.28 413.52L382.28 414.48L324.08 414.48z" stroke="none" fill="#000000" fill-rule="nonzero" /><path id="1354" transform="matrix(1 0 0 -1 0 666)" d="M324.08 414L325.04 414L325.04 472.2L324.08 472.2z" stroke="none" fill="#000000" fill-rule="nonzero" /><path id="1355" transform="matrix(1 0 0 -1 0 666)" d="M203.48 428.76L253.7595 428.76L253.7595 467.0395L203.48 467.0395z" stroke="none" fill="#FFFFFF" fill-rule="nonzero" /><path id="1356" transform="matrix(1 0 0 -1 0 666)" d="M203.48 466.56L254.24 466.56L254.24 467.52L203.48 467.52z" stroke="none" fill="#000000" fill-rule="nonzero" /><path id="1357" transform="matrix(1 0 0 -1 0 666)" d="M253.28 428.28L254.24 428.28L254.24 467.04L253.28 467.04z" stroke="none" fill="#000000" fill-rule="nonzero" /><path id="1358" transform="matrix(1 0 0 -1 0 666)" d="M203 428.28L253.76 428.28L253.76 429.24L203 429.24z" stroke="none" fill="#000000" fill-rule="nonzero" /><path id="1359" transform="matrix(1 0 0 -1 0 666)" d="M203 428.76L203.96 428.76L203.96 467.52L203 467.52z" stroke="none" fill="#000000" fill-rule="nonzero" /><path id="1360" transform="matrix(1 0 0 -1 0 666)" d="M188.48 408.72L238.7595 408.72L238.7595 446.9995L188.48 446.9995z" stroke="none" fill="#FFFFFF" fill-rule="nonzero" /><path id="1361" transform="matrix(1 0 0 -1 0 666)" d="M188.48 446.52L239.24 446.52L239.24 447.48L188.48 447.48z" stroke="none" fill="#000000" fill-rule="nonzero" /><path id="1362" transform="matrix(1 0 0 -1 0 666)" d="M238.28 408.24L239.24 408.24L239.24 447L238.28 447z" stroke="none" fill="#000000" fill-rule="nonzero" /><path id="1363" transform="matrix(1 0 0 -1 0 666)" d="M188 408.24L238.76 408.24L238.76 409.2L188 409.2z" stroke="none" fill="#000000" fill-rule="nonzero" /><path id="1364" transform="matrix(1 0 0 -1 0 666)" d="M188 408.72L188.96 408.72L188.96 447.48L188 447.48z" stroke="none" fill="#000000" fill-rule="nonzero" /><path id="1413" transform="matrix(1 0 0 -1 0 666)" d="M87.2 466.56L102.7995 466.56L102.7995 479.2795L87.2 479.2795z" stroke="none" fill="#808080" fill-rule="nonzero" /><path id="1414" transform="matrix(1 0 0 -1 0 666)" d="M87.2 478.8L103.28 478.8L103.28 479.76L87.2 479.76z" stroke="none" fill="#000000" fill-rule="nonzero" /><path id="1415" transform="matrix(1 0 0 -1 0 666)" d="M102.32 466.08L103.28 466.08L103.28 479.28L102.32 479.28z" stroke="none" fill="#000000" fill-rule="nonzero" /><path id="1416" transform="matrix(1 0 0 -1 0 666)" d="M86.71999 466.08L102.8 466.08L102.8 467.04L86.71999 467.04z" stroke="none" fill="#000000" fill-rule="nonzero" /><path id="1417" transform="matrix(1 0 0 -1 0 666)" d="M86.71999 466.56L87.68 466.56L87.68 479.76L86.71999 479.76z" stroke="none" fill="#000000" fill-rule="nonzero" /><path id="1418" transform="matrix(1 0 0 -1 0 666)" d="M102.8 478.56L102.56 479.4L102.56 479.4L102.08 480.24L102.08 480.24L101.36 481.08L101.36 481.08L100.4 481.68L100.4 481.68L99.31999 482.28L99.31999 482.28L97.87999 482.64L97.87999 482.64L96.44 482.88L96.44 482.88L94.87999 483L94.87999 483L93.31999 482.88L93.31999 482.88L91.75999 482.64L91.75999 482.64L90.44 482.28L90.44 482.28L89.23999 481.68L89.23999 481.68L88.28 481.08L88.28 481.08L87.56 480.24L87.56 480.24L87.2 479.4L87.2 479.4L86.96 478.56L86.96 478.56L87.2 477.6L87.2 477.6L87.56 476.76L87.56 476.76L88.28 476.04L88.28 476.04L89.23999 475.32L89.23999 475.32L90.44 474.72L90.44 474.72L91.75999 474.36L91.75999 474.36L93.31999 474.12L93.31999 474.12L94.87999 474L94.87999 474L96.44 474.12L96.44 474.12L97.87999 474.36L97.87999 474.36L99.31999 474.72L99.31999 474.72L100.4 475.32L100.4 475.32L101.36 476.04L101.36 476.04L102.08 476.76L102.08 476.76L102.56 477.6L102.56 477.6L102.8 478.56" stroke="none" fill="#808080" fill-rule="evenodd" /><path id="1419" transform="matrix(1 0 0 -1 0 666)" d="M102.32 478.44L102.08 479.28L102.2 479.16L101.72 480L101.72 479.88L101 480.72L101.12 480.6L100.16 481.2L99.08 481.8L99.2 481.8L97.75999 482.16L97.87999 482.16L96.44 482.4L94.87999 482.52L95 482.52L93.44 482.4L91.87999 482.16L90.56 481.8L90.67999 481.8L89.48 481.2L88.52 480.6L88.64 480.72L87.92 479.88L88.03999 480L87.68 479.16L87.68 479.28L87.43999 478.44L87.43999 478.68L87.68 477.72L88.03999 476.88L87.92 477.12L88.64 476.4L89.59999 475.68L89.48 475.68L90.67999 475.08L90.56 475.2L91.87999 474.84L93.44 474.6L95 474.48L94.87999 474.48L96.44 474.6L97.87999 474.84L97.75999 474.84L99.2 475.2L99.08 475.08L100.16 475.68L101.12 476.4L101 476.4L101.72 477.12L101.72 477L102.2 477.84L102.08 477.72L102.32 478.68L103.28 478.44L103.04 477.48L103.04 477.36L102.56 476.52L102.44 476.4L101.72 475.68L100.76 474.96L100.64 474.84L99.56 474.24L99.44 474.24L98 473.88L96.56 473.64L95 473.52L94.87999 473.52L93.31999 473.64L91.75999 473.88L91.64 473.88L90.31999 474.24L90.2 474.24L89 474.84L89 474.96L88.03999 475.68L87.92 475.68L87.2 476.4L87.2 476.52L86.84 477.36L86.71999 477.48L86.48 478.44L86.48 478.68L86.71999 479.52L86.84 479.52L87.2 480.36L87.2 480.48L87.92 481.32L88.03999 481.44L89 482.04L90.2 482.64L90.31999 482.76L91.64 483.12L91.75999 483.12L93.31999 483.36L94.87999 483.48L95 483.48L96.56 483.36L98 483.12L99.44 482.76L99.56 482.64L100.64 482.04L101.6 481.44L101.72 481.32L102.44 480.48L102.56 480.48L103.04 479.64L103.04 479.52L103.28 478.68" stroke="none" fill="#000000" fill-rule="nonzero" /><path id="1420" transform="matrix(1 0 0 -1 0 666)" d="M102.32 478.68L102.32 478.44L103.28 478.68L103.28 478.44" stroke="none" fill="#000000" fill-rule="nonzero" /><path id="1421" transform="matrix(1 0 0 -1 0 666)" d="M103.04 465.48L102.8 466.44L102.8 466.44L102.32 467.28L102.32 467.28L101.6 468L101.6 468L100.64 468.72L100.64 468.72L99.56 469.2L99.56 469.2L98.23999 469.68L98.23999 469.68L96.67999 469.92L96.67999 469.92L95.12 470.04L95.12 470.04L93.56 469.92L93.56 469.92L92 469.68L92 469.68L90.67999 469.2L90.67999 469.2L89.59999 468.72L89.59999 468.72L88.64 468L88.64 468L87.92 467.28L87.92 467.28L87.43999 466.44L87.43999 466.44L87.2 465.48L87.2 465.48L87.43999 464.64L87.43999 464.64L87.92 463.8L87.92 463.8L88.64 462.96L88.64 462.96L89.59999 462.36L89.59999 462.36L90.67999 461.76L90.67999 461.76L92 461.4L92 461.4L93.56 461.04L93.56 461.04L96.67999 461.04L96.67999 461.04L98.23999 461.4L98.23999 461.4L99.56 461.76L99.56 461.76L100.64 462.36L100.64 462.36L101.6 462.96L101.6 462.96L102.32 463.8L102.32 463.8L102.8 464.64L102.8 464.64L103.04 465.48" stroke="none" fill="#808080" fill-rule="evenodd" /><path id="1422" transform="matrix(1 0 0 -1 0 666)" d="M102.56 465.36L102.32 466.32L102.44 466.2L101.96 467.04L101.96 466.92L101.24 467.64L101.36 467.64L100.4 468.36L100.52 468.24L99.44 468.72L98.12 469.2L98.23999 469.2L96.67999 469.44L95.12 469.56L95.23999 469.56L93.67999 469.44L92.12 469.2L92.23999 469.2L90.92 468.72L89.84 468.24L89.95999 468.36L89 467.64L88.28 466.92L88.39999 467.04L87.92 466.2L87.92 466.32L87.68 465.36L87.68 465.6L87.92 464.76L87.92 464.88L88.39999 464.04L88.28 464.04L89 463.2L88.87999 463.32L89.84 462.72L90.92 462.12L90.8 462.24L92.12 461.88L93.67999 461.52L93.56 461.52L95.12 461.52L96.67999 461.52L96.56 461.52L98.12 461.88L99.44 462.24L99.31999 462.12L100.4 462.72L101.36 463.32L101.24 463.2L101.96 464.04L102.44 464.88L102.32 464.76L102.56 465.6L103.52 465.36L103.28 464.52L103.28 464.4L102.8 463.56L102.68 463.44L101.96 462.6L101.84 462.48L100.88 461.88L99.8 461.28L99.67999 461.28L98.36 460.92L96.8 460.56L95.12 460.56L93.56 460.56L93.44 460.56L91.87999 460.92L90.56 461.28L90.44 461.28L89.36 461.88L88.39999 462.48L88.28 462.6L87.56 463.44L87.56 463.56L87.07999 464.4L86.96 464.52L86.71999 465.36L86.71999 465.6L86.96 466.56L87.07999 466.68L87.56 467.52L87.56 467.64L88.28 468.36L88.39999 468.36L89.36 469.08L89.48 469.08L90.56 469.56L90.56 469.68L91.87999 470.16L92 470.16L93.56 470.4L95.12 470.52L95.23999 470.52L96.8 470.4L98.36 470.16L98.48 470.16L99.8 469.68L99.8 469.56L100.88 469.08L101 469.08L101.96 468.36L102.68 467.64L102.8 467.52L103.28 466.68L103.28 466.56L103.52 465.6" stroke="none" fill="#000000" fill-rule="nonzero" /><path id="1423" transform="matrix(1 0 0 -1 0 666)" d="M102.56 465.6L102.56 465.36L103.52 465.6L103.52 465.36" stroke="none" fill="#000000" fill-rule="nonzero" /><path id="1424" transform="matrix(1 0 0 -1 0 666)" d="M88.16 465.36L101.8395 465.36L101.8395 471.9595L88.16 471.9595z" stroke="none" fill="#808080" fill-rule="nonzero" /><path id="1425" transform="matrix(1 0 0 -1 0 666)" d="M88.16 471.48L102.32 471.48L102.32 472.44L88.16 472.44z" stroke="none" fill="#808080" fill-rule="nonzero" /><path id="1426" transform="matrix(1 0 0 -1 0 666)" d="M101.36 464.88L102.32 464.88L102.32 471.96L101.36 471.96z" stroke="none" fill="#808080" fill-rule="nonzero" /><path id="1427" transform="matrix(1 0 0 -1 0 666)" d="M87.68 464.88L101.84 464.88L101.84 465.84L87.68 465.84z" stroke="none" fill="#808080" fill-rule="nonzero" /><path id="1428" transform="matrix(1 0 0 -1 0 666)" d="M87.68 465.36L88.64 465.36L88.64 472.44L87.68 472.44z" stroke="none" fill="#808080" fill-rule="nonzero" /><path id="1429" transform="matrix(1 0 0 -1 0 666)" d="M98.23999 458.52L113.8395 458.52L113.8395 471.2395L98.23999 471.2395z" stroke="none" fill="#808080" fill-rule="nonzero" /><path id="1430" transform="matrix(1 0 0 -1 0 666)" d="M98.23999 470.76L114.32 470.76L114.32 471.72L98.23999 471.72z" stroke="none" fill="#000000" fill-rule="nonzero" /><path id="1431" transform="matrix(1 0 0 -1 0 666)" d="M113.36 458.04L114.32 458.04L114.32 471.24L113.36 471.24z" stroke="none" fill="#000000" fill-rule="nonzero" /><path id="1432" transform="matrix(1 0 0 -1 0 666)" d="M97.75999 458.04L113.84 458.04L113.84 459L97.75999 459z" stroke="none" fill="#000000" fill-rule="nonzero" /><path id="1433" transform="matrix(1 0 0 -1 0 666)" d="M97.75999 458.52L98.72 458.52L98.72 471.72L97.75999 471.72z" stroke="none" fill="#000000" fill-rule="nonzero" /><path id="1434" transform="matrix(1 0 0 -1 0 666)" d="M113.72 470.52L113.6 471.36L113.6 471.36L113.12 472.2L113.12 472.2L112.4 473.04L112.4 473.04L111.44 473.64L111.44 473.64L110.24 474.24L110.24 474.24L108.92 474.6L108.92 474.6L107.48 474.96L107.48 474.96L104.24 474.96L104.24 474.96L102.8 474.6L102.8 474.6L101.48 474.24L101.48 474.24L100.28 473.64L100.28 473.64L99.31999 473.04L99.31999 473.04L98.59999 472.2L98.59999 472.2L98.12 471.36L98.12 471.36L98 470.52L98 470.52L98.12 469.56L98.12 469.56L98.59999 468.72L98.59999 468.72L99.31999 468L99.31999 468L100.28 467.28L100.28 467.28L101.48 466.8L101.48 466.8L102.8 466.32L102.8 466.32L104.24 466.08L104.24 466.08L105.92 465.96L105.92 465.96L107.48 466.08L107.48 466.08L108.92 466.32L108.92 466.32L110.24 466.8L110.24 466.8L111.44 467.28L111.44 467.28L112.4 468L112.4 468L113.12 468.72L113.12 468.72L113.6 469.56L113.6 469.56L113.72 470.52" stroke="none" fill="#808080" fill-rule="evenodd" /><path id="1435" transform="matrix(1 0 0 -1 0 666)" d="M113.24 470.4L113.12 471.24L113.24 471.12L112.76 471.96L112.76 471.84L112.04 472.68L112.16 472.56L111.2 473.16L110 473.76L110.12 473.76L108.8 474.12L107.36 474.48L107.48 474.48L105.92 474.48L104.24 474.48L104.36 474.48L102.92 474.12L101.6 473.76L101.72 473.76L100.52 473.16L99.56 472.56L99.67999 472.68L98.95999 471.84L99.08 471.96L98.59999 471.12L98.59999 471.24L98.48 470.4L98.48 470.52L98.59999 469.56L98.59999 469.8L99.08 468.96L98.95999 469.08L99.67999 468.36L100.64 467.64L100.52 467.64L101.72 467.16L101.72 467.28L103.04 466.8L102.92 466.8L104.36 466.56L106.04 466.44L105.92 466.44L107.48 466.56L108.92 466.8L108.8 466.8L110.12 467.28L110.12 467.16L111.32 467.64L111.2 467.64L112.16 468.36L112.04 468.36L112.76 469.08L112.76 468.96L113.24 469.8L113.12 469.56L113.24 470.52L114.2 470.4L114.08 469.44L114.08 469.32L113.6 468.48L113.48 468.36L112.76 467.64L111.8 466.92L111.68 466.8L110.48 466.32L109.16 465.84L109.04 465.84L107.6 465.6L106.04 465.48L105.92 465.48L104.24 465.6L102.8 465.84L102.68 465.84L101.36 466.32L100.16 466.8L100.04 466.92L99.08 467.64L98.95999 467.64L98.23999 468.36L98.23999 468.48L97.75999 469.32L97.64 469.44L97.52 470.4L97.52 470.52L97.64 471.36L97.75999 471.6L98.23999 472.44L98.95999 473.28L99.08 473.4L100.04 474L101.24 474.6L101.36 474.72L102.68 475.08L104.12 475.44L105.92 475.44L107.48 475.44L107.6 475.44L109.04 475.08L110.36 474.72L110.48 474.6L111.68 474L112.64 473.4L112.76 473.28L113.48 472.44L113.6 472.44L114.08 471.6L114.08 471.36L114.2 470.52" stroke="none" fill="#000000" fill-rule="nonzero" /><path id="1436" transform="matrix(1 0 0 -1 0 666)" d="M113.24 470.52L113.24 470.4L114.2 470.52L114.2 470.4" stroke="none" fill="#000000" fill-rule="nonzero" /><path id="1437" transform="matrix(1 0 0 -1 0 666)" d="M113.96 457.56L113.84 458.4L113.84 458.4L113.36 459.24L113.36 459.24L112.64 460.08L112.64 460.08L111.68 460.68L111.68 460.68L110.48 461.28L110.48 461.28L109.16 461.64L109.16 461.64L107.72 461.88L107.72 461.88L106.16 462L106.16 462L104.48 461.88L104.48 461.88L103.04 461.64L103.04 461.64L101.72 461.28L101.72 461.28L100.52 460.68L100.52 460.68L99.56 460.08L99.56 460.08L98.84 459.24L98.84 459.24L98.36 458.4L98.36 458.4L98.23999 457.56L98.23999 457.56L98.36 456.6L98.36 456.6L98.84 455.76L98.84 455.76L99.56 455.04L99.56 455.04L100.52 454.32L100.52 454.32L101.72 453.72L101.72 453.72L103.04 453.36L103.04 453.36L104.48 453.12L104.48 453.12L106.16 453L106.16 453L107.72 453.12L107.72 453.12L109.16 453.36L109.16 453.36L110.48 453.72L110.48 453.72L111.68 454.32L111.68 454.32L112.64 455.04L112.64 455.04L113.36 455.76L113.36 455.76L113.84 456.6L113.84 456.6L113.96 457.56" stroke="none" fill="#808080" fill-rule="evenodd" /><path id="1438" transform="matrix(1 0 0 -1 0 666)" d="M113.48 457.44L113.36 458.28L113.48 458.16L113 459L113 458.88L112.28 459.72L112.4 459.6L111.44 460.2L110.24 460.8L110.36 460.8L109.04 461.16L109.16 461.16L107.72 461.4L106.16 461.52L106.28 461.52L104.6 461.4L103.16 461.16L101.84 460.8L101.96 460.8L100.76 460.2L99.8 459.6L99.92 459.72L99.2 458.88L99.31999 459L98.84 458.16L98.84 458.28L98.72 457.44L98.72 457.56L98.84 456.6L98.84 456.84L99.31999 456L99.2 456.12L99.92 455.4L100.88 454.68L100.76 454.68L101.96 454.08L101.84 454.2L103.16 453.84L104.6 453.6L106.28 453.48L106.16 453.48L107.72 453.6L109.16 453.84L109.04 453.84L110.36 454.2L110.24 454.08L111.44 454.68L112.4 455.4L112.28 455.4L113 456.12L113 456L113.48 456.84L113.36 456.6L113.48 457.56L114.44 457.44L114.32 456.48L114.32 456.36L113.84 455.52L113.72 455.4L113 454.68L112.04 453.96L111.92 453.84L110.72 453.24L110.6 453.24L109.28 452.88L107.84 452.64L106.28 452.52L106.16 452.52L104.48 452.64L103.04 452.88L102.92 452.88L101.6 453.24L101.48 453.24L100.28 453.84L100.28 453.96L99.31999 454.68L99.2 454.68L98.48 455.4L98.48 455.52L98 456.36L97.87999 456.48L97.75999 457.44L97.75999 457.56L97.87999 458.4L98 458.64L98.48 459.48L99.2 460.32L99.31999 460.44L100.28 461.04L101.48 461.64L101.6 461.76L102.92 462.12L103.04 462.12L104.48 462.36L106.16 462.48L106.28 462.48L107.84 462.36L109.28 462.12L110.6 461.76L110.72 461.64L111.92 461.04L112.88 460.44L113 460.32L113.72 459.48L113.84 459.48L114.32 458.64L114.32 458.4L114.44 457.56" stroke="none" fill="#000000" fill-rule="nonzero" /><path id="1439" transform="matrix(1 0 0 -1 0 666)" d="M113.48 457.56L113.48 457.44L114.44 457.56L114.44 457.44" stroke="none" fill="#000000" fill-rule="nonzero" /><path id="1440" transform="matrix(1 0 0 -1 0 666)" d="M99.2 457.44L112.8795 457.44L112.8795 463.9195L99.2 463.9195z" stroke="none" fill="#808080" fill-rule="nonzero" /><path id="1441" transform="matrix(1 0 0 -1 0 666)" d="M99.2 463.44L113.36 463.44L113.36 464.4L99.2 464.4z" stroke="none" fill="#808080" fill-rule="nonzero" /><path id="1442" transform="matrix(1 0 0 -1 0 666)" d="M112.4 456.96L113.36 456.96L113.36 463.92L112.4 463.92z" stroke="none" fill="#808080" fill-rule="nonzero" /><path id="1443" transform="matrix(1 0 0 -1 0 666)" d="M98.72 456.96L112.88 456.96L112.88 457.92L98.72 457.92z" stroke="none" fill="#808080" fill-rule="nonzero" /><path id="1444" transform="matrix(1 0 0 -1 0 666)" d="M98.72 457.44L99.67999 457.44L99.67999 464.4L98.72 464.4z" stroke="none" fill="#808080" fill-rule="nonzero" /><path id="1445" transform="matrix(1 0 0 -1 0 666)" d="M108.2 450.72L123.7995 450.72L123.7995 463.5595L108.2 463.5595z" stroke="none" fill="#808080" fill-rule="nonzero" /><path id="1446" transform="matrix(1 0 0 -1 0 666)" d="M108.2 463.08L124.28 463.08L124.28 464.04L108.2 464.04z" stroke="none" fill="#000000" fill-rule="nonzero" /><path id="1447" transform="matrix(1 0 0 -1 0 666)" d="M123.32 450.24L124.28 450.24L124.28 463.56L123.32 463.56z" stroke="none" fill="#000000" fill-rule="nonzero" /><path id="1448" transform="matrix(1 0 0 -1 0 666)" d="M107.72 450.24L123.8 450.24L123.8 451.2L107.72 451.2z" stroke="none" fill="#000000" fill-rule="nonzero" /><path id="1449" transform="matrix(1 0 0 -1 0 666)" d="M107.72 450.72L108.68 450.72L108.68 464.04L107.72 464.04z" stroke="none" fill="#000000" fill-rule="nonzero" /><path id="1450" transform="matrix(1 0 0 -1 0 666)" d="M123.8 462.72L123.56 463.68L123.56 463.68L123.08 464.52L123.08 464.52L122.36 465.24L122.36 465.24L121.4 465.96L121.4 465.96L120.32 466.44L120.32 466.44L118.88 466.92L118.88 466.92L117.44 467.16L117.44 467.16L115.88 467.28L115.88 467.28L114.32 467.16L114.32 467.16L112.76 466.92L112.76 466.92L111.44 466.44L111.44 466.44L110.24 465.96L110.24 465.96L109.28 465.24L109.28 465.24L108.56 464.52L108.56 464.52L108.2 463.68L108.2 463.68L107.96 462.72L107.96 462.72L108.2 461.88L108.2 461.88L108.56 461.04L108.56 461.04L109.28 460.2L109.28 460.2L110.24 459.6L110.24 459.6L111.44 459L111.44 459L112.76 458.64L112.76 458.64L114.32 458.4L114.32 458.4L115.88 458.28L115.88 458.28L117.44 458.4L117.44 458.4L118.88 458.64L118.88 458.64L120.32 459L120.32 459L121.4 459.6L121.4 459.6L122.36 460.2L122.36 460.2L123.08 461.04L123.08 461.04L123.56 461.88L123.56 461.88L123.8 462.72" stroke="none" fill="#808080" fill-rule="evenodd" /><path id="1451" transform="matrix(1 0 0 -1 0 666)" d="M123.32 462.6L123.08 463.56L123.2 463.44L122.72 464.28L122.72 464.16L122 464.88L122.12 464.88L121.16 465.6L121.28 465.48L120.2 465.96L118.76 466.44L118.88 466.44L117.44 466.68L115.88 466.8L116 466.8L114.44 466.68L112.88 466.44L113 466.44L111.68 465.96L110.48 465.48L110.6 465.6L109.64 464.88L108.92 464.16L109.04 464.28L108.68 463.44L108.68 463.56L108.44 462.6L108.44 462.84L108.68 462L109.04 461.16L108.92 461.28L109.64 460.44L109.52 460.56L110.48 459.96L111.68 459.36L111.56 459.48L112.88 459.12L114.44 458.88L116 458.76L115.88 458.76L117.44 458.88L118.88 459.12L118.76 459.12L120.2 459.48L120.08 459.36L121.16 459.96L122.12 460.56L122 460.44L122.72 461.28L123.2 462.12L123.08 462L123.32 462.84L124.28 462.6L124.04 461.76L124.04 461.64L123.56 460.8L123.44 460.68L122.72 459.84L122.6 459.72L121.64 459.12L120.56 458.52L120.44 458.52L119 458.16L117.56 457.92L116 457.8L115.88 457.8L114.32 457.92L112.76 458.16L112.64 458.16L111.32 458.52L111.2 458.52L110 459.12L109.04 459.72L108.92 459.84L108.2 460.68L108.2 460.8L107.84 461.64L107.72 461.76L107.48 462.6L107.48 462.84L107.72 463.8L107.84 463.8L108.2 464.64L108.2 464.88L108.92 465.6L109.04 465.6L110 466.32L110.12 466.32L111.32 466.8L111.32 466.92L112.64 467.4L112.76 467.4L114.32 467.64L115.88 467.76L116 467.76L117.56 467.64L119 467.4L119.12 467.4L120.56 466.92L120.56 466.8L121.64 466.32L121.76 466.32L122.72 465.6L123.44 464.88L123.56 464.76L124.04 463.92L124.04 463.8L124.28 462.84" stroke="none" fill="#000000" fill-rule="nonzero" /><path id="1452" transform="matrix(1 0 0 -1 0 666)" d="M123.32 462.84L123.32 462.6L124.28 462.84L124.28 462.6" stroke="none" fill="#000000" fill-rule="nonzero" /><path id="1453" transform="matrix(1 0 0 -1 0 666)" d="M124.04 449.76L123.8 450.72L123.8 450.72L123.32 451.56L123.32 451.56L122.6 452.28L122.6 452.28L121.64 452.88L121.64 452.88L120.56 453.48L120.56 453.48L119.24 453.96L119.24 453.96L117.68 454.2L117.68 454.2L114.56 454.2L114.56 454.2L113 453.96L113 453.96L111.68 453.48L111.68 453.48L110.6 452.88L110.6 452.88L109.64 452.28L109.64 452.28L108.92 451.56L108.92 451.56L108.44 450.72L108.44 450.72L108.2 449.76L108.2 449.76L108.44 448.8L108.44 448.8L108.92 447.96L108.92 447.96L109.64 447.24L109.64 447.24L110.6 446.52L110.6 446.52L111.68 446.04L111.68 446.04L113 445.56L113 445.56L114.56 445.32L114.56 445.32L116.12 445.2L116.12 445.2L117.68 445.32L117.68 445.32L119.24 445.56L119.24 445.56L120.56 446.04L120.56 446.04L121.64 446.52L121.64 446.52L122.6 447.24L122.6 447.24L123.32 447.96L123.32 447.96L123.8 448.8L123.8 448.8L124.04 449.76" stroke="none" fill="#808080" fill-rule="evenodd" /><path id="1454" transform="matrix(1 0 0 -1 0 666)" d="M123.56 449.64L123.32 450.6L123.44 450.48L122.96 451.32L122.96 451.2L122.24 451.92L122.36 451.8L121.4 452.4L120.32 453L120.44 453L119.12 453.48L119.24 453.48L117.68 453.72L116.12 453.72L114.56 453.72L114.68 453.72L113.12 453.48L113.24 453.48L111.92 453L110.84 452.4L109.88 451.8L110 451.92L109.28 451.2L109.4 451.32L108.92 450.48L108.92 450.6L108.68 449.64L108.68 449.88L108.92 448.92L108.92 449.04L109.4 448.2L109.28 448.32L110 447.6L110.96 446.88L110.84 446.88L111.92 446.4L111.92 446.52L113.24 446.04L113.12 446.04L114.68 445.8L116.24 445.68L116.12 445.68L117.68 445.8L119.24 446.04L119.12 446.04L120.44 446.52L120.44 446.4L121.52 446.88L121.4 446.88L122.36 447.6L122.24 447.6L122.96 448.32L122.96 448.2L123.44 449.04L123.32 448.92L123.56 449.88L124.52 449.64L124.28 448.68L124.28 448.56L123.8 447.72L123.68 447.6L122.96 446.88L122 446.16L121.88 446.04L120.8 445.56L119.48 445.08L119.36 445.08L117.8 444.84L116.24 444.72L116.12 444.72L114.56 444.84L113 445.08L112.88 445.08L111.56 445.56L110.48 446.04L110.36 446.16L109.4 446.88L109.28 446.88L108.56 447.6L108.56 447.72L108.08 448.56L107.96 448.68L107.72 449.64L107.72 449.88L107.96 450.84L108.08 450.96L108.56 451.8L108.56 451.92L109.28 452.64L109.4 452.64L110.36 453.24L111.44 453.84L111.56 453.96L112.88 454.44L113 454.44L114.56 454.68L116.12 454.68L117.68 454.68L117.8 454.68L119.36 454.44L119.48 454.44L120.8 453.96L120.8 453.84L121.88 453.24L122.84 452.64L122.96 452.64L123.68 451.92L123.8 451.8L124.28 450.96L124.28 450.84L124.52 449.88" stroke="none" fill="#000000" fill-rule="nonzero" /><path id="1455" transform="matrix(1 0 0 -1 0 666)" d="M123.56 449.88L123.56 449.64L124.52 449.88L124.52 449.64" stroke="none" fill="#000000" fill-rule="nonzero" /><path id="1456" transform="matrix(1 0 0 -1 0 666)" d="M109.16 449.64L122.8395 449.64L122.8395 456.2395L109.16 456.2395z" stroke="none" fill="#808080" fill-rule="nonzero" /><path id="1457" transform="matrix(1 0 0 -1 0 666)" d="M109.16 455.76L123.32 455.76L123.32 456.72L109.16 456.72z" stroke="none" fill="#808080" fill-rule="nonzero" /><path id="1458" transform="matrix(1 0 0 -1 0 666)" d="M122.36 449.16L123.32 449.16L123.32 456.24L122.36 456.24z" stroke="none" fill="#808080" fill-rule="nonzero" /><path id="1459" transform="matrix(1 0 0 -1 0 666)" d="M108.68 449.16L122.84 449.16L122.84 450.12L108.68 450.12z" stroke="none" fill="#808080" fill-rule="nonzero" /><path id="1460" transform="matrix(1 0 0 -1 0 666)" d="M108.68 449.64L109.64 449.64L109.64 456.72L108.68 456.72z" stroke="none" fill="#808080" fill-rule="nonzero" /><path id="1461" transform="matrix(1 0 0 -1 0 666)" d="M139.28 474.48L154.7595 474.48L154.7595 487.1995L139.28 487.1995z" stroke="none" fill="#808080" fill-rule="nonzero" /><path id="1462" transform="matrix(1 0 0 -1 0 666)" d="M139.28 486.72L155.24 486.72L155.24 487.68L139.28 487.68z" stroke="none" fill="#000000" fill-rule="nonzero" /><path id="1463" transform="matrix(1 0 0 -1 0 666)" d="M154.28 474L155.24 474L155.24 487.2L154.28 487.2z" stroke="none" fill="#000000" fill-rule="nonzero" /><path id="1464" transform="matrix(1 0 0 -1 0 666)" d="M138.8 474L154.76 474L154.76 474.96L138.8 474.96z" stroke="none" fill="#000000" fill-rule="nonzero" /><path id="1465" transform="matrix(1 0 0 -1 0 666)" d="M138.8 474.48L139.76 474.48L139.76 487.68L138.8 487.68z" stroke="none" fill="#000000" fill-rule="nonzero" /><path id="1466" transform="matrix(1 0 0 -1 0 666)" d="M154.76 486.48L154.64 487.44L154.64 487.44L154.16 488.28L154.16 488.28L153.44 489L153.44 489L152.48 489.72L152.48 489.72L151.28 490.2L151.28 490.2L149.96 490.68L149.96 490.68L148.4 490.92L148.4 490.92L146.84 491.04L146.84 491.04L145.28 490.92L145.28 490.92L143.84 490.68L143.84 490.68L142.52 490.2L142.52 490.2L141.32 489.72L141.32 489.72L140.36 489L140.36 489L139.64 488.28L139.64 488.28L139.16 487.44L139.16 487.44L139.04 486.48L139.04 486.48L139.16 485.64L139.16 485.64L139.64 484.8L139.64 484.8L140.36 483.96L140.36 483.96L141.32 483.36L141.32 483.36L142.52 482.76L142.52 482.76L143.84 482.4L143.84 482.4L145.28 482.04L145.28 482.04L148.4 482.04L148.4 482.04L149.96 482.4L149.96 482.4L151.28 482.76L151.28 482.76L152.48 483.36L152.48 483.36L153.44 483.96L153.44 483.96L154.16 484.8L154.16 484.8L154.64 485.64L154.64 485.64L154.76 486.48" stroke="none" fill="#808080" fill-rule="evenodd" /><path id="1467" transform="matrix(1 0 0 -1 0 666)" d="M154.28 486.36L154.16 487.32L154.28 487.2L153.8 488.04L153.8 487.92L153.08 488.64L153.2 488.64L152.24 489.36L152.36 489.24L151.16 489.72L149.84 490.2L149.96 490.2L148.4 490.44L146.84 490.56L146.96 490.56L145.4 490.44L143.96 490.2L144.08 490.2L142.76 489.72L141.56 489.24L141.68 489.36L140.72 488.64L140 487.92L140.12 488.04L139.64 487.2L139.64 487.32L139.52 486.36L139.52 486.48L139.64 485.64L139.64 485.88L140.12 485.04L140 485.04L140.72 484.2L140.6 484.32L141.56 483.72L142.76 483.12L142.64 483.24L143.96 482.88L145.4 482.52L145.28 482.52L146.84 482.52L148.4 482.52L148.28 482.52L149.84 482.88L151.16 483.24L151.04 483.12L152.24 483.72L153.2 484.32L153.08 484.2L153.8 485.04L154.28 485.88L154.16 485.64L154.28 486.48L155.24 486.36L155.12 485.52L155.12 485.4L154.64 484.56L154.52 484.44L153.8 483.6L153.68 483.48L152.72 482.88L151.52 482.28L151.4 482.28L150.08 481.92L148.52 481.56L146.84 481.56L145.28 481.56L145.16 481.56L143.72 481.92L142.4 482.28L142.28 482.28L141.08 482.88L140.12 483.48L140 483.6L139.28 484.44L139.28 484.56L138.8 485.4L138.68 485.52L138.56 486.36L138.56 486.48L138.68 487.44L138.8 487.68L139.28 488.52L139.28 488.64L140 489.36L140.12 489.36L141.08 490.08L141.2 490.08L142.4 490.56L142.4 490.68L143.72 491.16L143.84 491.16L145.28 491.4L146.84 491.52L146.96 491.52L148.52 491.4L150.08 491.16L150.2 491.16L151.52 490.68L151.52 490.56L152.72 490.08L152.84 490.08L153.8 489.36L154.52 488.64L154.64 488.52L155.12 487.68L155.12 487.44L155.24 486.48" stroke="none" fill="#000000" fill-rule="nonzero" /><path id="1468" transform="matrix(1 0 0 -1 0 666)" d="M154.28 486.48L154.28 486.36L155.24 486.48L155.24 486.36" stroke="none" fill="#000000" fill-rule="nonzero" /><path id="1469" transform="matrix(1 0 0 -1 0 666)" d="M155 473.52L154.88 474.36L154.88 474.36L154.4 475.2L154.4 475.2L153.68 476.04L153.68 476.04L152.72 476.64L152.72 476.64L151.52 477.24L151.52 477.24L150.2 477.6L150.2 477.6L148.76 477.96L148.76 477.96L145.52 477.96L145.52 477.96L144.08 477.6L144.08 477.6L142.76 477.24L142.76 477.24L141.56 476.64L141.56 476.64L140.6 476.04L140.6 476.04L139.88 475.2L139.88 475.2L139.4 474.36L139.4 474.36L139.28 473.52L139.28 473.52L139.4 472.56L139.4 472.56L139.88 471.72L139.88 471.72L140.6 471L140.6 471L141.56 470.28L141.56 470.28L142.76 469.8L142.76 469.8L144.08 469.32L144.08 469.32L145.52 469.08L145.52 469.08L147.08 468.96L147.08 468.96L148.76 469.08L148.76 469.08L150.2 469.32L150.2 469.32L151.52 469.8L151.52 469.8L152.72 470.28L152.72 470.28L153.68 471L153.68 471L154.4 471.72L154.4 471.72L154.88 472.56L154.88 472.56L155 473.52" stroke="none" fill="#808080" fill-rule="evenodd" /><path id="1470" transform="matrix(1 0 0 -1 0 666)" d="M154.52 473.4L154.4 474.24L154.52 474.12L154.04 474.96L154.04 474.84L153.32 475.68L153.44 475.56L152.48 476.16L151.28 476.76L151.4 476.76L150.08 477.12L148.64 477.48L148.76 477.48L147.08 477.48L145.52 477.48L145.64 477.48L144.2 477.12L142.88 476.76L143 476.76L141.8 476.16L140.84 475.56L140.96 475.68L140.24 474.84L140.36 474.96L139.88 474.12L139.88 474.24L139.76 473.4L139.76 473.52L139.88 472.56L139.88 472.8L140.36 471.96L140.24 472.08L140.96 471.36L141.92 470.64L141.8 470.64L143 470.16L143 470.28L144.32 469.8L144.2 469.8L145.64 469.56L147.2 469.44L147.08 469.44L148.76 469.56L150.2 469.8L150.08 469.8L151.4 470.28L151.4 470.16L152.6 470.64L152.48 470.64L153.44 471.36L153.32 471.36L154.04 472.08L154.04 471.96L154.52 472.8L154.4 472.56L154.52 473.52L155.48 473.4L155.36 472.44L155.36 472.32L154.88 471.48L154.76 471.36L154.04 470.64L153.08 469.92L152.96 469.8L151.76 469.32L150.44 468.84L150.32 468.84L148.88 468.6L147.2 468.48L147.08 468.48L145.52 468.6L144.08 468.84L143.96 468.84L142.64 469.32L141.44 469.8L141.32 469.92L140.36 470.64L140.24 470.64L139.52 471.36L139.52 471.48L139.04 472.32L138.92 472.44L138.8 473.4L138.8 473.52L138.92 474.36L139.04 474.6L139.52 475.44L140.24 476.28L140.36 476.4L141.32 477L142.52 477.6L142.64 477.72L143.96 478.08L145.4 478.44L147.08 478.44L148.76 478.44L148.88 478.44L150.32 478.08L151.64 477.72L151.76 477.6L152.96 477L153.92 476.4L154.04 476.28L154.76 475.44L154.88 475.44L155.36 474.6L155.36 474.36L155.48 473.52" stroke="none" fill="#000000" fill-rule="nonzero" /><path id="1471" transform="matrix(1 0 0 -1 0 666)" d="M154.52 473.52L154.52 473.4L155.48 473.52L155.48 473.4" stroke="none" fill="#000000" fill-rule="nonzero" /><path id="1472" transform="matrix(1 0 0 -1 0 666)" d="M140.24 473.4L153.9195 473.4L153.9195 479.9995L140.24 479.9995z" stroke="none" fill="#808080" fill-rule="nonzero" /><path id="1473" transform="matrix(1 0 0 -1 0 666)" d="M140.24 479.52L154.4 479.52L154.4 480.48L140.24 480.48z" stroke="none" fill="#808080" fill-rule="nonzero" /><path id="1474" transform="matrix(1 0 0 -1 0 666)" d="M153.44 472.92L154.4 472.92L154.4 480L153.44 480z" stroke="none" fill="#808080" fill-rule="nonzero" /><path id="1475" transform="matrix(1 0 0 -1 0 666)" d="M139.76 472.92L153.92 472.92L153.92 473.88L139.76 473.88z" stroke="none" fill="#808080" fill-rule="nonzero" /><path id="1476" transform="matrix(1 0 0 -1 0 666)" d="M139.76 473.4L140.72 473.4L140.72 480.48L139.76 480.48z" stroke="none" fill="#808080" fill-rule="nonzero" /><path id="1477" transform="matrix(1 0 0 -1 0 666)" d="M129.2 466.56L144.7995 466.56L144.7995 479.2795L129.2 479.2795z" stroke="none" fill="#808080" fill-rule="nonzero" /><path id="1478" transform="matrix(1 0 0 -1 0 666)" d="M129.2 478.8L145.28 478.8L145.28 479.76L129.2 479.76z" stroke="none" fill="#000000" fill-rule="nonzero" /><path id="1479" transform="matrix(1 0 0 -1 0 666)" d="M144.32 466.08L145.28 466.08L145.28 479.28L144.32 479.28z" stroke="none" fill="#000000" fill-rule="nonzero" /><path id="1480" transform="matrix(1 0 0 -1 0 666)" d="M128.72 466.08L144.8 466.08L144.8 467.04L128.72 467.04z" stroke="none" fill="#000000" fill-rule="nonzero" /><path id="1481" transform="matrix(1 0 0 -1 0 666)" d="M128.72 466.56L129.68 466.56L129.68 479.76L128.72 479.76z" stroke="none" fill="#000000" fill-rule="nonzero" /><path id="1482" transform="matrix(1 0 0 -1 0 666)" d="M144.8 478.56L144.56 479.4L144.56 479.4L144.08 480.24L144.08 480.24L143.36 481.08L143.36 481.08L142.4 481.68L142.4 481.68L141.32 482.28L141.32 482.28L139.88 482.64L139.88 482.64L138.44 482.88L138.44 482.88L136.88 483L136.88 483L135.32 482.88L135.32 482.88L133.76 482.64L133.76 482.64L132.44 482.28L132.44 482.28L131.36 481.68L131.36 481.68L130.28 481.08L130.28 481.08L129.56 480.24L129.56 480.24L129.2 479.4L129.2 479.4L128.96 478.56L128.96 478.56L129.2 477.6L129.2 477.6L129.56 476.76L129.56 476.76L130.28 476.04L130.28 476.04L131.36 475.32L131.36 475.32L132.44 474.72L132.44 474.72L133.76 474.36L133.76 474.36L135.32 474.12L135.32 474.12L136.88 474L136.88 474L138.44 474.12L138.44 474.12L139.88 474.36L139.88 474.36L141.32 474.72L141.32 474.72L142.4 475.32L142.4 475.32L143.36 476.04L143.36 476.04L144.08 476.76L144.08 476.76L144.56 477.6L144.56 477.6L144.8 478.56" stroke="none" fill="#808080" fill-rule="evenodd" /><path id="1483" transform="matrix(1 0 0 -1 0 666)" d="M144.32 478.44L144.08 479.28L144.2 479.16L143.72 480L143.72 479.88L143 480.72L143.12 480.6L142.16 481.2L141.08 481.8L141.2 481.8L139.76 482.16L139.88 482.16L138.44 482.4L136.88 482.52L137 482.52L135.44 482.4L133.88 482.16L132.56 481.8L132.68 481.8L131.6 481.2L130.52 480.6L130.64 480.72L129.92 479.88L130.04 480L129.68 479.16L129.68 479.28L129.44 478.44L129.44 478.68L129.68 477.72L130.04 476.88L129.92 477.12L130.64 476.4L130.52 476.4L131.6 475.68L132.68 475.08L132.56 475.2L133.88 474.84L135.44 474.6L137 474.48L136.88 474.48L138.44 474.6L139.88 474.84L139.76 474.84L141.2 475.2L141.08 475.08L142.16 475.68L143.12 476.4L143 476.4L143.72 477.12L143.72 477L144.2 477.84L144.08 477.72L144.32 478.68L145.28 478.44L145.04 477.48L145.04 477.36L144.56 476.52L144.44 476.4L143.72 475.68L142.76 474.96L142.64 474.84L141.56 474.24L141.44 474.24L140 473.88L138.56 473.64L137 473.52L136.88 473.52L135.32 473.64L133.76 473.88L133.64 473.88L132.32 474.24L132.2 474.24L131.12 474.84L130.04 475.56L129.92 475.68L129.2 476.4L129.2 476.52L128.84 477.36L128.72 477.48L128.48 478.44L128.48 478.68L128.72 479.52L128.84 479.52L129.2 480.36L129.2 480.48L129.92 481.32L130.04 481.44L131.12 482.04L132.2 482.64L132.32 482.76L133.64 483.12L133.76 483.12L135.32 483.36L136.88 483.48L137 483.48L138.56 483.36L140 483.12L141.44 482.76L141.56 482.64L142.64 482.04L143.6 481.44L143.72 481.32L144.44 480.48L144.56 480.48L145.04 479.64L145.04 479.52L145.28 478.68" stroke="none" fill="#000000" fill-rule="nonzero" /><path id="1484" transform="matrix(1 0 0 -1 0 666)" d="M144.32 478.68L144.32 478.44L145.28 478.68L145.28 478.44" stroke="none" fill="#000000" fill-rule="nonzero" /><path id="1485" transform="matrix(1 0 0 -1 0 666)" d="M145.04 465.48L144.8 466.44L144.8 466.44L144.32 467.28L144.32 467.28L143.6 468L143.6 468L142.64 468.72L142.64 468.72L141.56 469.2L141.56 469.2L140.24 469.68L140.24 469.68L138.68 469.92L138.68 469.92L137.12 470.04L137.12 470.04L135.56 469.92L135.56 469.92L134 469.68L134 469.68L132.68 469.2L132.68 469.2L131.6 468.72L131.6 468.72L130.64 468L130.64 468L129.92 467.28L129.92 467.28L129.44 466.44L129.44 466.44L129.2 465.48L129.2 465.48L129.44 464.64L129.44 464.64L129.92 463.8L129.92 463.8L130.64 462.96L130.64 462.96L131.6 462.36L131.6 462.36L132.68 461.76L132.68 461.76L134 461.4L134 461.4L135.56 461.04L135.56 461.04L138.68 461.04L138.68 461.04L140.24 461.4L140.24 461.4L141.56 461.76L141.56 461.76L142.64 462.36L142.64 462.36L143.6 462.96L143.6 462.96L144.32 463.8L144.32 463.8L144.8 464.64L144.8 464.64L145.04 465.48" stroke="none" fill="#808080" fill-rule="evenodd" /><path id="1486" transform="matrix(1 0 0 -1 0 666)" d="M144.56 465.36L144.32 466.32L144.44 466.2L143.96 467.04L143.96 466.92L143.24 467.64L143.36 467.64L142.4 468.36L142.52 468.24L141.44 468.72L140.12 469.2L140.24 469.2L138.68 469.44L137.12 469.56L137.24 469.56L135.68 469.44L134.12 469.2L134.24 469.2L132.92 468.72L131.84 468.24L131.96 468.36L131 467.64L130.28 466.92L130.4 467.04L129.92 466.2L129.92 466.32L129.68 465.36L129.68 465.6L129.92 464.76L129.92 464.88L130.4 464.04L130.28 464.04L131 463.2L130.88 463.32L131.84 462.72L132.92 462.12L132.8 462.24L134.12 461.88L135.68 461.52L135.56 461.52L137.12 461.52L138.68 461.52L138.56 461.52L140.12 461.88L141.44 462.24L141.32 462.12L142.4 462.72L143.36 463.32L143.24 463.2L143.96 464.04L144.44 464.88L144.32 464.76L144.56 465.6L145.52 465.36L145.28 464.52L145.28 464.4L144.8 463.56L144.68 463.44L143.96 462.6L143.84 462.48L142.88 461.88L141.8 461.28L141.68 461.28L140.36 460.92L138.8 460.56L137.12 460.56L135.56 460.56L135.44 460.56L133.88 460.92L132.56 461.28L132.44 461.28L131.36 461.88L130.4 462.48L130.28 462.6L129.56 463.44L129.56 463.56L129.08 464.4L128.96 464.52L128.72 465.36L128.72 465.6L128.96 466.56L129.08 466.68L129.56 467.52L129.56 467.64L130.28 468.36L130.4 468.36L131.36 469.08L131.48 469.08L132.56 469.56L132.56 469.68L133.88 470.16L134 470.16L135.56 470.4L137.12 470.52L137.24 470.52L138.8 470.4L140.36 470.16L140.48 470.16L141.8 469.68L141.8 469.56L142.88 469.08L143 469.08L143.96 468.36L144.68 467.64L144.8 467.52L145.28 466.68L145.28 466.56L145.52 465.6" stroke="none" fill="#000000" fill-rule="nonzero" /><path id="1487" transform="matrix(1 0 0 -1 0 666)" d="M144.56 465.6L144.56 465.36L145.52 465.6L145.52 465.36" stroke="none" fill="#000000" fill-rule="nonzero" /><path id="1488" transform="matrix(1 0 0 -1 0 666)" d="M130.16 465.36L143.8395 465.36L143.8395 471.9595L130.16 471.9595z" stroke="none" fill="#808080" fill-rule="nonzero" /><path id="1489" transform="matrix(1 0 0 -1 0 666)" d="M130.16 471.48L144.32 471.48L144.32 472.44L130.16 472.44z" stroke="none" fill="#808080" fill-rule="nonzero" /><path id="1490" transform="matrix(1 0 0 -1 0 666)" d="M143.36 464.88L144.32 464.88L144.32 471.96L143.36 471.96z" stroke="none" fill="#808080" fill-rule="nonzero" /><path id="1491" transform="matrix(1 0 0 -1 0 666)" d="M129.68 464.88L143.84 464.88L143.84 465.84L129.68 465.84z" stroke="none" fill="#808080" fill-rule="nonzero" /><path id="1492" transform="matrix(1 0 0 -1 0 666)" d="M129.68 465.36L130.64 465.36L130.64 472.44L129.68 472.44z" stroke="none" fill="#808080" fill-rule="nonzero" /><path id="1493" transform="matrix(1 0 0 -1 0 666)" d="M252.92 416.28L252.92 412.2L252.32 412.32L240.2 415.8L238.52 416.28L240.2 416.76L252.32 420.24L252.92 420.36L252.92 419.76L252.56 419.28L240.44 415.8L240.2 416.76L240.44 416.76L252.56 413.28L252.32 412.32L251.96 412.8L251.96 416.28" stroke="none" fill="#000000" fill-rule="nonzero" /><path id="1494" transform="matrix(1 0 0 -1 0 666)" d="M252.92 419.76L252.92 416.28L251.96 416.28L251.96 419.76" stroke="none" fill="#000000" fill-rule="nonzero" /><path id="1495" transform="matrix(1 0 0 -1 0 666)" d="M252.44 416.28L252.44 412.8L252.44 412.8L240.32 416.28L240.32 416.28L252.44 419.76" stroke="none" fill="#000000" fill-rule="evenodd" /><path id="1496" transform="matrix(1 0 0 -1 0 666)" d="M252.92 415.8L325.52 415.8L325.52 416.76L252.92 416.76z" stroke="none" fill="#000000" fill-rule="nonzero" /><path id="1497" transform="matrix(1 0 0 -1 0 666)" d="M276.44 434.28L276.44 430.2L275.84 430.32L263.72 433.8L262.04 434.28L263.72 434.76L275.84 438.24L276.44 438.36L276.44 437.76L276.08 437.28L263.96 433.8L263.72 434.76L263.96 434.76L276.08 431.28L275.84 430.32L275.48 430.8L275.48 434.28" stroke="none" fill="#000000" fill-rule="nonzero" /><path id="1498" transform="matrix(1 0 0 -1 0 666)" d="M276.44 437.76L276.44 434.28L275.48 434.28L275.48 437.76" stroke="none" fill="#000000" fill-rule="nonzero" /><path id="1499" transform="matrix(1 0 0 -1 0 666)" d="M275.96 434.28L275.96 430.8L275.96 430.8L263.84 434.28L263.84 434.28L275.96 437.76" stroke="none" fill="#000000" fill-rule="evenodd" /><path id="1500" transform="matrix(1 0 0 -1 0 666)" d="M276.44 433.8L325.52 433.8L325.52 434.76L276.44 434.76z" stroke="none" fill="#000000" fill-rule="nonzero" /><path id="1501" transform="matrix(1 0 0 -1 0 666)" d="M302.36 452.28L302.36 448.2L301.76 448.32L289.64 451.8L287.96 452.28L289.64 452.76L301.76 456.24L302.36 456.36L302.36 455.76L302 455.28L289.88 451.8L289.64 452.76L289.88 452.76L302 449.28L301.76 448.32L301.4 448.8L301.4 452.28" stroke="none" fill="#000000" fill-rule="nonzero" /><path id="1502" transform="matrix(1 0 0 -1 0 666)" d="M302.36 455.76L302.36 452.28L301.4 452.28L301.4 455.76" stroke="none" fill="#000000" fill-rule="nonzero" /><path id="1503" transform="matrix(1 0 0 -1 0 666)" d="M301.88 452.28L301.88 448.8L301.88 448.8L289.76 452.28L289.76 452.28L301.88 455.76" stroke="none" fill="#000000" fill-rule="evenodd" /><path id="1504" transform="matrix(1 0 0 -1 0 666)" d="M302.48 451.8L324.8 451.8L324.8 452.76L302.48 452.76z" stroke="none" fill="#000000" fill-rule="nonzero" /><path id="1505" transform="matrix(1 0 0 -1 0 666)" d="M142.16 417L142.16 412.92L141.56 413.04L129.44 416.52L127.76 417L129.44 417.48L141.56 420.96L142.16 421.08L142.16 420.48L141.8 420L129.68 416.52L129.44 417.48L129.68 417.48L141.8 414L141.56 413.04L141.2 413.52L141.2 417" stroke="none" fill="#000000" fill-rule="nonzero" /><path id="1506" transform="matrix(1 0 0 -1 0 666)" d="M142.16 420.48L142.16 417L141.2 417L141.2 420.48" stroke="none" fill="#000000" fill-rule="nonzero" /><path id="1507" transform="matrix(1 0 0 -1 0 666)" d="M141.68 417L141.68 413.52L141.68 413.52L129.56 417L129.56 417L141.68 420.48" stroke="none" fill="#000000" fill-rule="evenodd" /><path id="1508" transform="matrix(1 0 0 -1 0 666)" d="M142.16 416.52L188.24 416.52L188.24 417.48L142.16 417.48z" stroke="none" fill="#000000" fill-rule="nonzero" /><path id="1509" transform="matrix(1 0 0 -1 0 666)" d="M167.12 474.96L167.12 470.88L166.52 471L154.4 474.48L152.72 474.96L154.4 475.44L166.52 478.92L167.12 479.04L167.12 478.44L166.76 477.96L154.64 474.48L154.4 475.44L154.64 475.44L166.76 471.96L166.52 471L166.16 471.48L166.16 474.96" stroke="none" fill="#000000" fill-rule="nonzero" /><path id="1510" transform="matrix(1 0 0 -1 0 666)" d="M167.12 478.44L167.12 474.96L166.16 474.96L166.16 478.44" stroke="none" fill="#000000" fill-rule="nonzero" /><path id="1511" transform="matrix(1 0 0 -1 0 666)" d="M166.64 474.96L166.64 471.48L166.64 471.48L154.52 474.96L154.52 474.96L166.64 478.44" stroke="none" fill="#000000" fill-rule="evenodd" /><path id="1512" transform="matrix(1 0 0 -1 0 666)" d="M167.12 474.48L222.8 474.48L222.8 475.44L167.12 475.44z" stroke="none" fill="#000000" fill-rule="nonzero" /><path id="1513" transform="matrix(1 0 0 -1 0 666)" d="M138.2 453L138.2 448.92L137.6 449.04L125.48 452.52L123.8 453L125.48 453.48L137.6 456.96L138.2 457.08L138.2 456.48L137.84 456L125.72 452.52L125.48 453.48L125.72 453.48L137.84 450L137.6 449.04L137.24 449.52L137.24 453" stroke="none" fill="#000000" fill-rule="nonzero" /><path id="1514" transform="matrix(1 0 0 -1 0 666)" d="M138.2 456.48L138.2 453L137.24 453L137.24 456.48" stroke="none" fill="#000000" fill-rule="nonzero" /><path id="1515" transform="matrix(1 0 0 -1 0 666)" d="M137.72 453L137.72 449.52L137.72 449.52L125.6 453L125.6 453L137.72 456.48" stroke="none" fill="#000000" fill-rule="evenodd" /><path id="1516" transform="matrix(1 0 0 -1 0 666)" d="M138.2 452.52L203.24 452.52L203.24 453.48L138.2 453.48z" stroke="none" fill="#000000" fill-rule="nonzero" /><path id="1517" transform="matrix(1 0 0 -1 0 666)" d="M347.48 471.72L348.44 471.72L348.44 543.72L347.48 543.72z" stroke="none" fill="#000000" fill-rule="nonzero" /><path id="1536" transform="matrix(1 0 0 -1 0 666)" d="M269.48 485.28L270.44 485.28L270.44 542.76L269.48 542.76z" stroke="none" fill="#000000" fill-rule="nonzero" /><path id="1537" transform="matrix(1 0 0 -1 0 666)" d="M248.48 466.56L249.44 466.56L249.44 542.76L248.48 542.76z" stroke="none" fill="#000000" fill-rule="nonzero" /><path id="1538" transform="matrix(1 0 0 -1 0 666)" d="M226.52 447.72L227.48 447.72L227.48 542.76L226.52 542.76z" stroke="none" fill="#000000" fill-rule="nonzero" /></g></g></g></svg>