<svg xmlns="http://www.w3.org/2000/svg" xmlns:xlink="http://www.w3.org/1999/xlink" id="body_6" preserveAspectRatio="xMinYMin meet" viewBox="0 0 709 888"><defs><clipPath id="1"><path id="" clip-rule="evenodd" transform="matrix(1 0 0 1 0 0)" d="M0 666L0 0L0 0L532 0L532 0L532 666L532 666L0 666z" /></clipPath></defs><g transform="matrix(1.333333 0 0 1.333333 0 0)"><g clip-path="url(#1)"><path id="1188" transform="matrix(1 0 0 -1 0 666)" d="M226.88 130.2L227.36 130.2L227.36 317.04L226.88 317.04z" stroke="none" fill="#000000" fill-rule="nonzero" /><path id="1189" transform="matrix(1 0 0 -1 0 666)" d="M304.28 130.2L304.76 130.2L304.76 295.8L304.28 295.8z" stroke="none" fill="#000000" fill-rule="nonzero" /><path id="1190" transform="matrix(1 0 0 -1 0 666)" d="M381.68 130.2L382.16 130.2L382.16 295.8L381.68 295.8z" stroke="none" fill="#000000" fill-rule="nonzero" /><path id="1191" transform="matrix(1 0 0 -1 0 666)" d="M99.8 316.08L459.2 316.08L459.2 317.04L99.8 317.04z" stroke="none" fill="#000000" fill-rule="nonzero" /><path id="1192" transform="matrix(1 0 0 -1 0 666)" d="M226.88 295.2L459.2 295.2L459.2 295.68L226.88 295.68z" stroke="none" fill="#000000" fill-rule="nonzero" /><path id="1193" transform="matrix(1 0 0 -1 0 666)" d="M99.8 249.96L459.2 249.96L459.2 250.92L99.8 250.92z" stroke="none" fill="#000000" fill-rule="nonzero" /><path id="1194" transform="matrix(1 0 0 -1 0 666)" d="M99.8 230.28L459.2 230.28L459.2 230.76L99.8 230.76z" stroke="none" fill="#000000" fill-rule="nonzero" /><path id="1195" transform="matrix(1 0 0 -1 0 666)" d="M99.8 210.24L459.2 210.24L459.2 210.72L99.8 210.72z" stroke="none" fill="#000000" fill-rule="nonzero" /><path id="1196" transform="matrix(1 0 0 -1 0 666)" d="M99.8 190.2L459.2 190.2L459.2 190.68L99.8 190.68z" stroke="none" fill="#000000" fill-rule="nonzero" /><path id="1197" transform="matrix(1 0 0 -1 0 666)" d="M99.8 170.28L459.2 170.28L459.2 170.76L99.8 170.76z" stroke="none" fill="#000000" fill-rule="nonzero" /><path id="1198" transform="matrix(1 0 0 -1 0 666)" d="M99.8 150.24L459.2 150.24L459.2 150.72L99.8 150.72z" stroke="none" fill="#000000" fill-rule="nonzero" /><path id="1199" transform="matrix(1 0 0 -1 0 666)" d="M99.8 130.2L459.2 130.2L459.2 130.68L99.8 130.68z" stroke="none" fill="#000000" fill-rule="nonzero" /></g></g></svg>