<svg xmlns="http://www.w3.org/2000/svg" xmlns:xlink="http://www.w3.org/1999/xlink" id="body_2" preserveAspectRatio="xMinYMin meet" viewBox="0 0 709 888"><defs><clipPath id="1"><path id="" clip-rule="evenodd" transform="matrix(1 0 0 1 0 0)" d="M0 666L0 0L0 0L532 0L532 0L532 666L532 666L0 666z" /></clipPath><clipPath id="2"><path id="" clip-rule="evenodd" transform="matrix(1 0 0 1 0 0)" d="M99.44 395.52L459.56 395.52L459.56 395.52L459.56 409.92L459.56 409.92L99.44 409.92z" /></clipPath><clipPath id="3"><path id="" clip-rule="evenodd" transform="matrix(1 0 0 1 0 0)" d="M99.31999 400.2L99.31999 399.12L99.31999 399.12L459.56 399.12L459.56 399.12L459.56 400.2z" /></clipPath><clipPath id="4"><path id="" clip-rule="evenodd" transform="matrix(1 0 0 1 0 0)" d="M99.44 476.88L459.56 476.88L459.56 476.88L459.56 491.28L459.56 491.28L99.44 491.28z" /></clipPath><clipPath id="5"><path id="" clip-rule="evenodd" transform="matrix(1 0 0 1 0 0)" d="M99.31999 481.56L99.31999 480.48L99.31999 480.48L459.56 480.48L459.56 480.48L459.56 481.56z" /></clipPath></defs><g transform="matrix(1.333333 0 0 1.333333 0 0)"><g clip-path="url(#1)"><g clip-path="url(#2)"><path id="527" transform="matrix(1 0 0 -1 0 666)" d="M99.44 256.08L459.56 256.08L459.56 270.4795L99.44 270.4795z" stroke="none" fill="#FFFFFF" fill-rule="nonzero" /><path id="528" transform="matrix(1 0 0 -1 0 666)" d="M98.95999 265.92L99.44 265.92L99.44 266.88L98.95999 266.88z" stroke="none" fill="#000000" fill-rule="nonzero" /></g><g clip-path="url(#3)"><path id="529" transform="matrix(1 0 0 -1 0 666)" d="M99.44 265.92L572 265.92L572 266.88L99.44 266.88z" stroke="none" fill="#000000" fill-rule="nonzero" /></g><g clip-path="url(#4)"><path id="797" transform="matrix(1 0 0 -1 0 666)" d="M99.44 174.72L459.56 174.72L459.56 189.1195L99.44 189.1195z" stroke="none" fill="#FFFFFF" fill-rule="nonzero" /><path id="798" transform="matrix(1 0 0 -1 0 666)" d="M98.95999 184.56L99.44 184.56L99.44 185.52L98.95999 185.52z" stroke="none" fill="#000000" fill-rule="nonzero" /></g><g clip-path="url(#5)"><path id="799" transform="matrix(1 0 0 -1 0 666)" d="M99.44 184.56L572 184.56L572 185.52L99.44 185.52z" stroke="none" fill="#000000" fill-rule="nonzero" /></g></g></g></svg>