<svg xmlns="http://www.w3.org/2000/svg" xmlns:xlink="http://www.w3.org/1999/xlink" id="body_3" preserveAspectRatio="xMinYMin meet" viewBox="0 0 709 888"><defs><clipPath id="1"><path id="" clip-rule="evenodd" transform="matrix(1 0 0 1 0 0)" d="M0 666L0 0L0 0L532 0L532 0L532 666L532 666L0 666z" /></clipPath><clipPath id="2"><path id="" clip-rule="evenodd" transform="matrix(1 0 0 1 0 0)" d="M81.43999 187.44L477.56 187.44L477.56 187.44L477.56 532.44L477.56 532.44L81.43999 532.44z" /></clipPath></defs><g transform="matrix(1.333333 0 0 1.333333 0 0)"><g clip-path="url(#1)"><g clip-path="url(#2)"><path id="393" transform="matrix(1 0 0 -1 0 666)" d="M216.56 150.12L341.12 150.12L341.12 195.5995L216.56 195.5995z" stroke="none" fill="#FFFFFF" fill-rule="nonzero" /><path id="394" transform="matrix(1 0 0 -1 0 666)" d="M216.56 195.36L341.36 195.36L341.36 195.84L216.56 195.84z" stroke="none" fill="#000000" fill-rule="nonzero" /><path id="395" transform="matrix(1 0 0 -1 0 666)" d="M340.88 149.88L341.36 149.88L341.36 195.6L340.88 195.6z" stroke="none" fill="#000000" fill-rule="nonzero" /><path id="396" transform="matrix(1 0 0 -1 0 666)" d="M216.32 149.88L341.12 149.88L341.12 150.36L216.32 150.36z" stroke="none" fill="#000000" fill-rule="nonzero" /><path id="397" transform="matrix(1 0 0 -1 0 666)" d="M216.32 150.12L216.8 150.12L216.8 195.84L216.32 195.84z" stroke="none" fill="#000000" fill-rule="nonzero" /><path id="398" transform="matrix(1 0 0 -1 0 666)" d="M115.64 292.68L115.88 292.68L115.88 293.16L115.64 293.16z" stroke="none" fill="#000000" fill-rule="nonzero" /><path id="399" transform="matrix(1 0 0 -1 0 666)" d="M217.16 292.68L217.4 292.68L217.4 293.16L217.16 293.16z" stroke="none" fill="#000000" fill-rule="nonzero" /><path id="400" transform="matrix(1 0 0 -1 0 666)" d="M115.88 292.68L217.16 292.68L217.16 293.16L115.88 293.16z" stroke="none" fill="#000000" fill-rule="nonzero" /><path id="401" transform="matrix(1 0 0 -1 0 666)" d="M114.56 292.68L115.04 292.68L115.04 292.92L114.56 292.92z" stroke="none" fill="#000000" fill-rule="nonzero" /><path id="402" transform="matrix(1 0 0 -1 0 666)" d="M114.56 292.92L114.8 300.24L115.4 307.32L116.48 314.28L117.8 321.24L119.72 327.96L121.88 334.68L124.4 341.16L124.4 341.28L127.4 347.64L130.64 353.88L130.76 353.88L134.36 359.88L138.32 365.76L142.64 371.52L147.2 377.04L152 382.32L157.16 387.36L162.56 392.28L168.2 396.96L174.2 401.28L180.32 405.48L186.8 409.44L186.8 409.56L193.4 413.16L200.24 416.52L207.32 419.64L207.44 419.64L214.64 422.4L222.08 424.92L229.64 427.2L237.44 429L245.36 430.56L253.4 431.88L261.56 432.72L261.56 432.24L253.4 431.4L253.52 431.4L245.48 430.08L237.56 428.52L229.76 426.72L222.2 424.44L214.76 421.92L207.56 419.16L200.48 416.04L193.64 412.68L187.04 409.08L180.56 405.12L174.44 400.92L168.44 396.6L168.56 396.6L162.92 391.92L157.52 387L152.36 381.96L147.56 376.68L143 371.16L143 371.28L138.68 365.52L134.72 359.64L131.12 353.64L127.88 347.4L124.88 341.04L122.36 334.56L120.2 327.84L118.28 321.12L116.96 314.16L115.88 307.2L115.88 307.32L115.28 300.24L115.04 292.92" stroke="none" fill="#000000" fill-rule="nonzero" /><path id="403" transform="matrix(1 0 0 -1 0 666)" d="M261.56 432.72L269.84 433.32L269.84 432.84L261.56 432.24" stroke="none" fill="#000000" fill-rule="nonzero" /><path id="404" transform="matrix(1 0 0 -1 0 666)" d="M278.24 432.96L278.48 432.96L278.48 433.44L278.24 433.44z" stroke="none" fill="#000000" fill-rule="nonzero" /><path id="405" transform="matrix(1 0 0 -1 0 666)" d="M269.84 433.32L269.84 432.84L278.24 432.96L278.24 433.44" stroke="none" fill="#000000" fill-rule="nonzero" /><path id="406" transform="matrix(1 0 0 -1 0 666)" d="M215.96 293.28L215.84 291.84L218.84 291.6L218.96 293.04" stroke="none" fill="#FF00FF" fill-rule="nonzero" /><path id="407" transform="matrix(1 0 0 -1 0 666)" d="M215.96 293.28L216.08 294.72L216.08 294.6L216.08 296.16L216.2 297.6L216.32 298.92L216.68 301.68L216.68 301.8L217.28 304.56L217.28 304.68L218 307.44L218 307.56L218.84 310.2L218.96 310.2L219.92 312.72L220.4 314.04L220.4 314.16L221 315.36L221.6 316.56L222.2 317.76L222.2 317.88L222.92 319.2L223.04 319.32L223.76 320.4L223.76 320.28L224.48 321.48L225.2 322.68L225.2 322.8L226.04 323.88L226.88 325.08L227.72 326.16L228.56 327.24L228.68 327.36L229.64 328.44L229.64 328.56L230.6 329.52L230.6 329.4L231.56 330.48L231.56 330.6L232.52 331.56L232.64 331.56L233.72 332.52L233.6 332.52L234.56 333.48L234.68 333.48L235.76 334.44L235.88 334.56L236.96 335.4L236.84 335.4L238.04 336.36L238.16 336.36L239.24 337.2L240.44 338.04L241.64 338.88L241.76 338.88L244.16 340.32L246.68 341.88L246.8 342L249.44 343.32L252.08 344.52L252.2 344.52L254.96 345.6L254.96 345.72L257.84 346.68L260.72 347.64L260.84 347.64L263.72 348.36L263.84 348.36L264.44 345.36L264.44 345.48L261.56 344.76L261.68 344.76L258.8 343.8L255.92 342.84L256.04 342.84L253.28 341.76L250.64 340.56L250.76 340.68L248.12 339.36L248.24 339.36L245.72 337.8L243.32 336.36L243.32 336.48L242.12 335.64L240.92 334.8L241.04 334.8L239.96 333.96L238.76 333L237.68 332.16L237.8 332.16L236.72 331.2L236.72 331.32L235.76 330.36L235.76 330.24L234.68 329.28L234.68 329.4L233.72 328.44L233.84 328.44L232.88 327.36L232.76 327.36L231.8 326.4L231.92 326.4L230.96 325.32L230.96 325.44L230.12 324.36L229.28 323.28L229.28 323.4L228.44 322.2L228.44 322.08L227.6 321L227.72 321.12L227 319.92L226.28 318.72L225.56 317.64L225.56 317.76L224.84 316.44L224.24 315.24L223.64 314.04L223.04 312.84L223.16 312.96L222.68 311.64L221.72 309.12L221.72 309.24L220.88 306.6L220.88 306.72L220.16 303.96L219.56 301.2L219.68 301.32L219.32 298.56L219.32 298.68L219.2 297.36L219.08 295.92L219.08 296.04L219.08 294.48L218.96 293.04" stroke="none" fill="#FF00FF" fill-rule="nonzero" /><path id="408" transform="matrix(1 0 0 -1 0 666)" d="M263.84 348.36L266.96 348.96L269.96 349.44L270.08 349.44L273.2 349.8L276.32 350.04L276.44 350.04L276.44 347.04L276.56 347.04L273.44 346.8L273.56 346.8L270.44 346.44L267.44 345.96L267.56 345.96L264.44 345.36" stroke="none" fill="#FF00FF" fill-rule="nonzero" /><path id="409" transform="matrix(1 0 0 -1 0 666)" d="M279.68 347.04L281.12 347.04L281.12 350.04L279.68 350.04z" stroke="none" fill="#FF00FF" fill-rule="nonzero" /><path id="410" transform="matrix(1 0 0 -1 0 666)" d="M276.44 347.04L279.68 347.04L279.68 350.04L276.44 350.04z" stroke="none" fill="#FF00FF" fill-rule="nonzero" /><path id="411" transform="matrix(1 0 0 -1 0 666)" d="M176.24 400.2L175.16 401.28L173 399.12L174.08 398.04" stroke="none" fill="#0000FF" fill-rule="nonzero" /><path id="412" transform="matrix(1 0 0 -1 0 666)" d="M238.76 338.28L239.84 337.2L237.68 335.04L236.6 336.12" stroke="none" fill="#0000FF" fill-rule="nonzero" /><path id="413" transform="matrix(1 0 0 -1 0 666)" d="M176.24 400.2L174.08 398.04L236.6 336.12L238.76 338.28" stroke="none" fill="#0000FF" fill-rule="nonzero" /><path id="414" transform="matrix(1 0 0 -1 0 666)" d="M318.32 336.84L317.24 335.76L319.4 333.6L320.48 334.68" stroke="none" fill="#FF0000" fill-rule="nonzero" /><path id="415" transform="matrix(1 0 0 -1 0 666)" d="M379.64 398.88L380.72 399.96L382.88 397.8L381.8 396.72" stroke="none" fill="#FF0000" fill-rule="nonzero" /><path id="416" transform="matrix(1 0 0 -1 0 666)" d="M318.32 336.84L320.48 334.68L381.8 396.72L379.64 398.88" stroke="none" fill="#FF0000" fill-rule="nonzero" /><path id="460" transform="matrix(1 0 0 -1 0 666)" d="M274.28 433.32L274.52 433.32L274.52 433.8L274.28 433.8z" stroke="none" fill="#000000" fill-rule="nonzero" /><path id="461" transform="matrix(1 0 0 -1 0 666)" d="M274.52 433.8L282.92 433.56L291.2 432.96L299.48 432.12L299.6 432.12L307.64 430.92L315.56 429.36L323.24 427.44L330.92 425.28L338.24 422.76L345.56 419.88L352.52 416.76L359.48 413.4L366.08 409.8L366.08 409.68L372.44 405.72L378.68 401.64L384.56 397.2L384.68 397.2L390.32 392.52L395.84 387.72L400.88 382.56L405.8 377.28L410.36 371.76L414.56 366.12L418.52 360.24L422.12 354.12L425.36 348L428.36 341.64L428.36 341.52L430.88 334.92L433.16 328.32L434.96 321.48L436.4 314.64L437.48 307.56L437 307.56L437 307.44L435.92 314.52L434.48 321.36L432.68 328.2L430.4 334.8L427.88 341.4L424.88 347.76L421.64 353.88L421.76 353.88L418.16 360L414.2 365.88L410 371.52L410 371.4L405.44 376.92L400.52 382.2L395.48 387.36L389.96 392.16L384.32 396.84L378.44 401.28L372.2 405.36L365.84 409.32L359.24 412.92L352.28 416.28L345.32 419.4L345.44 419.4L338.12 422.28L330.8 424.8L323.12 426.96L315.44 428.88L307.52 430.44L299.48 431.64L291.2 432.48L282.92 433.08L274.52 433.32" stroke="none" fill="#000000" fill-rule="nonzero" /><path id="462" transform="matrix(1 0 0 -1 0 666)" d="M437.48 307.56L438.08 300.48L437.6 300.48L437 307.56" stroke="none" fill="#000000" fill-rule="nonzero" /><path id="463" transform="matrix(1 0 0 -1 0 666)" d="M437.84 293.04L438.32 293.04L438.32 293.28L437.84 293.28z" stroke="none" fill="#000000" fill-rule="nonzero" /><path id="464" transform="matrix(1 0 0 -1 0 666)" d="M438.08 300.48L437.6 300.48L437.84 293.28L438.32 293.28" stroke="none" fill="#000000" fill-rule="nonzero" /><path id="465" transform="matrix(1 0 0 -1 0 666)" d="M278.96 350.04L277.52 350.04L277.4 347.04L278.84 347.04" stroke="none" fill="#FF00FF" fill-rule="nonzero" /><path id="466" transform="matrix(1 0 0 -1 0 666)" d="M278.96 350.04L282.2 349.92L285.32 349.68L285.44 349.68L288.56 349.32L291.68 348.84L291.8 348.84L294.8 348.24L297.68 347.52L297.8 347.52L300.68 346.68L300.8 346.56L303.68 345.48L306.44 344.4L309.08 343.2L309.2 343.2L311.84 341.88L314.36 340.44L314.48 340.32L316.88 338.76L318.08 337.92L319.28 337.08L319.4 337.08L320.48 336.24L321.68 335.28L322.76 334.44L322.88 334.32L323.96 333.36L325.04 332.4L326 331.44L326.96 330.48L327.08 330.36L328.04 329.28L327.92 329.4L328.88 328.44L329 328.32L329.96 327.24L329.96 327.12L330.8 326.04L331.64 324.96L332.48 323.76L333.32 322.68L333.44 322.56L334.16 321.36L334.16 321.48L334.88 320.4L334.88 320.28L335.6 319.08L336.32 317.88L336.44 317.76L337.04 316.44L336.92 316.44L337.52 315.24L338.12 314.04L338.24 313.92L338.72 312.6L339.68 310.08L340.52 307.44L340.52 307.32L341.24 304.56L341.24 304.44L341.84 301.68L341.96 301.68L338.96 301.2L338.96 301.08L338.36 303.84L337.64 306.6L337.64 306.48L336.8 309.12L336.92 309L335.96 311.52L335.48 312.84L335.48 312.72L334.88 313.92L334.28 315.12L334.28 315.24L333.68 316.56L333.8 316.32L333.08 317.52L332.36 318.72L331.64 319.8L330.92 321L330.92 320.88L330.08 321.96L330.08 322.08L329.24 323.28L329.24 323.16L328.4 324.24L327.56 325.32L327.68 325.2L326.72 326.28L325.76 327.24L324.8 328.32L323.84 329.28L322.88 330.24L323 330.12L321.92 331.08L320.84 332.04L320.96 332.04L319.88 332.88L319.76 332.88L318.56 333.84L318.68 333.84L317.6 334.68L316.4 335.52L315.2 336.36L315.2 336.24L312.8 337.8L312.92 337.8L310.4 339.24L310.52 339.24L307.88 340.56L307.88 340.44L305.24 341.64L305.36 341.64L302.6 342.72L299.72 343.8L299.84 343.8L296.96 344.64L294.08 345.36L294.2 345.24L291.2 345.84L288.08 346.32L288.2 346.32L285.08 346.68L281.96 346.92L282.08 346.92L278.84 347.04" stroke="none" fill="#FF00FF" fill-rule="nonzero" /><path id="467" transform="matrix(1 0 0 -1 0 666)" d="M341.96 301.68L342.2 300.36L342.2 300.24L342.32 298.8L342.44 297.48L342.56 296.04L342.68 294.6L342.68 294.48L339.68 294.48L339.68 294.36L339.56 295.8L339.44 297.24L339.32 298.56L339.2 300L339.2 299.88L338.96 301.2" stroke="none" fill="#FF00FF" fill-rule="nonzero" /><path id="468" transform="matrix(1 0 0 -1 0 666)" d="M339.68 291.6L342.68 291.6L342.68 293.04L339.68 293.04z" stroke="none" fill="#FF00FF" fill-rule="nonzero" /><path id="469" transform="matrix(1 0 0 -1 0 666)" d="M339.68 293.04L342.68 293.04L342.68 294.48L339.68 294.48z" stroke="none" fill="#FF00FF" fill-rule="nonzero" /><path id="509" transform="matrix(1 0 0 -1 0 666)" d="M341.48 292.68L341.72 292.68L341.72 293.16L341.48 293.16z" stroke="none" fill="#000000" fill-rule="nonzero" /><path id="510" transform="matrix(1 0 0 -1 0 666)" d="M437.96 292.68L438.2 292.68L438.2 293.16L437.96 293.16z" stroke="none" fill="#000000" fill-rule="nonzero" /><path id="511" transform="matrix(1 0 0 -1 0 666)" d="M341.72 292.68L437.96 292.68L437.96 293.16L341.72 293.16z" stroke="none" fill="#000000" fill-rule="nonzero" /><path id="523" transform="matrix(1 0 0 -1 0 666)" d="M188.24 402.72L190.88 402.96L191.48 402.84L191.36 402.36L189.68 392.88L189.44 391.2L188.72 392.88L185.12 401.76L185 402.24L185.6 402.36L186.08 402L189.68 393.12L188.72 392.88L188.72 393.12L190.4 402.6L191.36 402.36L190.88 402L188.24 401.76" stroke="none" fill="#000000" fill-rule="nonzero" /><path id="524" transform="matrix(1 0 0 -1 0 666)" d="M185.6 402.36L188.24 402.72L188.24 401.76L185.6 401.4" stroke="none" fill="#000000" fill-rule="nonzero" /><path id="525" transform="matrix(1 0 0 -1 0 666)" d="M188.24 402.24L190.88 402.48L190.88 402.48L189.2 393L189.2 393L185.6 401.88" stroke="none" fill="#000000" fill-rule="evenodd" /><path id="526" transform="matrix(1 0 0 -1 0 666)" d="M158.48 421.92L158.36 421.8L158.6 421.44L158.72 421.56" stroke="none" fill="#000000" fill-rule="nonzero" /><path id="527" transform="matrix(1 0 0 -1 0 666)" d="M158.48 421.92L160.52 423.36L160.52 423.48L162.68 424.56L162.8 424.56L165.08 425.16L167.36 425.4L169.76 425.28L169.88 425.28L172.16 424.8L174.44 423.96L176.72 422.76L176.72 422.64L178.88 421.08L179 421.08L180.92 419.28L182.84 417.24L184.4 414.84L185.84 412.2L187.04 409.32L187.04 409.2L186.56 409.08L185.36 411.96L183.92 414.6L184.04 414.6L182.48 417L182.48 416.88L180.56 418.92L178.64 420.72L176.48 422.28L174.2 423.48L174.32 423.48L172.04 424.32L169.76 424.8L167.36 424.92L165.08 424.68L165.2 424.68L162.92 424.08L160.76 423L158.72 421.56" stroke="none" fill="#000000" fill-rule="nonzero" /><path id="528" transform="matrix(1 0 0 -1 0 666)" d="M187.04 409.2L187.88 406.08L187.4 405.96L186.56 409.08" stroke="none" fill="#000000" fill-rule="nonzero" /><path id="529" transform="matrix(1 0 0 -1 0 666)" d="M188.48 402.72L188.48 402.48L188 402.36L188 402.6" stroke="none" fill="#000000" fill-rule="nonzero" /><path id="530" transform="matrix(1 0 0 -1 0 666)" d="M187.88 406.08L187.4 405.96L188 402.6L188.48 402.72" stroke="none" fill="#000000" fill-rule="nonzero" /><path id="542" transform="matrix(1 0 0 -1 0 666)" d="M352.16 301.8L350.84 299.4L350.36 299.04L350.12 299.28L343.4 306.12L342.2 307.32L343.88 306.96L353.12 304.8L353.72 304.56L353.36 304.08L352.88 303.84L343.64 306L343.88 306.96L344.12 306.84L350.84 300L350.12 299.28L350.12 299.88L351.44 302.28" stroke="none" fill="#000000" fill-rule="nonzero" /><path id="543" transform="matrix(1 0 0 -1 0 666)" d="M353.36 304.08L352.16 301.8L351.44 302.28L352.64 304.56" stroke="none" fill="#000000" fill-rule="nonzero" /><path id="544" transform="matrix(1 0 0 -1 0 666)" d="M351.8 302.04L350.48 299.64L350.48 299.64L343.76 306.48L343.76 306.48L353 304.32" stroke="none" fill="#000000" fill-rule="evenodd" /><path id="545" transform="matrix(1 0 0 -1 0 666)" d="M352.28 301.92L352.16 302.04L351.92 301.68L352.04 301.56" stroke="none" fill="#000000" fill-rule="nonzero" /><path id="546" transform="matrix(1 0 0 -1 0 666)" d="M352.28 301.92L356 299.52L359.48 296.76L359.6 296.76L362.84 293.76L365.84 290.4L368.6 286.8L371.12 283.08L370.76 282.84L368.24 286.56L365.48 290.16L365.48 290.04L362.48 293.4L359.24 296.4L355.76 299.16L352.04 301.56" stroke="none" fill="#000000" fill-rule="nonzero" /><path id="547" transform="matrix(1 0 0 -1 0 666)" d="M371.12 283.08L373.4 279.24L372.92 279L373.04 279L370.76 282.84" stroke="none" fill="#000000" fill-rule="nonzero" /><path id="548" transform="matrix(1 0 0 -1 0 666)" d="M375.44 275.28L375.56 275.04L375.08 274.8L374.96 275.04" stroke="none" fill="#000000" fill-rule="nonzero" /><path id="549" transform="matrix(1 0 0 -1 0 666)" d="M373.4 279.24L372.92 279L374.96 275.04L375.44 275.28" stroke="none" fill="#000000" fill-rule="nonzero" /><path id="553" transform="matrix(1 0 0 -1 0 666)" d="M203.72 303.84L203.12 306.48L203.24 307.08L203.6 307.08L213.08 306.48L214.88 306.36L213.32 305.52L205.04 300.96L204.44 300.72L204.32 301.32L204.56 301.92L212.84 306.48L213.32 305.52L213.08 305.52L203.6 306.12L203.6 307.08L204.08 306.72L204.68 304.08" stroke="none" fill="#000000" fill-rule="nonzero" /><path id="554" transform="matrix(1 0 0 -1 0 666)" d="M204.32 301.32L203.72 303.84L204.68 304.08L205.28 301.56" stroke="none" fill="#000000" fill-rule="nonzero" /><path id="555" transform="matrix(1 0 0 -1 0 666)" d="M204.2 303.96L203.6 306.6L203.6 306.6L213.08 306L213.08 306L204.8 301.44" stroke="none" fill="#000000" fill-rule="evenodd" /><path id="556" transform="matrix(1 0 0 -1 0 666)" d="M162.68 278.76L162.56 278.52L163.04 278.28L163.16 278.52" stroke="none" fill="#000000" fill-rule="nonzero" /><path id="557" transform="matrix(1 0 0 -1 0 666)" d="M162.68 278.76L163.64 280.92L163.76 280.92L165.08 283.08L166.64 285.12L168.44 287.04L170.48 288.96L172.64 290.76L177.68 294.12L177.68 294.24L183.44 297.24L189.68 300L189.8 300L189.92 299.52L183.68 296.76L177.92 293.76L172.88 290.4L173 290.4L170.84 288.6L168.8 286.68L167 284.76L167 284.88L165.44 282.84L164.12 280.68L163.16 278.52" stroke="none" fill="#000000" fill-rule="nonzero" /><path id="558" transform="matrix(1 0 0 -1 0 666)" d="M189.8 300L196.64 302.28L196.76 301.8L189.92 299.52" stroke="none" fill="#000000" fill-rule="nonzero" /><path id="559" transform="matrix(1 0 0 -1 0 666)" d="M203.72 304.08L203.96 304.08L204.08 303.6L203.84 303.6" stroke="none" fill="#000000" fill-rule="nonzero" /><path id="560" transform="matrix(1 0 0 -1 0 666)" d="M196.64 302.28L196.76 301.8L203.84 303.6L203.72 304.08" stroke="none" fill="#000000" fill-rule="nonzero" /><path id="589" transform="matrix(1 0 0 -1 0 666)" d="M291.92 217.56L292.4 217.56L292.4 217.8L291.92 217.8z" stroke="none" fill="#000000" fill-rule="nonzero" /><path id="590" transform="matrix(1 0 0 -1 0 666)" d="M291.92 180.12L292.4 180.12L292.4 180.36L291.92 180.36z" stroke="none" fill="#000000" fill-rule="nonzero" /><path id="591" transform="matrix(1 0 0 -1 0 666)" d="M291.92 180.36L292.4 180.36L292.4 217.56L291.92 217.56z" stroke="none" fill="#000000" fill-rule="nonzero" /><path id="592" transform="matrix(1 0 0 -1 0 666)" d="M421.52 181.32L421.52 184.56L422.12 184.44L431.36 181.8L433.04 181.32L431.36 180.84L422.12 178.2L421.52 178.08L421.52 178.68L421.88 179.16L431.12 181.8L431.36 180.84L431.12 180.84L421.88 183.48L422.12 184.44L422.48 183.96L422.48 181.32" stroke="none" fill="#000000" fill-rule="nonzero" /><path id="593" transform="matrix(1 0 0 -1 0 666)" d="M421.52 178.68L421.52 181.32L422.48 181.32L422.48 178.68" stroke="none" fill="#000000" fill-rule="nonzero" /><path id="594" transform="matrix(1 0 0 -1 0 666)" d="M422 181.32L422 183.96L422 183.96L431.24 181.32L431.24 181.32L422 178.68" stroke="none" fill="#000000" fill-rule="evenodd" /><path id="595" transform="matrix(1 0 0 -1 0 666)" d="M292.52 181.08L292.76 181.08L292.76 181.56L292.52 181.56z" stroke="none" fill="#000000" fill-rule="nonzero" /><path id="596" transform="matrix(1 0 0 -1 0 666)" d="M421.52 181.08L421.76 181.08L421.76 181.56L421.52 181.56z" stroke="none" fill="#000000" fill-rule="nonzero" /><path id="597" transform="matrix(1 0 0 -1 0 666)" d="M292.76 181.08L421.52 181.08L421.52 181.56L292.76 181.56z" stroke="none" fill="#000000" fill-rule="nonzero" /><path id="598" transform="matrix(1 0 0 -1 0 666)" d="M265.16 206.4L261.92 206.4L262.04 207L264.68 216.24L265.16 217.92L265.64 216.24L268.28 207L268.4 206.4L267.8 206.4L267.32 206.76L264.68 216L265.64 216.24L265.64 216L263 206.76L262.04 207L262.52 207.36L265.16 207.36" stroke="none" fill="#000000" fill-rule="nonzero" /><path id="599" transform="matrix(1 0 0 -1 0 666)" d="M267.8 206.4L265.16 206.4L265.16 207.36L267.8 207.36" stroke="none" fill="#000000" fill-rule="nonzero" /><path id="600" transform="matrix(1 0 0 -1 0 666)" d="M265.16 206.88L262.52 206.88L262.52 206.88L265.16 216.12L265.16 216.12L267.8 206.88" stroke="none" fill="#000000" fill-rule="evenodd" /><path id="601" transform="matrix(1 0 0 -1 0 666)" d="M264.92 206.4L265.4 206.4L265.4 206.64L264.92 206.64z" stroke="none" fill="#000000" fill-rule="nonzero" /><path id="602" transform="matrix(1 0 0 -1 0 666)" d="M264.92 180.12L265.4 180.12L265.4 180.36L264.92 180.36z" stroke="none" fill="#000000" fill-rule="nonzero" /><path id="603" transform="matrix(1 0 0 -1 0 666)" d="M264.92 180.36L265.4 180.36L265.4 206.4L264.92 206.4z" stroke="none" fill="#000000" fill-rule="nonzero" /><path id="604" transform="matrix(1 0 0 -1 0 666)" d="M121.52 181.08L121.76 181.08L121.76 181.56L121.52 181.56z" stroke="none" fill="#000000" fill-rule="nonzero" /><path id="605" transform="matrix(1 0 0 -1 0 666)" d="M265.76 181.08L266 181.08L266 181.56L265.76 181.56z" stroke="none" fill="#000000" fill-rule="nonzero" /><path id="606" transform="matrix(1 0 0 -1 0 666)" d="M121.76 181.08L265.76 181.08L265.76 181.56L121.76 181.56z" stroke="none" fill="#000000" fill-rule="nonzero" /><path id="695" transform="matrix(1 0 0 -1 0 666)" d="M307.04 357.12L309.56 356.16L310.04 355.68L309.8 355.44L303.92 347.88L302.96 346.44L303.08 348.24L304.04 357.72L304.16 358.32L304.64 358.08L305 357.48L304.04 348L303.08 348.24L303.2 348.36L309.08 355.92L309.8 355.44L309.32 355.2L306.8 356.16" stroke="none" fill="#000000" fill-rule="nonzero" /><path id="696" transform="matrix(1 0 0 -1 0 666)" d="M304.64 358.08L307.04 357.12L306.8 356.16L304.4 357.12" stroke="none" fill="#000000" fill-rule="nonzero" /><path id="697" transform="matrix(1 0 0 -1 0 666)" d="M306.92 356.64L309.44 355.68L309.44 355.68L303.56 348.12L303.56 348.12L304.52 357.6" stroke="none" fill="#000000" fill-rule="evenodd" /><path id="698" transform="matrix(1 0 0 -1 0 666)" d="M386.72 440.4L386.96 440.4L386.84 440.88L386.6 440.88" stroke="none" fill="#000000" fill-rule="nonzero" /><path id="699" transform="matrix(1 0 0 -1 0 666)" d="M386.72 440.4L381.8 439.56L377.24 438.6L372.8 437.4L368.6 435.96L364.52 434.4L360.68 432.72L357.08 430.8L353.72 428.88L350.36 426.72L347.36 424.32L344.36 421.92L344.48 421.92L341.72 419.4L336.56 414L336.56 414.12L332 408.36L327.92 402.36L324.2 396L320.84 389.64L317.72 383.04L317.24 383.28L320.36 389.88L323.72 396.24L323.84 396.24L327.56 402.6L331.64 408.6L336.2 414.36L341.36 419.76L344.12 422.28L347.12 424.68L350.12 427.08L353.48 429.24L356.84 431.16L356.84 431.28L360.44 433.2L364.28 434.88L364.4 434.88L368.48 436.44L372.68 437.88L377.12 439.08L381.68 440.04L386.6 440.88" stroke="none" fill="#000000" fill-rule="nonzero" /><path id="700" transform="matrix(1 0 0 -1 0 666)" d="M317.72 383.04L312.32 369.84L311.84 369.96L311.84 370.08L317.24 383.28" stroke="none" fill="#000000" fill-rule="nonzero" /><path id="701" transform="matrix(1 0 0 -1 0 666)" d="M307.4 357L307.4 356.76L306.92 356.88L306.92 357.12" stroke="none" fill="#000000" fill-rule="nonzero" /><path id="702" transform="matrix(1 0 0 -1 0 666)" d="M312.32 369.84L311.84 369.96L306.92 357.12L307.4 357" stroke="none" fill="#000000" fill-rule="nonzero" /><path id="703" transform="matrix(1 0 0 -1 0 666)" d="M381.68 378.96L381.68 376.32L381.44 375.72L381.08 375.84L371.84 378.24L370.16 378.72L371.84 379.2L380.96 382.08L381.56 382.2L381.56 381.6L381.2 381.12L372.08 378.24L371.84 379.2L372.08 379.2L381.32 376.8L381.08 375.84L380.72 376.32L380.72 378.96" stroke="none" fill="#000000" fill-rule="nonzero" /><path id="704" transform="matrix(1 0 0 -1 0 666)" d="M381.56 381.6L381.68 378.96L380.72 378.96L380.6 381.6" stroke="none" fill="#000000" fill-rule="nonzero" /><path id="705" transform="matrix(1 0 0 -1 0 666)" d="M381.2 378.96L381.2 376.32L381.2 376.32L371.96 378.72L371.96 378.72L381.08 381.6" stroke="none" fill="#000000" fill-rule="evenodd" /><path id="706" transform="matrix(1 0 0 -1 0 666)" d="M415.16 399.6L415.16 399.84L414.68 399.96L414.68 399.72" stroke="none" fill="#000000" fill-rule="nonzero" /><path id="707" transform="matrix(1 0 0 -1 0 666)" d="M415.16 399.6L414.32 396.96L413.24 394.44L411.92 392.16L410.36 390.12L410.36 390L408.68 388.08L406.76 386.4L406.64 386.4L404.6 384.96L402.32 383.64L397.64 381.48L392.48 380.04L392.36 380.52L397.52 381.96L397.4 381.96L402.08 384.12L402.08 384L404.36 385.32L406.4 386.76L408.32 388.44L410 390.36L411.56 392.4L412.88 394.68L412.76 394.68L413.84 397.2L413.84 397.08L414.68 399.72" stroke="none" fill="#000000" fill-rule="nonzero" /><path id="708" transform="matrix(1 0 0 -1 0 666)" d="M392.48 380.04L387.2 379.2L387.08 379.2L387.08 379.68L392.36 380.52" stroke="none" fill="#000000" fill-rule="nonzero" /><path id="709" transform="matrix(1 0 0 -1 0 666)" d="M381.44 378.72L381.68 378.72L381.68 379.2L381.44 379.2z" stroke="none" fill="#000000" fill-rule="nonzero" /><path id="710" transform="matrix(1 0 0 -1 0 666)" d="M387.08 379.2L387.08 379.68L381.68 379.2L381.68 378.72" stroke="none" fill="#000000" fill-rule="nonzero" /><path id="753" transform="matrix(1 0 0 -1 0 666)" d="M217.04 293.28L217.52 293.28L217.52 293.52L217.04 293.52z" stroke="none" fill="#000000" fill-rule="nonzero" /><path id="754" transform="matrix(1 0 0 -1 0 666)" d="M217.04 218.04L217.52 218.04L217.52 218.28L217.04 218.28z" stroke="none" fill="#000000" fill-rule="nonzero" /><path id="755" transform="matrix(1 0 0 -1 0 666)" d="M217.04 218.28L217.52 218.28L217.52 293.28L217.04 293.28z" stroke="none" fill="#000000" fill-rule="nonzero" /><path id="756" transform="matrix(1 0 0 -1 0 666)" d="M217.04 218.76L217.28 218.76L217.28 219.24L217.04 219.24z" stroke="none" fill="#000000" fill-rule="nonzero" /><path id="757" transform="matrix(1 0 0 -1 0 666)" d="M341.72 218.76L341.96 218.76L341.96 219.24L341.72 219.24z" stroke="none" fill="#000000" fill-rule="nonzero" /><path id="758" transform="matrix(1 0 0 -1 0 666)" d="M217.28 218.76L341.72 218.76L341.72 219.24L217.28 219.24z" stroke="none" fill="#000000" fill-rule="nonzero" /><path id="759" transform="matrix(1 0 0 -1 0 666)" d="M340.76 294L341.24 294L341.24 294.24L340.76 294.24z" stroke="none" fill="#000000" fill-rule="nonzero" /><path id="760" transform="matrix(1 0 0 -1 0 666)" d="M340.76 218.76L341.24 218.76L341.24 219L340.76 219z" stroke="none" fill="#000000" fill-rule="nonzero" /><path id="761" transform="matrix(1 0 0 -1 0 666)" d="M340.76 219L341.24 219L341.24 294L340.76 294z" stroke="none" fill="#000000" fill-rule="nonzero" /><path id="762" transform="matrix(1 0 0 -1 0 666)" d="M217.04 293.04L217.28 293.04L217.28 293.52L217.04 293.52z" stroke="none" fill="#000000" fill-rule="nonzero" /><path id="763" transform="matrix(1 0 0 -1 0 666)" d="M221 293.04L221.24 293.04L221.24 293.52L221 293.52z" stroke="none" fill="#000000" fill-rule="nonzero" /><path id="764" transform="matrix(1 0 0 -1 0 666)" d="M217.28 293.04L221 293.04L221 293.52L217.28 293.52z" stroke="none" fill="#000000" fill-rule="nonzero" /><path id="765" transform="matrix(1 0 0 -1 0 666)" d="M227.12 293.04L227.36 293.04L227.36 293.04L227.36 293.52L227.36 293.52L227.12 293.52z" stroke="none" fill="#000000" fill-rule="evenodd" /><path id="766" transform="matrix(1 0 0 -1 0 666)" d="M234.68 293.04L234.92 293.04L234.92 293.04L234.92 293.52L234.92 293.52L234.68 293.52z" stroke="none" fill="#000000" fill-rule="evenodd" /><path id="767" transform="matrix(1 0 0 -1 0 666)" d="M227.36 293.04L234.68 293.04L234.68 293.04L234.68 293.52L234.68 293.52L227.36 293.52z" stroke="none" fill="#000000" fill-rule="evenodd" /><path id="768" transform="matrix(1 0 0 -1 0 666)" d="M240.92 293.04L241.16 293.04L241.16 293.04L241.16 293.52L241.16 293.52L240.92 293.52z" stroke="none" fill="#000000" fill-rule="evenodd" /><path id="769" transform="matrix(1 0 0 -1 0 666)" d="M248.48 293.04L248.72 293.04L248.72 293.04L248.72 293.52L248.72 293.52L248.48 293.52z" stroke="none" fill="#000000" fill-rule="evenodd" /><path id="770" transform="matrix(1 0 0 -1 0 666)" d="M241.16 293.04L248.48 293.04L248.48 293.04L248.48 293.52L248.48 293.52L241.16 293.52z" stroke="none" fill="#000000" fill-rule="evenodd" /><path id="771" transform="matrix(1 0 0 -1 0 666)" d="M254.6 293.04L254.84 293.04L254.84 293.04L254.84 293.52L254.84 293.52L254.6 293.52z" stroke="none" fill="#000000" fill-rule="evenodd" /><path id="772" transform="matrix(1 0 0 -1 0 666)" d="M262.16 293.04L262.4 293.04L262.4 293.04L262.4 293.52L262.4 293.52L262.16 293.52z" stroke="none" fill="#000000" fill-rule="evenodd" /><path id="773" transform="matrix(1 0 0 -1 0 666)" d="M254.84 293.04L262.16 293.04L262.16 293.04L262.16 293.52L262.16 293.52L254.84 293.52z" stroke="none" fill="#000000" fill-rule="evenodd" /><path id="774" transform="matrix(1 0 0 -1 0 666)" d="M268.28 293.04L268.52 293.04L268.52 293.04L268.52 293.52L268.52 293.52L268.28 293.52z" stroke="none" fill="#000000" fill-rule="evenodd" /><path id="775" transform="matrix(1 0 0 -1 0 666)" d="M275.96 293.04L276.2 293.04L276.2 293.04L276.2 293.52L276.2 293.52L275.96 293.52z" stroke="none" fill="#000000" fill-rule="evenodd" /><path id="776" transform="matrix(1 0 0 -1 0 666)" d="M268.52 293.04L275.96 293.04L275.96 293.04L275.96 293.52L275.96 293.52L268.52 293.52z" stroke="none" fill="#000000" fill-rule="evenodd" /><path id="777" transform="matrix(1 0 0 -1 0 666)" d="M282.08 293.04L282.32 293.04L282.32 293.04L282.32 293.52L282.32 293.52L282.08 293.52z" stroke="none" fill="#000000" fill-rule="evenodd" /><path id="778" transform="matrix(1 0 0 -1 0 666)" d="M289.64 293.04L289.88 293.04L289.88 293.04L289.88 293.52L289.88 293.52L289.64 293.52z" stroke="none" fill="#000000" fill-rule="evenodd" /><path id="779" transform="matrix(1 0 0 -1 0 666)" d="M282.32 293.04L289.64 293.04L289.64 293.04L289.64 293.52L289.64 293.52L282.32 293.52z" stroke="none" fill="#000000" fill-rule="evenodd" /><path id="780" transform="matrix(1 0 0 -1 0 666)" d="M295.76 293.04L296 293.04L296 293.04L296 293.52L296 293.52L295.76 293.52z" stroke="none" fill="#000000" fill-rule="evenodd" /><path id="781" transform="matrix(1 0 0 -1 0 666)" d="M303.44 293.04L303.68 293.04L303.68 293.04L303.68 293.52L303.68 293.52L303.44 293.52z" stroke="none" fill="#000000" fill-rule="evenodd" /><path id="782" transform="matrix(1 0 0 -1 0 666)" d="M296 293.04L303.44 293.04L303.44 293.04L303.44 293.52L303.44 293.52L296 293.52z" stroke="none" fill="#000000" fill-rule="evenodd" /><path id="783" transform="matrix(1 0 0 -1 0 666)" d="M309.56 293.04L309.8 293.04L309.8 293.04L309.8 293.52L309.8 293.52L309.56 293.52z" stroke="none" fill="#000000" fill-rule="evenodd" /><path id="784" transform="matrix(1 0 0 -1 0 666)" d="M317.12 293.04L317.36 293.04L317.36 293.04L317.36 293.52L317.36 293.52L317.12 293.52z" stroke="none" fill="#000000" fill-rule="evenodd" /><path id="785" transform="matrix(1 0 0 -1 0 666)" d="M309.8 293.04L317.12 293.04L317.12 293.04L317.12 293.52L317.12 293.52L309.8 293.52z" stroke="none" fill="#000000" fill-rule="evenodd" /><path id="786" transform="matrix(1 0 0 -1 0 666)" d="M323.24 293.04L323.48 293.04L323.48 293.04L323.48 293.52L323.48 293.52L323.24 293.52z" stroke="none" fill="#000000" fill-rule="evenodd" /><path id="787" transform="matrix(1 0 0 -1 0 666)" d="M330.92 293.04L331.16 293.04L331.16 293.04L331.16 293.52L331.16 293.52L330.92 293.52z" stroke="none" fill="#000000" fill-rule="evenodd" /><path id="788" transform="matrix(1 0 0 -1 0 666)" d="M323.48 293.04L330.92 293.04L330.92 293.04L330.92 293.52L330.92 293.52L323.48 293.52z" stroke="none" fill="#000000" fill-rule="evenodd" /><path id="789" transform="matrix(1 0 0 -1 0 666)" d="M337.04 293.04L337.28 293.04L337.28 293.52L337.04 293.52z" stroke="none" fill="#000000" fill-rule="nonzero" /><path id="790" transform="matrix(1 0 0 -1 0 666)" d="M341 293.04L341.24 293.04L341.24 293.52L341 293.52z" stroke="none" fill="#000000" fill-rule="nonzero" /><path id="791" transform="matrix(1 0 0 -1 0 666)" d="M337.28 293.04L341 293.04L341 293.52L337.28 293.52z" stroke="none" fill="#000000" fill-rule="nonzero" /></g></g></g></svg>