<svg xmlns="http://www.w3.org/2000/svg" xmlns:xlink="http://www.w3.org/1999/xlink" id="body_4" preserveAspectRatio="xMinYMin meet" viewBox="0 0 709 888"><defs><clipPath id="1"><path id="" clip-rule="evenodd" transform="matrix(1 0 0 1 0 0)" d="M0 666L0 0L0 0L532 0L532 0L532 666L532 666L0 666z" /></clipPath><clipPath id="2"><path id="" clip-rule="evenodd" transform="matrix(1 0 0 1 0 0)" d="M99.44 376.56L459.56 376.56L459.56 376.56L459.56 391.56L459.56 391.56L99.44 391.56z" /></clipPath></defs><g transform="matrix(1.333333 0 0 1.333333 0 0)"><g clip-path="url(#1)"><g clip-path="url(#2)"><path id="955" transform="matrix(1 0 0 -1 0 666)" d="M108.2 287.28L108.44 287.28L108.44 287.76L108.2 287.76z" stroke="none" fill="#000000" fill-rule="nonzero" /><path id="956" transform="matrix(1 0 0 -1 0 666)" d="M252.44 287.28L252.68 287.28L252.68 287.76L252.44 287.76z" stroke="none" fill="#000000" fill-rule="nonzero" /><path id="957" transform="matrix(1 0 0 -1 0 666)" d="M108.44 287.28L252.44 287.28L252.44 287.76L108.44 287.76z" stroke="none" fill="#000000" fill-rule="nonzero" /></g></g></g></svg>