<svg xmlns="http://www.w3.org/2000/svg" xmlns:xlink="http://www.w3.org/1999/xlink" id="body_1" preserveAspectRatio="xMinYMin meet" viewBox="0 0 709 888"><defs><clipPath id="1"><path id="" clip-rule="evenodd" transform="matrix(1 0 0 1 0 0)" d="M0 666L0 0L0 0L532 0L532 0L532 666L532 666L0 666z" /></clipPath><clipPath id="2"><path id="" clip-rule="evenodd" transform="matrix(1 0 0 1 0 0)" d="M99.44 64.44L193.28 64.44L193.28 64.44L193.28 105L193.28 105L99.44 105z" /></clipPath></defs><g transform="matrix(1.333333 0 0 1.333333 0 0)"><g clip-path="url(#1)"><g clip-path="url(#2)"><path id="301" transform="matrix(1 0 0 -1 0 666)" d="M99.44 561L193.2795 561L193.2795 601.5595L99.44 601.5595z" stroke="none" fill="#FFFFFF" fill-rule="nonzero" /><g transform="matrix(0.75072 0 0 0.7511111 99.43999 64.44122)"><g transform="matrix(1 0 0 1 0 0)"><image x="0" y="0" xlink:href="img_01.png" width="125" height="54" /></g></g></g><path id="303" transform="matrix(1 0 0 -1 0 666)" d="M99.44 193.44L441.56 193.44L441.56 220.4395L99.44 220.4395z" stroke="none" fill="#FFFFFF" fill-rule="nonzero" /></g></g></svg>