<svg xmlns="http://www.w3.org/2000/svg" xmlns:xlink="http://www.w3.org/1999/xlink" id="body_8" preserveAspectRatio="xMinYMin meet" viewBox="0 0 709 888"><defs><clipPath id="1"><path id="" clip-rule="evenodd" transform="matrix(1 0 0 1 0 0)" d="M0 666L0 0L0 0L532 0L532 0L532 666L532 666L0 666z" /></clipPath><clipPath id="2"><path id="" clip-rule="evenodd" transform="matrix(1 0 0 1 0 0)" d="M47.71951 75.48004L511.28 75.48004L511.28 75.48004L511.28 579.48L511.28 579.48L47.71951 579.48z" /></clipPath></defs><g transform="matrix(1.333333 0 0 1.333333 0 0)"><g clip-path="url(#1)"><g clip-path="url(#2)"><path id="49" transform="matrix(1 0 0 -1 0 666)" d="M61.87952 522.84L61.87952 518.88" stroke="#000000" stroke-width="1" fill="none" /><path id="50" transform="matrix(1 0 0 -1 0 666)" d="M61.87952 512.88L61.87952 505.08" stroke="#000000" stroke-width="1" fill="none" /><path id="51" transform="matrix(1 0 0 -1 0 666)" d="M61.87952 498.96L61.87952 491.16" stroke="#000000" stroke-width="1" fill="none" /><path id="52" transform="matrix(1 0 0 -1 0 666)" d="M61.87952 485.04L61.87952 477.24" stroke="#000000" stroke-width="1" fill="none" /><path id="53" transform="matrix(1 0 0 -1 0 666)" d="M61.87952 471.12L61.87952 463.32" stroke="#000000" stroke-width="1" fill="none" /><path id="54" transform="matrix(1 0 0 -1 0 666)" d="M61.87952 457.32L61.87952 449.4" stroke="#000000" stroke-width="1" fill="none" /><path id="55" transform="matrix(1 0 0 -1 0 666)" d="M61.87952 443.4L61.87952 435.48" stroke="#000000" stroke-width="1" fill="none" /><path id="56" transform="matrix(1 0 0 -1 0 666)" d="M61.87952 429.48L61.87952 421.68" stroke="#000000" stroke-width="1" fill="none" /><path id="57" transform="matrix(1 0 0 -1 0 666)" d="M61.87952 415.56L61.87952 407.76" stroke="#000000" stroke-width="1" fill="none" /><path id="58" transform="matrix(1 0 0 -1 0 666)" d="M61.87952 401.64L61.87952 393.84" stroke="#000000" stroke-width="1" fill="none" /><path id="59" transform="matrix(1 0 0 -1 0 666)" d="M61.87952 387.72L61.87952 379.92" stroke="#000000" stroke-width="1" fill="none" /><path id="60" transform="matrix(1 0 0 -1 0 666)" d="M61.87952 373.92L61.87952 366" stroke="#000000" stroke-width="1" fill="none" /><path id="61" transform="matrix(1 0 0 -1 0 666)" d="M61.87952 360L61.87952 352.08" stroke="#000000" stroke-width="1" fill="none" /><path id="62" transform="matrix(1 0 0 -1 0 666)" d="M61.87952 346.08L61.87952 338.16" stroke="#000000" stroke-width="1" fill="none" /><path id="63" transform="matrix(1 0 0 -1 0 666)" d="M61.87952 332.16L61.87952 324.36" stroke="#000000" stroke-width="1" fill="none" /><path id="64" transform="matrix(1 0 0 -1 0 666)" d="M61.87952 318.24L61.87952 310.44" stroke="#000000" stroke-width="1" fill="none" /><path id="65" transform="matrix(1 0 0 -1 0 666)" d="M61.87952 304.32L61.87952 296.52" stroke="#000000" stroke-width="1" fill="none" /><path id="66" transform="matrix(1 0 0 -1 0 666)" d="M61.87952 290.4L61.87952 282.6" stroke="#000000" stroke-width="1" fill="none" /><path id="67" transform="matrix(1 0 0 -1 0 666)" d="M61.87952 276.6L61.87952 268.68" stroke="#000000" stroke-width="1" fill="none" /><path id="68" transform="matrix(1 0 0 -1 0 666)" d="M61.87952 262.68L61.87952 254.76" stroke="#000000" stroke-width="1" fill="none" /><path id="69" transform="matrix(1 0 0 -1 0 666)" d="M61.87952 248.76L61.87952 240.96" stroke="#000000" stroke-width="1" fill="none" /><path id="70" transform="matrix(1 0 0 -1 0 666)" d="M61.87952 234.84L61.87952 227.04" stroke="#000000" stroke-width="1" fill="none" /><path id="71" transform="matrix(1 0 0 -1 0 666)" d="M61.87952 220.92L61.87952 213.12" stroke="#000000" stroke-width="1" fill="none" /><path id="72" transform="matrix(1 0 0 -1 0 666)" d="M61.87952 207L61.87952 199.2" stroke="#000000" stroke-width="1" fill="none" /><path id="73" transform="matrix(1 0 0 -1 0 666)" d="M61.87952 193.2L61.87952 185.28" stroke="#000000" stroke-width="1" fill="none" /><path id="74" transform="matrix(1 0 0 -1 0 666)" d="M61.87952 179.28L61.87952 171.36" stroke="#000000" stroke-width="1" fill="none" /><path id="75" transform="matrix(1 0 0 -1 0 666)" d="M61.87952 165.36L61.87952 157.44" stroke="#000000" stroke-width="1" fill="none" /><path id="76" transform="matrix(1 0 0 -1 0 666)" d="M61.87952 151.44L61.87952 143.64" stroke="#000000" stroke-width="1" fill="none" /><path id="77" transform="matrix(1 0 0 -1 0 666)" d="M61.87952 137.52L61.87952 129.72" stroke="#000000" stroke-width="1" fill="none" /><path id="78" transform="matrix(1 0 0 -1 0 666)" d="M61.87952 123.6L61.87952 115.8" stroke="#000000" stroke-width="1" fill="none" /><path id="79" transform="matrix(1 0 0 -1 0 666)" d="M61.87952 109.68L61.87952 101.88" stroke="#000000" stroke-width="1" fill="none" /><path id="80" transform="matrix(1 0 0 -1 0 666)" d="M61.87952 95.87999L61.87952 91.92" stroke="#000000" stroke-width="1" fill="none" /><path id="81" transform="matrix(1 0 0 -1 0 666)" d="M130.28 525L130.28 521.04" stroke="#000000" stroke-width="1" fill="none" /><path id="82" transform="matrix(1 0 0 -1 0 666)" d="M130.28 515.04L130.28 507.24" stroke="#000000" stroke-width="1" fill="none" /><path id="83" transform="matrix(1 0 0 -1 0 666)" d="M130.28 501.12L130.28 493.32" stroke="#000000" stroke-width="1" fill="none" /><path id="84" transform="matrix(1 0 0 -1 0 666)" d="M130.28 487.2L130.28 479.4" stroke="#000000" stroke-width="1" fill="none" /><path id="85" transform="matrix(1 0 0 -1 0 666)" d="M130.28 473.28L130.28 465.48" stroke="#000000" stroke-width="1" fill="none" /><path id="86" transform="matrix(1 0 0 -1 0 666)" d="M130.28 459.48L130.28 451.56" stroke="#000000" stroke-width="1" fill="none" /><path id="87" transform="matrix(1 0 0 -1 0 666)" d="M130.28 445.56L130.28 437.64" stroke="#000000" stroke-width="1" fill="none" /><path id="88" transform="matrix(1 0 0 -1 0 666)" d="M130.28 431.64L130.28 423.84" stroke="#000000" stroke-width="1" fill="none" /><path id="89" transform="matrix(1 0 0 -1 0 666)" d="M130.28 417.72L130.28 409.92" stroke="#000000" stroke-width="1" fill="none" /><path id="90" transform="matrix(1 0 0 -1 0 666)" d="M130.28 403.8L130.28 396" stroke="#000000" stroke-width="1" fill="none" /><path id="91" transform="matrix(1 0 0 -1 0 666)" d="M130.28 389.88L130.28 382.08" stroke="#000000" stroke-width="1" fill="none" /><path id="92" transform="matrix(1 0 0 -1 0 666)" d="M130.28 376.08L130.28 368.16" stroke="#000000" stroke-width="1" fill="none" /><path id="93" transform="matrix(1 0 0 -1 0 666)" d="M130.28 362.16L130.28 354.24" stroke="#000000" stroke-width="1" fill="none" /><path id="94" transform="matrix(1 0 0 -1 0 666)" d="M130.28 348.24L130.28 340.32" stroke="#000000" stroke-width="1" fill="none" /><path id="95" transform="matrix(1 0 0 -1 0 666)" d="M130.28 334.32L130.28 326.52" stroke="#000000" stroke-width="1" fill="none" /><path id="96" transform="matrix(1 0 0 -1 0 666)" d="M130.28 320.4L130.28 312.6" stroke="#000000" stroke-width="1" fill="none" /><path id="97" transform="matrix(1 0 0 -1 0 666)" d="M130.28 306.48L130.28 298.68" stroke="#000000" stroke-width="1" fill="none" /><path id="98" transform="matrix(1 0 0 -1 0 666)" d="M130.28 292.56L130.28 284.76" stroke="#000000" stroke-width="1" fill="none" /><path id="99" transform="matrix(1 0 0 -1 0 666)" d="M130.28 278.76L130.28 270.84" stroke="#000000" stroke-width="1" fill="none" /><path id="100" transform="matrix(1 0 0 -1 0 666)" d="M130.28 264.84L130.28 256.92" stroke="#000000" stroke-width="1" fill="none" /><path id="101" transform="matrix(1 0 0 -1 0 666)" d="M130.28 250.92L130.28 243.12" stroke="#000000" stroke-width="1" fill="none" /><path id="102" transform="matrix(1 0 0 -1 0 666)" d="M130.28 237L130.28 229.2" stroke="#000000" stroke-width="1" fill="none" /><path id="103" transform="matrix(1 0 0 -1 0 666)" d="M130.28 223.08L130.28 215.28" stroke="#000000" stroke-width="1" fill="none" /><path id="104" transform="matrix(1 0 0 -1 0 666)" d="M130.28 209.16L130.28 201.36" stroke="#000000" stroke-width="1" fill="none" /><path id="105" transform="matrix(1 0 0 -1 0 666)" d="M130.28 195.36L130.28 187.44" stroke="#000000" stroke-width="1" fill="none" /><path id="106" transform="matrix(1 0 0 -1 0 666)" d="M130.28 181.44L130.28 173.52" stroke="#000000" stroke-width="1" fill="none" /><path id="107" transform="matrix(1 0 0 -1 0 666)" d="M130.28 167.52L130.28 159.6" stroke="#000000" stroke-width="1" fill="none" /><path id="108" transform="matrix(1 0 0 -1 0 666)" d="M130.28 153.6L130.28 145.8" stroke="#000000" stroke-width="1" fill="none" /><path id="109" transform="matrix(1 0 0 -1 0 666)" d="M130.28 139.68L130.28 131.88" stroke="#000000" stroke-width="1" fill="none" /><path id="110" transform="matrix(1 0 0 -1 0 666)" d="M130.28 125.76L130.28 117.96" stroke="#000000" stroke-width="1" fill="none" /><path id="111" transform="matrix(1 0 0 -1 0 666)" d="M130.28 111.84L130.28 104.04" stroke="#000000" stroke-width="1" fill="none" /><path id="112" transform="matrix(1 0 0 -1 0 666)" d="M130.28 98.03999L130.28 94.08" stroke="#000000" stroke-width="1" fill="none" /><path id="113" transform="matrix(1 0 0 -1 0 666)" d="M355.76 522.6L355.76 518.64" stroke="#000000" stroke-width="1" fill="none" /><path id="114" transform="matrix(1 0 0 -1 0 666)" d="M355.76 512.64L355.76 504.72" stroke="#000000" stroke-width="1" fill="none" /><path id="115" transform="matrix(1 0 0 -1 0 666)" d="M355.76 498.72L355.76 490.8" stroke="#000000" stroke-width="1" fill="none" /><path id="116" transform="matrix(1 0 0 -1 0 666)" d="M355.76 484.8L355.76 476.88" stroke="#000000" stroke-width="1" fill="none" /><path id="117" transform="matrix(1 0 0 -1 0 666)" d="M355.76 470.88L355.76 463.08" stroke="#000000" stroke-width="1" fill="none" /><path id="118" transform="matrix(1 0 0 -1 0 666)" d="M355.76 456.96L355.76 449.16" stroke="#000000" stroke-width="1" fill="none" /><path id="119" transform="matrix(1 0 0 -1 0 666)" d="M355.76 443.04L355.76 435.24" stroke="#000000" stroke-width="1" fill="none" /><path id="120" transform="matrix(1 0 0 -1 0 666)" d="M355.76 429.12L355.76 421.32" stroke="#000000" stroke-width="1" fill="none" /><path id="121" transform="matrix(1 0 0 -1 0 666)" d="M355.76 415.32L355.76 407.4" stroke="#000000" stroke-width="1" fill="none" /><path id="122" transform="matrix(1 0 0 -1 0 666)" d="M355.76 401.4L355.76 393.48" stroke="#000000" stroke-width="1" fill="none" /><path id="123" transform="matrix(1 0 0 -1 0 666)" d="M355.76 387.48L355.76 379.68" stroke="#000000" stroke-width="1" fill="none" /><path id="124" transform="matrix(1 0 0 -1 0 666)" d="M355.76 373.56L355.76 365.76" stroke="#000000" stroke-width="1" fill="none" /><path id="125" transform="matrix(1 0 0 -1 0 666)" d="M355.76 359.64L355.76 351.84" stroke="#000000" stroke-width="1" fill="none" /><path id="126" transform="matrix(1 0 0 -1 0 666)" d="M355.76 345.72L355.76 337.92" stroke="#000000" stroke-width="1" fill="none" /><path id="127" transform="matrix(1 0 0 -1 0 666)" d="M355.76 331.92L355.76 324" stroke="#000000" stroke-width="1" fill="none" /><path id="128" transform="matrix(1 0 0 -1 0 666)" d="M355.76 318L355.76 310.08" stroke="#000000" stroke-width="1" fill="none" /><path id="129" transform="matrix(1 0 0 -1 0 666)" d="M355.76 304.08L355.76 296.16" stroke="#000000" stroke-width="1" fill="none" /><path id="130" transform="matrix(1 0 0 -1 0 666)" d="M355.76 290.16L355.76 282.36" stroke="#000000" stroke-width="1" fill="none" /><path id="131" transform="matrix(1 0 0 -1 0 666)" d="M355.76 276.24L355.76 268.44" stroke="#000000" stroke-width="1" fill="none" /><path id="132" transform="matrix(1 0 0 -1 0 666)" d="M355.76 262.32L355.76 254.52" stroke="#000000" stroke-width="1" fill="none" /><path id="133" transform="matrix(1 0 0 -1 0 666)" d="M355.76 248.4L355.76 240.6" stroke="#000000" stroke-width="1" fill="none" /><path id="134" transform="matrix(1 0 0 -1 0 666)" d="M355.76 234.6L355.76 226.68" stroke="#000000" stroke-width="1" fill="none" /><path id="135" transform="matrix(1 0 0 -1 0 666)" d="M355.76 220.68L355.76 212.76" stroke="#000000" stroke-width="1" fill="none" /><path id="136" transform="matrix(1 0 0 -1 0 666)" d="M355.76 206.76L355.76 198.96" stroke="#000000" stroke-width="1" fill="none" /><path id="137" transform="matrix(1 0 0 -1 0 666)" d="M355.76 192.84L355.76 185.04" stroke="#000000" stroke-width="1" fill="none" /><path id="138" transform="matrix(1 0 0 -1 0 666)" d="M355.76 178.92L355.76 171.12" stroke="#000000" stroke-width="1" fill="none" /><path id="139" transform="matrix(1 0 0 -1 0 666)" d="M355.76 165L355.76 157.2" stroke="#000000" stroke-width="1" fill="none" /><path id="140" transform="matrix(1 0 0 -1 0 666)" d="M355.76 151.2L355.76 143.28" stroke="#000000" stroke-width="1" fill="none" /><path id="141" transform="matrix(1 0 0 -1 0 666)" d="M355.76 137.28L355.76 129.36" stroke="#000000" stroke-width="1" fill="none" /><path id="142" transform="matrix(1 0 0 -1 0 666)" d="M355.76 123.36L355.76 115.44" stroke="#000000" stroke-width="1" fill="none" /><path id="143" transform="matrix(1 0 0 -1 0 666)" d="M355.76 109.44L355.76 101.64" stroke="#000000" stroke-width="1" fill="none" /><path id="144" transform="matrix(1 0 0 -1 0 666)" d="M355.76 95.51999L355.76 91.56" stroke="#000000" stroke-width="1" fill="none" /><path id="145" transform="matrix(1 0 0 -1 0 666)" d="M429.44 523.2L429.44 519.36" stroke="#000000" stroke-width="1" fill="none" /><path id="146" transform="matrix(1 0 0 -1 0 666)" d="M429.44 513.24L429.44 505.44" stroke="#000000" stroke-width="1" fill="none" /><path id="147" transform="matrix(1 0 0 -1 0 666)" d="M429.44 499.32L429.44 491.52" stroke="#000000" stroke-width="1" fill="none" /><path id="148" transform="matrix(1 0 0 -1 0 666)" d="M429.44 485.4L429.44 477.6" stroke="#000000" stroke-width="1" fill="none" /><path id="149" transform="matrix(1 0 0 -1 0 666)" d="M429.44 471.6L429.44 463.68" stroke="#000000" stroke-width="1" fill="none" /><path id="150" transform="matrix(1 0 0 -1 0 666)" d="M429.44 457.68L429.44 449.76" stroke="#000000" stroke-width="1" fill="none" /><path id="151" transform="matrix(1 0 0 -1 0 666)" d="M429.44 443.76L429.44 435.84" stroke="#000000" stroke-width="1" fill="none" /><path id="152" transform="matrix(1 0 0 -1 0 666)" d="M429.44 429.84L429.44 422.04" stroke="#000000" stroke-width="1" fill="none" /><path id="153" transform="matrix(1 0 0 -1 0 666)" d="M429.44 415.92L429.44 408.12" stroke="#000000" stroke-width="1" fill="none" /><path id="154" transform="matrix(1 0 0 -1 0 666)" d="M429.44 402L429.44 394.2" stroke="#000000" stroke-width="1" fill="none" /><path id="155" transform="matrix(1 0 0 -1 0 666)" d="M429.44 388.08L429.44 380.28" stroke="#000000" stroke-width="1" fill="none" /><path id="156" transform="matrix(1 0 0 -1 0 666)" d="M429.44 374.28L429.44 366.36" stroke="#000000" stroke-width="1" fill="none" /><path id="157" transform="matrix(1 0 0 -1 0 666)" d="M429.44 360.36L429.44 352.44" stroke="#000000" stroke-width="1" fill="none" /><path id="158" transform="matrix(1 0 0 -1 0 666)" d="M429.44 346.44L429.44 338.64" stroke="#000000" stroke-width="1" fill="none" /><path id="159" transform="matrix(1 0 0 -1 0 666)" d="M429.44 332.52L429.44 324.72" stroke="#000000" stroke-width="1" fill="none" /><path id="160" transform="matrix(1 0 0 -1 0 666)" d="M429.44 318.6L429.44 310.8" stroke="#000000" stroke-width="1" fill="none" /><path id="161" transform="matrix(1 0 0 -1 0 666)" d="M429.44 304.68L429.44 296.88" stroke="#000000" stroke-width="1" fill="none" /><path id="162" transform="matrix(1 0 0 -1 0 666)" d="M429.44 290.76L429.44 282.96" stroke="#000000" stroke-width="1" fill="none" /><path id="163" transform="matrix(1 0 0 -1 0 666)" d="M429.44 276.96L429.44 269.04" stroke="#000000" stroke-width="1" fill="none" /><path id="164" transform="matrix(1 0 0 -1 0 666)" d="M429.44 263.04L429.44 255.12" stroke="#000000" stroke-width="1" fill="none" /><path id="165" transform="matrix(1 0 0 -1 0 666)" d="M429.44 249.12L429.44 241.32" stroke="#000000" stroke-width="1" fill="none" /><path id="166" transform="matrix(1 0 0 -1 0 666)" d="M429.44 235.2L429.44 227.4" stroke="#000000" stroke-width="1" fill="none" /><path id="167" transform="matrix(1 0 0 -1 0 666)" d="M429.44 221.28L429.44 213.48" stroke="#000000" stroke-width="1" fill="none" /><path id="168" transform="matrix(1 0 0 -1 0 666)" d="M429.44 207.36L429.44 199.56" stroke="#000000" stroke-width="1" fill="none" /><path id="169" transform="matrix(1 0 0 -1 0 666)" d="M429.44 193.56L429.44 185.64" stroke="#000000" stroke-width="1" fill="none" /><path id="170" transform="matrix(1 0 0 -1 0 666)" d="M429.44 179.64L429.44 171.72" stroke="#000000" stroke-width="1" fill="none" /><path id="171" transform="matrix(1 0 0 -1 0 666)" d="M429.44 165.72L429.44 157.92" stroke="#000000" stroke-width="1" fill="none" /><path id="172" transform="matrix(1 0 0 -1 0 666)" d="M429.44 151.8L429.44 144" stroke="#000000" stroke-width="1" fill="none" /><path id="173" transform="matrix(1 0 0 -1 0 666)" d="M429.44 137.88L429.44 130.08" stroke="#000000" stroke-width="1" fill="none" /><path id="174" transform="matrix(1 0 0 -1 0 666)" d="M429.44 123.96L429.44 116.16" stroke="#000000" stroke-width="1" fill="none" /><path id="175" transform="matrix(1 0 0 -1 0 666)" d="M429.44 110.04L429.44 102.24" stroke="#000000" stroke-width="1" fill="none" /><path id="176" transform="matrix(1 0 0 -1 0 666)" d="M429.44 96.23999L429.44 92.28" stroke="#000000" stroke-width="1" fill="none" /><path id="177" transform="matrix(1 0 0 -1 0 666)" d="M494.72 525.84L494.72 521.88" stroke="#000000" stroke-width="1" fill="none" /><path id="178" transform="matrix(1 0 0 -1 0 666)" d="M494.72 515.88L494.72 508.08" stroke="#000000" stroke-width="1" fill="none" /><path id="179" transform="matrix(1 0 0 -1 0 666)" d="M494.72 501.96L494.72 494.16" stroke="#000000" stroke-width="1" fill="none" /><path id="180" transform="matrix(1 0 0 -1 0 666)" d="M494.72 488.04L494.72 480.24" stroke="#000000" stroke-width="1" fill="none" /><path id="181" transform="matrix(1 0 0 -1 0 666)" d="M494.72 474.12L494.72 466.32" stroke="#000000" stroke-width="1" fill="none" /><path id="182" transform="matrix(1 0 0 -1 0 666)" d="M494.72 460.32L494.72 452.4" stroke="#000000" stroke-width="1" fill="none" /><path id="183" transform="matrix(1 0 0 -1 0 666)" d="M494.72 446.4L494.72 438.48" stroke="#000000" stroke-width="1" fill="none" /><path id="184" transform="matrix(1 0 0 -1 0 666)" d="M494.72 432.48L494.72 424.68" stroke="#000000" stroke-width="1" fill="none" /><path id="185" transform="matrix(1 0 0 -1 0 666)" d="M494.72 418.56L494.72 410.76" stroke="#000000" stroke-width="1" fill="none" /><path id="186" transform="matrix(1 0 0 -1 0 666)" d="M494.72 404.64L494.72 396.84" stroke="#000000" stroke-width="1" fill="none" /><path id="187" transform="matrix(1 0 0 -1 0 666)" d="M494.72 390.72L494.72 382.92" stroke="#000000" stroke-width="1" fill="none" /><path id="188" transform="matrix(1 0 0 -1 0 666)" d="M494.72 376.92L494.72 369" stroke="#000000" stroke-width="1" fill="none" /><path id="189" transform="matrix(1 0 0 -1 0 666)" d="M494.72 363L494.72 355.08" stroke="#000000" stroke-width="1" fill="none" /><path id="190" transform="matrix(1 0 0 -1 0 666)" d="M494.72 349.08L494.72 341.16" stroke="#000000" stroke-width="1" fill="none" /><path id="191" transform="matrix(1 0 0 -1 0 666)" d="M494.72 335.16L494.72 327.36" stroke="#000000" stroke-width="1" fill="none" /><path id="192" transform="matrix(1 0 0 -1 0 666)" d="M494.72 321.24L494.72 313.44" stroke="#000000" stroke-width="1" fill="none" /><path id="193" transform="matrix(1 0 0 -1 0 666)" d="M494.72 307.32L494.72 299.52" stroke="#000000" stroke-width="1" fill="none" /><path id="194" transform="matrix(1 0 0 -1 0 666)" d="M494.72 293.4L494.72 285.6" stroke="#000000" stroke-width="1" fill="none" /><path id="195" transform="matrix(1 0 0 -1 0 666)" d="M494.72 279.6L494.72 271.68" stroke="#000000" stroke-width="1" fill="none" /><path id="196" transform="matrix(1 0 0 -1 0 666)" d="M494.72 265.68L494.72 257.76" stroke="#000000" stroke-width="1" fill="none" /><path id="197" transform="matrix(1 0 0 -1 0 666)" d="M494.72 251.76L494.72 243.96" stroke="#000000" stroke-width="1" fill="none" /><path id="198" transform="matrix(1 0 0 -1 0 666)" d="M494.72 237.84L494.72 230.04" stroke="#000000" stroke-width="1" fill="none" /><path id="199" transform="matrix(1 0 0 -1 0 666)" d="M494.72 223.92L494.72 216.12" stroke="#000000" stroke-width="1" fill="none" /><path id="200" transform="matrix(1 0 0 -1 0 666)" d="M494.72 210L494.72 202.2" stroke="#000000" stroke-width="1" fill="none" /><path id="201" transform="matrix(1 0 0 -1 0 666)" d="M494.72 196.2L494.72 188.28" stroke="#000000" stroke-width="1" fill="none" /><path id="202" transform="matrix(1 0 0 -1 0 666)" d="M494.72 182.28L494.72 174.36" stroke="#000000" stroke-width="1" fill="none" /><path id="203" transform="matrix(1 0 0 -1 0 666)" d="M494.72 168.36L494.72 160.44" stroke="#000000" stroke-width="1" fill="none" /><path id="204" transform="matrix(1 0 0 -1 0 666)" d="M494.72 154.44L494.72 146.64" stroke="#000000" stroke-width="1" fill="none" /><path id="205" transform="matrix(1 0 0 -1 0 666)" d="M494.72 140.52L494.72 132.72" stroke="#000000" stroke-width="1" fill="none" /><path id="206" transform="matrix(1 0 0 -1 0 666)" d="M494.72 126.6L494.72 118.8" stroke="#000000" stroke-width="1" fill="none" /><path id="207" transform="matrix(1 0 0 -1 0 666)" d="M494.72 112.68L494.72 104.88" stroke="#000000" stroke-width="1" fill="none" /><path id="208" transform="matrix(1 0 0 -1 0 666)" d="M494.72 98.87999L494.72 94.92" stroke="#000000" stroke-width="1" fill="none" /><path id="209" transform="matrix(1 0 0 -1 0 666)" d="M283.28 523.32L283.28 519.36" stroke="#000000" stroke-width="1" fill="none" /><path id="210" transform="matrix(1 0 0 -1 0 666)" d="M283.28 513.36L283.28 505.44" stroke="#000000" stroke-width="1" fill="none" /><path id="211" transform="matrix(1 0 0 -1 0 666)" d="M283.28 499.44L283.28 491.64" stroke="#000000" stroke-width="1" fill="none" /><path id="212" transform="matrix(1 0 0 -1 0 666)" d="M283.28 485.52L283.28 477.72" stroke="#000000" stroke-width="1" fill="none" /><path id="213" transform="matrix(1 0 0 -1 0 666)" d="M283.28 471.6L283.28 463.8" stroke="#000000" stroke-width="1" fill="none" /><path id="214" transform="matrix(1 0 0 -1 0 666)" d="M283.28 457.68L283.28 449.88" stroke="#000000" stroke-width="1" fill="none" /><path id="215" transform="matrix(1 0 0 -1 0 666)" d="M283.28 443.88L283.28 435.96" stroke="#000000" stroke-width="1" fill="none" /><path id="216" transform="matrix(1 0 0 -1 0 666)" d="M283.28 429.96L283.28 422.04" stroke="#000000" stroke-width="1" fill="none" /><path id="217" transform="matrix(1 0 0 -1 0 666)" d="M283.28 416.04L283.28 408.24" stroke="#000000" stroke-width="1" fill="none" /><path id="218" transform="matrix(1 0 0 -1 0 666)" d="M283.28 402.12L283.28 394.32" stroke="#000000" stroke-width="1" fill="none" /><path id="219" transform="matrix(1 0 0 -1 0 666)" d="M283.28 388.2L283.28 380.4" stroke="#000000" stroke-width="1" fill="none" /><path id="220" transform="matrix(1 0 0 -1 0 666)" d="M283.28 374.28L283.28 366.48" stroke="#000000" stroke-width="1" fill="none" /><path id="221" transform="matrix(1 0 0 -1 0 666)" d="M283.28 360.36L283.28 352.56" stroke="#000000" stroke-width="1" fill="none" /><path id="222" transform="matrix(1 0 0 -1 0 666)" d="M283.28 346.56L283.28 338.64" stroke="#000000" stroke-width="1" fill="none" /><path id="223" transform="matrix(1 0 0 -1 0 666)" d="M283.28 332.64L283.28 324.72" stroke="#000000" stroke-width="1" fill="none" /><path id="224" transform="matrix(1 0 0 -1 0 666)" d="M283.28 318.72L283.28 310.92" stroke="#000000" stroke-width="1" fill="none" /><path id="225" transform="matrix(1 0 0 -1 0 666)" d="M283.28 304.8L283.28 297" stroke="#000000" stroke-width="1" fill="none" /><path id="226" transform="matrix(1 0 0 -1 0 666)" d="M283.28 290.88L283.28 283.08" stroke="#000000" stroke-width="1" fill="none" /><path id="227" transform="matrix(1 0 0 -1 0 666)" d="M283.28 276.96L283.28 269.16" stroke="#000000" stroke-width="1" fill="none" /><path id="228" transform="matrix(1 0 0 -1 0 666)" d="M283.28 263.16L283.28 255.24" stroke="#000000" stroke-width="1" fill="none" /><path id="229" transform="matrix(1 0 0 -1 0 666)" d="M283.28 249.24L283.28 241.32" stroke="#000000" stroke-width="1" fill="none" /><path id="230" transform="matrix(1 0 0 -1 0 666)" d="M283.28 235.32L283.28 227.4" stroke="#000000" stroke-width="1" fill="none" /><path id="231" transform="matrix(1 0 0 -1 0 666)" d="M283.28 221.4L283.28 213.6" stroke="#000000" stroke-width="1" fill="none" /><path id="232" transform="matrix(1 0 0 -1 0 666)" d="M283.28 207.48L283.28 199.68" stroke="#000000" stroke-width="1" fill="none" /><path id="233" transform="matrix(1 0 0 -1 0 666)" d="M283.28 193.56L283.28 185.76" stroke="#000000" stroke-width="1" fill="none" /><path id="234" transform="matrix(1 0 0 -1 0 666)" d="M283.28 179.64L283.28 171.84" stroke="#000000" stroke-width="1" fill="none" /><path id="235" transform="matrix(1 0 0 -1 0 666)" d="M283.28 165.84L283.28 157.92" stroke="#000000" stroke-width="1" fill="none" /><path id="236" transform="matrix(1 0 0 -1 0 666)" d="M283.28 151.92L283.28 144" stroke="#000000" stroke-width="1" fill="none" /><path id="237" transform="matrix(1 0 0 -1 0 666)" d="M283.28 138L283.28 130.2" stroke="#000000" stroke-width="1" fill="none" /><path id="238" transform="matrix(1 0 0 -1 0 666)" d="M283.28 124.08L283.28 116.28" stroke="#000000" stroke-width="1" fill="none" /><path id="239" transform="matrix(1 0 0 -1 0 666)" d="M283.28 110.16L283.28 102.36" stroke="#000000" stroke-width="1" fill="none" /><path id="240" transform="matrix(1 0 0 -1 0 666)" d="M283.28 96.23999L283.28 92.28" stroke="#000000" stroke-width="1" fill="none" /><path id="241" transform="matrix(1 0 0 -1 0 666)" d="M116.36 490.08L116.36 493.32L116.96 493.2L126.2 490.56L127.76 490.08L126.2 489.6L116.96 486.84L116.36 486.72L116.36 487.32L116.72 487.8L125.96 490.56L126.2 489.6L125.96 489.6L116.72 492.24L116.96 493.2L117.32 492.72L117.32 490.08" stroke="none" fill="#000000" fill-rule="nonzero" /><path id="242" transform="matrix(1 0 0 -1 0 666)" d="M116.36 487.32L116.36 490.08L117.32 490.08L117.32 487.32" stroke="none" fill="#000000" fill-rule="nonzero" /><path id="243" transform="matrix(1 0 0 -1 0 666)" d="M116.84 490.08L116.84 492.72L116.84 492.72L126.08 490.08L126.08 490.08L116.84 487.32" stroke="none" fill="#000000" fill-rule="evenodd" /><path id="244" transform="matrix(1 0 0 -1 0 666)" d="M61.51952 489.84L61.75951 489.84L61.75951 490.32L61.51952 490.32z" stroke="none" fill="#000000" fill-rule="nonzero" /><path id="245" transform="matrix(1 0 0 -1 0 666)" d="M116.36 489.84L116.6 489.84L116.6 490.32L116.36 490.32z" stroke="none" fill="#000000" fill-rule="nonzero" /><path id="246" transform="matrix(1 0 0 -1 0 666)" d="M61.75951 489.84L116.3595 489.84L116.3595 490.32L61.75951 490.32z" stroke="none" fill="#000000" fill-rule="nonzero" /><path id="247" transform="matrix(1 0 0 -1 0 666)" d="M254.96 566.64L507.68 566.64L507.68 567.12L254.96 567.12z" stroke="none" fill="#000000" fill-rule="nonzero" /><path id="248" transform="matrix(1 0 0 -1 0 666)" d="M507.2 533.4L507.68 533.4L507.68 566.88L507.2 566.88z" stroke="none" fill="#000000" fill-rule="nonzero" /><path id="249" transform="matrix(1 0 0 -1 0 666)" d="M254.72 533.4L507.44 533.4L507.44 533.88L254.72 533.88z" stroke="none" fill="#000000" fill-rule="nonzero" /><path id="250" transform="matrix(1 0 0 -1 0 666)" d="M254.72 533.64L255.2 533.64L255.2 567.12L254.72 567.12z" stroke="none" fill="#000000" fill-rule="nonzero" /><path id="251" transform="matrix(1 0 0 -1 0 666)" d="M344.48 365.4L344.48 368.64L345.08 368.52L354.2 365.88L355.88 365.4L354.2 364.92L345.08 362.28L344.48 362.16L344.48 362.76L344.84 363.24L353.96 365.88L354.2 364.92L353.96 364.92L344.84 367.56L345.08 368.52L345.44 368.04L345.44 365.4" stroke="none" fill="#000000" fill-rule="nonzero" /><path id="252" transform="matrix(1 0 0 -1 0 666)" d="M344.48 362.76L344.48 365.4L345.44 365.4L345.44 362.76" stroke="none" fill="#000000" fill-rule="nonzero" /><path id="253" transform="matrix(1 0 0 -1 0 666)" d="M344.96 365.4L344.96 368.04L344.96 368.04L354.08 365.4L354.08 365.4L344.96 362.76" stroke="none" fill="#000000" fill-rule="evenodd" /><path id="254" transform="matrix(1 0 0 -1 0 666)" d="M131.48 365.16L131.72 365.16L131.72 365.64L131.48 365.64z" stroke="none" fill="#000000" fill-rule="nonzero" /><path id="255" transform="matrix(1 0 0 -1 0 666)" d="M344.36 365.16L344.6 365.16L344.6 365.64L344.36 365.64z" stroke="none" fill="#000000" fill-rule="nonzero" /><path id="256" transform="matrix(1 0 0 -1 0 666)" d="M131.72 365.16L344.36 365.16L344.36 365.64L131.72 365.64z" stroke="none" fill="#000000" fill-rule="nonzero" /><path id="257" transform="matrix(1 0 0 -1 0 666)" d="M344 431.4L344 434.64L344.6 434.52L353.84 431.88L355.52 431.4L353.84 430.92L344.6 428.28L344 428.16L344 428.76L344.36 429.24L353.6 431.88L353.84 430.92L353.6 430.92L344.36 433.56L344.6 434.52L344.96 434.04L344.96 431.4" stroke="none" fill="#000000" fill-rule="nonzero" /><path id="258" transform="matrix(1 0 0 -1 0 666)" d="M344 428.76L344 431.4L344.96 431.4L344.96 428.76" stroke="none" fill="#000000" fill-rule="nonzero" /><path id="259" transform="matrix(1 0 0 -1 0 666)" d="M344.48 431.4L344.48 434.04L344.48 434.04L353.72 431.4L353.72 431.4L344.48 428.76" stroke="none" fill="#000000" fill-rule="evenodd" /><path id="260" transform="matrix(1 0 0 -1 0 666)" d="M282.92 431.16L283.16 431.16L283.16 431.64L282.92 431.64z" stroke="none" fill="#000000" fill-rule="nonzero" /><path id="261" transform="matrix(1 0 0 -1 0 666)" d="M344 431.16L344.24 431.16L344.24 431.64L344 431.64z" stroke="none" fill="#000000" fill-rule="nonzero" /><path id="262" transform="matrix(1 0 0 -1 0 666)" d="M283.16 431.16L344 431.16L344 431.64L283.16 431.64z" stroke="none" fill="#000000" fill-rule="nonzero" /><path id="266" transform="matrix(1 0 0 -1 0 666)" d="M354.08 443.16L357.08 443.16L357.08 444.6L354.08 444.6z" stroke="none" fill="#000000" fill-rule="nonzero" /><path id="267" transform="matrix(1 0 0 -1 0 666)" d="M354.08 395.4L357.08 395.4L357.08 396.84L354.08 396.84z" stroke="none" fill="#000000" fill-rule="nonzero" /><path id="268" transform="matrix(1 0 0 -1 0 666)" d="M354.08 396.84L357.08 396.84L357.08 443.16L354.08 443.16z" stroke="none" fill="#000000" fill-rule="nonzero" /><path id="269" transform="matrix(1 0 0 -1 0 666)" d="M414.2 231.12L414.2 234.36L414.8 234.24L424.04 231.6L425.72 231.12L424.04 230.64L414.8 228L414.2 227.88L414.2 228.48L414.56 228.96L423.8 231.6L424.04 230.64L423.8 230.64L414.56 233.28L414.8 234.24L415.16 233.76L415.16 231.12" stroke="none" fill="#000000" fill-rule="nonzero" /><path id="270" transform="matrix(1 0 0 -1 0 666)" d="M414.2 228.48L414.2 231.12L415.16 231.12L415.16 228.48" stroke="none" fill="#000000" fill-rule="nonzero" /><path id="271" transform="matrix(1 0 0 -1 0 666)" d="M414.68 231.12L414.68 233.76L414.68 233.76L423.92 231.12L423.92 231.12L414.68 228.48" stroke="none" fill="#000000" fill-rule="evenodd" /><path id="272" transform="matrix(1 0 0 -1 0 666)" d="M62.47952 230.88L62.71951 230.88L62.71951 231.36L62.47952 231.36z" stroke="none" fill="#000000" fill-rule="nonzero" /><path id="273" transform="matrix(1 0 0 -1 0 666)" d="M414.2 230.88L414.44 230.88L414.44 231.36L414.2 231.36z" stroke="none" fill="#000000" fill-rule="nonzero" /><path id="274" transform="matrix(1 0 0 -1 0 666)" d="M62.71951 230.88L414.1995 230.88L414.1995 231.36L62.71951 231.36z" stroke="none" fill="#000000" fill-rule="nonzero" /><path id="275" transform="matrix(1 0 0 -1 0 666)" d="M417.2 204.84L417.2 208.08L417.8 207.96L427.04 205.32L428.72 204.84L427.04 204.36L417.8 201.72L417.2 201.6L417.2 202.2L417.56 202.68L426.8 205.32L427.04 204.36L426.8 204.36L417.56 207L417.8 207.96L418.16 207.48L418.16 204.84" stroke="none" fill="#000000" fill-rule="nonzero" /><path id="276" transform="matrix(1 0 0 -1 0 666)" d="M417.2 202.2L417.2 204.84L418.16 204.84L418.16 202.2" stroke="none" fill="#000000" fill-rule="nonzero" /><path id="277" transform="matrix(1 0 0 -1 0 666)" d="M417.68 204.84L417.68 207.48L417.68 207.48L426.92 204.84L426.92 204.84L417.68 202.2" stroke="none" fill="#000000" fill-rule="evenodd" /><path id="278" transform="matrix(1 0 0 -1 0 666)" d="M63.19952 204.6L63.43951 204.6L63.43951 205.08L63.19952 205.08z" stroke="none" fill="#000000" fill-rule="nonzero" /><path id="279" transform="matrix(1 0 0 -1 0 666)" d="M417.2 204.6L417.44 204.6L417.44 205.08L417.2 205.08z" stroke="none" fill="#000000" fill-rule="nonzero" /><path id="280" transform="matrix(1 0 0 -1 0 666)" d="M63.43951 204.6L417.1995 204.6L417.1995 205.08L63.43951 205.08z" stroke="none" fill="#000000" fill-rule="nonzero" /><path id="281" transform="matrix(1 0 0 -1 0 666)" d="M483.44 319.32L483.44 322.68L484.04 322.56L493.28 319.8L494.96 319.32L493.28 318.84L484.04 316.2L483.44 316.08L483.44 316.68L483.8 317.16L493.04 319.8L493.28 318.84L493.04 318.84L483.8 321.6L484.04 322.56L484.4 322.08L484.4 319.32" stroke="none" fill="#000000" fill-rule="nonzero" /><path id="282" transform="matrix(1 0 0 -1 0 666)" d="M483.44 316.68L483.44 319.32L484.4 319.32L484.4 316.68" stroke="none" fill="#000000" fill-rule="nonzero" /><path id="283" transform="matrix(1 0 0 -1 0 666)" d="M483.92 319.32L483.92 322.08L483.92 322.08L493.16 319.32L493.16 319.32L483.92 316.68" stroke="none" fill="#000000" fill-rule="evenodd" /><path id="284" transform="matrix(1 0 0 -1 0 666)" d="M231.2 319.08L231.44 319.08L231.44 319.56L231.2 319.56z" stroke="none" fill="#000000" fill-rule="nonzero" /><path id="285" transform="matrix(1 0 0 -1 0 666)" d="M483.44 319.08L483.68 319.08L483.68 319.56L483.44 319.56z" stroke="none" fill="#000000" fill-rule="nonzero" /><path id="286" transform="matrix(1 0 0 -1 0 666)" d="M231.44 319.08L483.44 319.08L483.44 319.56L231.44 319.56z" stroke="none" fill="#000000" fill-rule="nonzero" /><path id="287" transform="matrix(1 0 0 -1 0 666)" d="M128.72 494.16L131.72 494.16L131.72 495.6L128.72 495.6z" stroke="none" fill="#000000" fill-rule="nonzero" /><path id="288" transform="matrix(1 0 0 -1 0 666)" d="M128.72 266.4L131.72 266.4L131.72 267.84L128.72 267.84z" stroke="none" fill="#000000" fill-rule="nonzero" /><path id="289" transform="matrix(1 0 0 -1 0 666)" d="M128.72 267.84L131.72 267.84L131.72 494.16L128.72 494.16z" stroke="none" fill="#000000" fill-rule="nonzero" /><path id="366" transform="matrix(1 0 0 -1 0 666)" d="M271.64 482.16L271.64 485.4L272.24 485.28L281.48 482.64L283.16 482.16L281.48 481.68L272.24 479.04L271.64 478.92L271.64 479.52L272 480L281.24 482.64L281.48 481.68L281.24 481.68L272 484.32L272.24 485.28L272.6 484.8L272.6 482.16" stroke="none" fill="#000000" fill-rule="nonzero" /><path id="367" transform="matrix(1 0 0 -1 0 666)" d="M271.64 479.52L271.64 482.16L272.6 482.16L272.6 479.52" stroke="none" fill="#000000" fill-rule="nonzero" /><path id="368" transform="matrix(1 0 0 -1 0 666)" d="M272.12 482.16L272.12 484.8L272.12 484.8L281.36 482.16L281.36 482.16L272.12 479.52" stroke="none" fill="#000000" fill-rule="evenodd" /><path id="369" transform="matrix(1 0 0 -1 0 666)" d="M129.2 481.92L129.44 481.92L129.44 482.4L129.2 482.4z" stroke="none" fill="#000000" fill-rule="nonzero" /><path id="370" transform="matrix(1 0 0 -1 0 666)" d="M271.64 481.92L271.88 481.92L271.88 482.4L271.64 482.4z" stroke="none" fill="#000000" fill-rule="nonzero" /><path id="371" transform="matrix(1 0 0 -1 0 666)" d="M129.44 481.92L271.64 481.92L271.64 482.4L129.44 482.4z" stroke="none" fill="#000000" fill-rule="nonzero" /><path id="375" transform="matrix(1 0 0 -1 0 666)" d="M417.08 418.68L417.08 421.92L417.68 421.8L426.92 419.16L428.6 418.68L426.92 418.2L417.68 415.56L417.08 415.44L417.08 416.04L417.44 416.52L426.68 419.16L426.92 418.2L426.68 418.2L417.44 420.84L417.68 421.8L418.04 421.32L418.04 418.68" stroke="none" fill="#000000" fill-rule="nonzero" /><path id="376" transform="matrix(1 0 0 -1 0 666)" d="M417.08 416.04L417.08 418.68L418.04 418.68L418.04 416.04" stroke="none" fill="#000000" fill-rule="nonzero" /><path id="377" transform="matrix(1 0 0 -1 0 666)" d="M417.56 418.68L417.56 421.32L417.56 421.32L426.8 418.68L426.8 418.68L417.56 416.04" stroke="none" fill="#000000" fill-rule="evenodd" /><path id="378" transform="matrix(1 0 0 -1 0 666)" d="M355.28 418.44L355.52 418.44L355.52 418.92L355.28 418.92z" stroke="none" fill="#000000" fill-rule="nonzero" /><path id="379" transform="matrix(1 0 0 -1 0 666)" d="M417.08 418.44L417.32 418.44L417.32 418.92L417.08 418.92z" stroke="none" fill="#000000" fill-rule="nonzero" /><path id="380" transform="matrix(1 0 0 -1 0 666)" d="M355.52 418.44L417.08 418.44L417.08 418.92L355.52 418.92z" stroke="none" fill="#000000" fill-rule="nonzero" /><path id="381" transform="matrix(1 0 0 -1 0 666)" d="M481.64 400.56L481.64 403.8L482.24 403.68L491.48 401.04L493.16 400.56L491.48 400.08L482.24 397.44L481.64 397.32L481.64 397.92L482 398.4L491.24 401.04L491.48 400.08L491.24 400.08L482 402.72L482.24 403.68L482.6 403.2L482.6 400.56" stroke="none" fill="#000000" fill-rule="nonzero" /><path id="382" transform="matrix(1 0 0 -1 0 666)" d="M481.64 397.92L481.64 400.56L482.6 400.56L482.6 397.92" stroke="none" fill="#000000" fill-rule="nonzero" /><path id="383" transform="matrix(1 0 0 -1 0 666)" d="M482.12 400.56L482.12 403.2L482.12 403.2L491.36 400.56L491.36 400.56L482.12 397.92" stroke="none" fill="#000000" fill-rule="evenodd" /><path id="384" transform="matrix(1 0 0 -1 0 666)" d="M357.44 400.32L357.68 400.32L357.68 400.8L357.44 400.8z" stroke="none" fill="#000000" fill-rule="nonzero" /><path id="385" transform="matrix(1 0 0 -1 0 666)" d="M481.64 400.32L481.88 400.32L481.88 400.8L481.64 400.8z" stroke="none" fill="#000000" fill-rule="nonzero" /><path id="386" transform="matrix(1 0 0 -1 0 666)" d="M357.68 400.32L481.64 400.32L481.64 400.8L357.68 400.8z" stroke="none" fill="#000000" fill-rule="nonzero" /><path id="387" transform="matrix(1 0 0 -1 0 666)" d="M492.8 154.8L495.8 154.8L495.8 156.24L492.8 156.24z" stroke="none" fill="#000000" fill-rule="nonzero" /><path id="388" transform="matrix(1 0 0 -1 0 666)" d="M492.8 92.64L495.8 92.64L495.8 94.08L492.8 94.08z" stroke="none" fill="#000000" fill-rule="nonzero" /><path id="389" transform="matrix(1 0 0 -1 0 666)" d="M492.8 94.08L495.8 94.08L495.8 154.8L492.8 154.8z" stroke="none" fill="#000000" fill-rule="nonzero" /><path id="403" transform="matrix(1 0 0 -1 0 666)" d="M343.76 283.92L343.76 287.16L344.36 287.04L353.6 284.4L355.28 283.92L353.6 283.44L344.36 280.8L343.76 280.68L343.76 281.28L344.12 281.76L353.36 284.4L353.6 283.44L353.36 283.44L344.12 286.08L344.36 287.04L344.72 286.56L344.72 283.92" stroke="none" fill="#000000" fill-rule="nonzero" /><path id="404" transform="matrix(1 0 0 -1 0 666)" d="M343.76 281.28L343.76 283.92L344.72 283.92L344.72 281.28" stroke="none" fill="#000000" fill-rule="nonzero" /><path id="405" transform="matrix(1 0 0 -1 0 666)" d="M344.24 283.92L344.24 286.56L344.24 286.56L353.48 283.92L353.48 283.92L344.24 281.28" stroke="none" fill="#000000" fill-rule="evenodd" /><path id="406" transform="matrix(1 0 0 -1 0 666)" d="M130.64 283.68L130.88 283.68L130.88 284.16L130.64 284.16z" stroke="none" fill="#000000" fill-rule="nonzero" /><path id="407" transform="matrix(1 0 0 -1 0 666)" d="M343.76 283.68L344 283.68L344 284.16L343.76 284.16z" stroke="none" fill="#000000" fill-rule="nonzero" /><path id="408" transform="matrix(1 0 0 -1 0 666)" d="M130.88 283.68L343.76 283.68L343.76 284.16L130.88 284.16z" stroke="none" fill="#000000" fill-rule="nonzero" /><path id="485" transform="matrix(1 0 0 -1 0 666)" d="M482.48 149.4L482.48 152.64L483.08 152.52L492.2 149.88L493.88 149.4L492.2 148.92L483.08 146.28L482.48 146.16L482.48 146.76L482.84 147.24L491.96 149.88L492.2 148.92L491.96 148.92L482.84 151.56L483.08 152.52L483.44 152.04L483.44 149.4" stroke="none" fill="#000000" fill-rule="nonzero" /><path id="486" transform="matrix(1 0 0 -1 0 666)" d="M482.48 146.76L482.48 149.4L483.44 149.4L483.44 146.76" stroke="none" fill="#000000" fill-rule="nonzero" /><path id="487" transform="matrix(1 0 0 -1 0 666)" d="M482.96 149.4L482.96 152.04L482.96 152.04L492.08 149.4L492.08 149.4L482.96 146.76" stroke="none" fill="#000000" fill-rule="evenodd" /><path id="488" transform="matrix(1 0 0 -1 0 666)" d="M232.64 149.16L232.88 149.16L232.88 149.64L232.64 149.64z" stroke="none" fill="#000000" fill-rule="nonzero" /><path id="489" transform="matrix(1 0 0 -1 0 666)" d="M482.36 149.16L482.6 149.16L482.6 149.64L482.36 149.64z" stroke="none" fill="#000000" fill-rule="nonzero" /><path id="490" transform="matrix(1 0 0 -1 0 666)" d="M232.88 149.16L482.36 149.16L482.36 149.64L232.88 149.64z" stroke="none" fill="#000000" fill-rule="nonzero" /><path id="491" transform="matrix(1 0 0 -1 0 666)" d="M481.4 115.32L481.4 118.56L482 118.44L491.24 115.8L492.92 115.32L491.24 114.84L482 112.2L481.4 112.08L481.4 112.68L481.76 113.16L491 115.8L491.24 114.84L491 114.84L481.76 117.48L482 118.44L482.36 117.96L482.36 115.32" stroke="none" fill="#000000" fill-rule="nonzero" /><path id="492" transform="matrix(1 0 0 -1 0 666)" d="M481.4 112.68L481.4 115.32L482.36 115.32L482.36 112.68" stroke="none" fill="#000000" fill-rule="nonzero" /><path id="493" transform="matrix(1 0 0 -1 0 666)" d="M481.88 115.32L481.88 117.96L481.88 117.96L491.12 115.32L491.12 115.32L481.88 112.68" stroke="none" fill="#000000" fill-rule="evenodd" /><path id="494" transform="matrix(1 0 0 -1 0 666)" d="M231.2 115.08L231.44 115.08L231.44 115.56L231.2 115.56z" stroke="none" fill="#000000" fill-rule="nonzero" /><path id="495" transform="matrix(1 0 0 -1 0 666)" d="M481.4 115.08L481.64 115.08L481.64 115.56L481.4 115.56z" stroke="none" fill="#000000" fill-rule="nonzero" /><path id="496" transform="matrix(1 0 0 -1 0 666)" d="M231.44 115.08L481.4 115.08L481.4 115.56L231.44 115.56z" stroke="none" fill="#000000" fill-rule="nonzero" /><path id="497" transform="matrix(1 0 0 -1 0 666)" d="M481.88 99.84L481.88 103.08L482.48 102.96L491.72 100.32L493.4 99.84L491.72 99.36L482.48 96.72L481.88 96.59999L481.88 97.2L482.24 97.67999L491.48 100.32L491.72 99.36L491.48 99.36L482.24 102L482.48 102.96L482.84 102.48L482.84 99.84" stroke="none" fill="#000000" fill-rule="nonzero" /><path id="498" transform="matrix(1 0 0 -1 0 666)" d="M481.88 97.2L481.88 99.84L482.84 99.84L482.84 97.2" stroke="none" fill="#000000" fill-rule="nonzero" /><path id="499" transform="matrix(1 0 0 -1 0 666)" d="M482.36 99.84L482.36 102.48L482.36 102.48L491.6 99.84L491.6 99.84L482.36 97.2" stroke="none" fill="#000000" fill-rule="evenodd" /><path id="500" transform="matrix(1 0 0 -1 0 666)" d="M232.64 99.59999L232.88 99.59999L232.88 100.08L232.64 100.08z" stroke="none" fill="#000000" fill-rule="nonzero" /><path id="501" transform="matrix(1 0 0 -1 0 666)" d="M481.88 99.59999L482.12 99.59999L482.12 100.08L481.88 100.08z" stroke="none" fill="#000000" fill-rule="nonzero" /><path id="502" transform="matrix(1 0 0 -1 0 666)" d="M232.88 99.59999L481.88 99.59999L481.88 100.08L232.88 100.08z" stroke="none" fill="#000000" fill-rule="nonzero" /><path id="521" transform="matrix(1 0 0 -1 0 666)" d="M270.92 447.84L270.92 451.08L271.52 450.96L280.76 448.32L282.44 447.84L280.76 447.36L271.52 444.72L270.92 444.6L270.92 445.2L271.28 445.68L280.52 448.32L280.76 447.36L280.52 447.36L271.28 450L271.52 450.96L271.88 450.48L271.88 447.84" stroke="none" fill="#000000" fill-rule="nonzero" /><path id="522" transform="matrix(1 0 0 -1 0 666)" d="M270.92 445.2L270.92 447.84L271.88 447.84L271.88 445.2" stroke="none" fill="#000000" fill-rule="nonzero" /><path id="523" transform="matrix(1 0 0 -1 0 666)" d="M271.4 447.84L271.4 450.48L271.4 450.48L280.64 447.84L280.64 447.84L271.4 445.2" stroke="none" fill="#000000" fill-rule="evenodd" /><path id="524" transform="matrix(1 0 0 -1 0 666)" d="M129.92 447.6L130.16 447.6L130.16 448.08L129.92 448.08z" stroke="none" fill="#000000" fill-rule="nonzero" /><path id="525" transform="matrix(1 0 0 -1 0 666)" d="M270.92 447.6L271.16 447.6L271.16 448.08L270.92 448.08z" stroke="none" fill="#000000" fill-rule="nonzero" /><path id="526" transform="matrix(1 0 0 -1 0 666)" d="M130.16 447.6L270.92 447.6L270.92 448.08L130.16 448.08z" stroke="none" fill="#000000" fill-rule="nonzero" /><path id="527" transform="matrix(1 0 0 -1 0 666)" d="M281.72 453.12L284.72 453.12L284.72 454.56L281.72 454.56z" stroke="none" fill="#000000" fill-rule="nonzero" /><path id="528" transform="matrix(1 0 0 -1 0 666)" d="M281.72 421.68L284.72 421.68L284.72 423.12L281.72 423.12z" stroke="none" fill="#000000" fill-rule="nonzero" /><path id="529" transform="matrix(1 0 0 -1 0 666)" d="M281.72 423.12L284.72 423.12L284.72 453.12L281.72 453.12z" stroke="none" fill="#000000" fill-rule="nonzero" /><path id="564" transform="matrix(1 0 0 -1 0 666)" d="M353.72 288.84L356.72 288.84L356.72 290.28L353.72 290.28z" stroke="none" fill="#000000" fill-rule="nonzero" /><path id="565" transform="matrix(1 0 0 -1 0 666)" d="M353.72 275.4L356.72 275.4L356.72 276.84L353.72 276.84z" stroke="none" fill="#000000" fill-rule="nonzero" /><path id="566" transform="matrix(1 0 0 -1 0 666)" d="M353.72 276.84L356.72 276.84L356.72 288.84L353.72 288.84z" stroke="none" fill="#000000" fill-rule="nonzero" /><path id="567" transform="matrix(1 0 0 -1 0 666)" d="M354.44 371.4L357.44 371.4L357.44 372.84L354.44 372.84z" stroke="none" fill="#000000" fill-rule="nonzero" /><path id="568" transform="matrix(1 0 0 -1 0 666)" d="M354.44 357.96L357.44 357.96L357.44 359.4L354.44 359.4z" stroke="none" fill="#000000" fill-rule="nonzero" /><path id="569" transform="matrix(1 0 0 -1 0 666)" d="M354.44 359.4L357.44 359.4L357.44 371.4L354.44 371.4z" stroke="none" fill="#000000" fill-rule="nonzero" /><path id="570" transform="matrix(1 0 0 -1 0 666)" d="M493.28 324.84L496.28 324.84L496.28 326.28L493.28 326.28z" stroke="none" fill="#000000" fill-rule="nonzero" /><path id="571" transform="matrix(1 0 0 -1 0 666)" d="M493.28 311.4L496.28 311.4L496.28 312.84L493.28 312.84z" stroke="none" fill="#000000" fill-rule="nonzero" /><path id="572" transform="matrix(1 0 0 -1 0 666)" d="M493.28 312.84L496.28 312.84L496.28 324.84L493.28 324.84z" stroke="none" fill="#000000" fill-rule="nonzero" /><path id="573" transform="matrix(1 0 0 -1 0 666)" d="M428.24 238.2L431.24 238.2L431.24 239.64L428.24 239.64z" stroke="none" fill="#000000" fill-rule="nonzero" /><path id="574" transform="matrix(1 0 0 -1 0 666)" d="M428.24 224.76L431.24 224.76L431.24 226.2L428.24 226.2z" stroke="none" fill="#000000" fill-rule="nonzero" /><path id="575" transform="matrix(1 0 0 -1 0 666)" d="M428.24 226.2L431.24 226.2L431.24 238.2L428.24 238.2z" stroke="none" fill="#000000" fill-rule="nonzero" /><path id="576" transform="matrix(1 0 0 -1 0 666)" d="M428.6 211.56L431.6 211.56L431.6 213L428.6 213z" stroke="none" fill="#000000" fill-rule="nonzero" /><path id="577" transform="matrix(1 0 0 -1 0 666)" d="M428.6 198.12L431.6 198.12L431.6 199.56L428.6 199.56z" stroke="none" fill="#000000" fill-rule="nonzero" /><path id="578" transform="matrix(1 0 0 -1 0 666)" d="M428.6 199.56L431.6 199.56L431.6 211.56L428.6 211.56z" stroke="none" fill="#000000" fill-rule="nonzero" /><path id="579" transform="matrix(1 0 0 -1 0 666)" d="M493.28 407.4L496.28 407.4L496.28 408.84L493.28 408.84z" stroke="none" fill="#000000" fill-rule="nonzero" /><path id="580" transform="matrix(1 0 0 -1 0 666)" d="M493.28 393.96L496.28 393.96L496.28 395.4L493.28 395.4z" stroke="none" fill="#000000" fill-rule="nonzero" /><path id="581" transform="matrix(1 0 0 -1 0 666)" d="M493.28 395.4L496.28 395.4L496.28 407.4L493.28 407.4z" stroke="none" fill="#000000" fill-rule="nonzero" /><path id="582" transform="matrix(1 0 0 -1 0 666)" d="M428 425.4L431 425.4L431 426.84L428 426.84z" stroke="none" fill="#000000" fill-rule="nonzero" /><path id="583" transform="matrix(1 0 0 -1 0 666)" d="M428 411.96L431 411.96L431 413.4L428 413.4z" stroke="none" fill="#000000" fill-rule="nonzero" /><path id="584" transform="matrix(1 0 0 -1 0 666)" d="M428 413.4L431 413.4L431 425.4L428 425.4z" stroke="none" fill="#000000" fill-rule="nonzero" /><path id="585" transform="matrix(1 0 0 -1 0 666)" d="M281.72 488.4L284.72 488.4L284.72 489.84L281.72 489.84z" stroke="none" fill="#000000" fill-rule="nonzero" /><path id="586" transform="matrix(1 0 0 -1 0 666)" d="M281.72 474.96L284.72 474.96L284.72 476.4L281.72 476.4z" stroke="none" fill="#000000" fill-rule="nonzero" /><path id="587" transform="matrix(1 0 0 -1 0 666)" d="M281.72 476.4L284.72 476.4L284.72 488.4L281.72 488.4z" stroke="none" fill="#000000" fill-rule="nonzero" /><path id="653" transform="matrix(1 0 0 -1 0 666)" d="M231.44 515.64L231.44 511.68" stroke="#000000" stroke-width="0.12" fill="none" /><path id="654" transform="matrix(1 0 0 -1 0 666)" d="M231.44 505.68L231.44 497.76" stroke="#000000" stroke-width="0.12" fill="none" /><path id="655" transform="matrix(1 0 0 -1 0 666)" d="M231.44 491.76L231.44 483.84" stroke="#000000" stroke-width="0.12" fill="none" /><path id="656" transform="matrix(1 0 0 -1 0 666)" d="M231.44 477.84L231.44 470.04" stroke="#000000" stroke-width="0.12" fill="none" /><path id="657" transform="matrix(1 0 0 -1 0 666)" d="M231.44 463.92L231.44 456.12" stroke="#000000" stroke-width="0.12" fill="none" /><path id="658" transform="matrix(1 0 0 -1 0 666)" d="M231.44 450L231.44 442.2" stroke="#000000" stroke-width="0.12" fill="none" /><path id="659" transform="matrix(1 0 0 -1 0 666)" d="M231.44 436.08L231.44 428.28" stroke="#000000" stroke-width="0.12" fill="none" /><path id="660" transform="matrix(1 0 0 -1 0 666)" d="M231.44 422.28L231.44 414.36" stroke="#000000" stroke-width="0.12" fill="none" /><path id="661" transform="matrix(1 0 0 -1 0 666)" d="M231.44 408.36L231.44 400.44" stroke="#000000" stroke-width="0.12" fill="none" /><path id="662" transform="matrix(1 0 0 -1 0 666)" d="M231.44 394.44L231.44 386.52" stroke="#000000" stroke-width="0.12" fill="none" /><path id="663" transform="matrix(1 0 0 -1 0 666)" d="M231.44 380.52L231.44 372.72" stroke="#000000" stroke-width="0.12" fill="none" /><path id="664" transform="matrix(1 0 0 -1 0 666)" d="M231.44 366.6L231.44 358.8" stroke="#000000" stroke-width="0.12" fill="none" /><path id="665" transform="matrix(1 0 0 -1 0 666)" d="M231.44 352.68L231.44 344.88" stroke="#000000" stroke-width="0.12" fill="none" /><path id="666" transform="matrix(1 0 0 -1 0 666)" d="M231.44 338.76L231.44 330.96" stroke="#000000" stroke-width="0.12" fill="none" /><path id="667" transform="matrix(1 0 0 -1 0 666)" d="M231.44 324.96L231.44 317.04" stroke="#000000" stroke-width="0.12" fill="none" /><path id="668" transform="matrix(1 0 0 -1 0 666)" d="M231.44 311.04L231.44 303.12" stroke="#000000" stroke-width="0.12" fill="none" /><path id="669" transform="matrix(1 0 0 -1 0 666)" d="M231.44 297.12L231.44 289.32" stroke="#000000" stroke-width="0.12" fill="none" /><path id="670" transform="matrix(1 0 0 -1 0 666)" d="M231.44 283.2L231.44 275.4" stroke="#000000" stroke-width="0.12" fill="none" /><path id="671" transform="matrix(1 0 0 -1 0 666)" d="M231.44 269.28L231.44 261.48" stroke="#000000" stroke-width="0.12" fill="none" /><path id="672" transform="matrix(1 0 0 -1 0 666)" d="M231.44 255.36L231.44 247.56" stroke="#000000" stroke-width="0.12" fill="none" /><path id="673" transform="matrix(1 0 0 -1 0 666)" d="M231.44 241.44L231.44 233.64" stroke="#000000" stroke-width="0.12" fill="none" /><path id="674" transform="matrix(1 0 0 -1 0 666)" d="M231.44 227.64L231.44 219.72" stroke="#000000" stroke-width="0.12" fill="none" /><path id="675" transform="matrix(1 0 0 -1 0 666)" d="M231.44 213.72L231.44 205.8" stroke="#000000" stroke-width="0.12" fill="none" /><path id="676" transform="matrix(1 0 0 -1 0 666)" d="M231.44 199.8L231.44 192" stroke="#000000" stroke-width="0.12" fill="none" /><path id="677" transform="matrix(1 0 0 -1 0 666)" d="M231.44 185.88L231.44 178.08" stroke="#000000" stroke-width="0.12" fill="none" /><path id="678" transform="matrix(1 0 0 -1 0 666)" d="M231.44 171.96L231.44 164.16" stroke="#000000" stroke-width="0.12" fill="none" /><path id="679" transform="matrix(1 0 0 -1 0 666)" d="M231.44 158.04L231.44 150.24" stroke="#000000" stroke-width="0.12" fill="none" /><path id="680" transform="matrix(1 0 0 -1 0 666)" d="M231.44 144.24L231.44 136.32" stroke="#000000" stroke-width="0.12" fill="none" /><path id="681" transform="matrix(1 0 0 -1 0 666)" d="M231.44 130.32L231.44 122.4" stroke="#000000" stroke-width="0.12" fill="none" /><path id="682" transform="matrix(1 0 0 -1 0 666)" d="M231.44 116.4L231.44 108.6" stroke="#000000" stroke-width="0.12" fill="none" /><path id="683" transform="matrix(1 0 0 -1 0 666)" d="M231.44 102.48L231.44 94.67999" stroke="#000000" stroke-width="0.12" fill="none" /><path id="684" transform="matrix(1 0 0 -1 0 666)" d="M231.44 88.56L231.44 84.59999" stroke="#000000" stroke-width="0.12" fill="none" /><path id="685" transform="matrix(1 0 0 -1 0 666)" d="M219.56 336.84L219.56 340.08L220.16 339.96L229.4 337.32L231.08 336.84L229.4 336.36L220.16 333.72L219.56 333.6L219.56 334.2L219.92 334.68L229.16 337.32L229.4 336.36L229.16 336.36L219.92 339L220.16 339.96L220.52 339.48L220.52 336.84" stroke="none" fill="#000000" fill-rule="nonzero" /><path id="686" transform="matrix(1 0 0 -1 0 666)" d="M219.56 334.2L219.56 336.84L220.52 336.84L220.52 334.2" stroke="none" fill="#000000" fill-rule="nonzero" /><path id="687" transform="matrix(1 0 0 -1 0 666)" d="M220.04 336.84L220.04 339.48L220.04 339.48L229.28 336.84L229.28 336.84L220.04 334.2" stroke="none" fill="#000000" fill-rule="evenodd" /><path id="688" transform="matrix(1 0 0 -1 0 666)" d="M128.48 336.6L128.72 336.6L128.72 337.08L128.48 337.08z" stroke="none" fill="#000000" fill-rule="nonzero" /><path id="689" transform="matrix(1 0 0 -1 0 666)" d="M219.56 336.6L219.8 336.6L219.8 337.08L219.56 337.08z" stroke="none" fill="#000000" fill-rule="nonzero" /><path id="690" transform="matrix(1 0 0 -1 0 666)" d="M128.72 336.6L219.56 336.6L219.56 337.08L128.72 337.08z" stroke="none" fill="#000000" fill-rule="nonzero" /><path id="691" transform="matrix(1 0 0 -1 0 666)" d="M230 345.84L233 345.84L233 347.28L230 347.28z" stroke="none" fill="#000000" fill-rule="nonzero" /><path id="692" transform="matrix(1 0 0 -1 0 666)" d="M230 309.96L233 309.96L233 311.4L230 311.4z" stroke="none" fill="#000000" fill-rule="nonzero" /><path id="693" transform="matrix(1 0 0 -1 0 666)" d="M230 311.4L233 311.4L233 345.84L230 345.84z" stroke="none" fill="#000000" fill-rule="nonzero" /><path id="708" transform="matrix(1 0 0 -1 0 666)" d="M217.88 167.4L217.88 170.64L218.48 170.52L227.72 167.88L229.4 167.4L227.72 166.92L218.48 164.28L217.88 164.16L217.88 164.76L218.24 165.24L227.48 167.88L227.72 166.92L227.48 166.92L218.24 169.56L218.48 170.52L218.84 170.04L218.84 167.4" stroke="none" fill="#000000" fill-rule="nonzero" /><path id="709" transform="matrix(1 0 0 -1 0 666)" d="M217.88 164.76L217.88 167.4L218.84 167.4L218.84 164.76" stroke="none" fill="#000000" fill-rule="nonzero" /><path id="710" transform="matrix(1 0 0 -1 0 666)" d="M218.36 167.4L218.36 170.04L218.36 170.04L227.6 167.4L227.6 167.4L218.36 164.76" stroke="none" fill="#000000" fill-rule="evenodd" /><path id="711" transform="matrix(1 0 0 -1 0 666)" d="M130.52 167.16L130.76 167.16L130.76 167.64L130.52 167.64z" stroke="none" fill="#000000" fill-rule="nonzero" /><path id="712" transform="matrix(1 0 0 -1 0 666)" d="M217.88 167.16L218.12 167.16L218.12 167.64L217.88 167.64z" stroke="none" fill="#000000" fill-rule="nonzero" /><path id="713" transform="matrix(1 0 0 -1 0 666)" d="M130.76 167.16L217.88 167.16L217.88 167.64L130.76 167.64z" stroke="none" fill="#000000" fill-rule="nonzero" /><path id="714" transform="matrix(1 0 0 -1 0 666)" d="M232.28 175.56L232.28 177L229.28 177.12L229.28 175.68" stroke="none" fill="#000000" fill-rule="nonzero" /><path id="715" transform="matrix(1 0 0 -1 0 666)" d="M231.44 146.28L231.44 144.84L228.44 144.96L228.44 146.4" stroke="none" fill="#000000" fill-rule="nonzero" /><path id="716" transform="matrix(1 0 0 -1 0 666)" d="M232.28 175.56L229.28 175.68L228.44 146.4L231.44 146.28" stroke="none" fill="#000000" fill-rule="nonzero" /><path id="731" transform="matrix(1 0 0 -1 0 666)" d="M219.32 126.12L219.32 129.36L219.92 129.24L229.16 126.6L230.84 126.12L229.16 125.64L219.92 123L219.32 122.88L219.32 123.48L219.68 123.96L228.92 126.6L229.16 125.64L228.92 125.64L219.68 128.28L219.92 129.24L220.28 128.76L220.28 126.12" stroke="none" fill="#000000" fill-rule="nonzero" /><path id="732" transform="matrix(1 0 0 -1 0 666)" d="M219.32 123.48L219.32 126.12L220.28 126.12L220.28 123.48" stroke="none" fill="#000000" fill-rule="nonzero" /><path id="733" transform="matrix(1 0 0 -1 0 666)" d="M219.8 126.12L219.8 128.76L219.8 128.76L229.04 126.12L229.04 126.12L219.8 123.48" stroke="none" fill="#000000" fill-rule="evenodd" /><path id="734" transform="matrix(1 0 0 -1 0 666)" d="M128.24 125.88L128.48 125.88L128.48 126.36L128.24 126.36z" stroke="none" fill="#000000" fill-rule="nonzero" /><path id="735" transform="matrix(1 0 0 -1 0 666)" d="M219.32 125.88L219.56 125.88L219.56 126.36L219.32 126.36z" stroke="none" fill="#000000" fill-rule="nonzero" /><path id="736" transform="matrix(1 0 0 -1 0 666)" d="M128.48 125.88L219.32 125.88L219.32 126.36L128.48 126.36z" stroke="none" fill="#000000" fill-rule="nonzero" /><path id="737" transform="matrix(1 0 0 -1 0 666)" d="M230.36 129.48L233.36 129.48L233.36 130.92L230.36 130.92z" stroke="none" fill="#000000" fill-rule="nonzero" /><path id="738" transform="matrix(1 0 0 -1 0 666)" d="M230.36 92.39999L233.36 92.39999L233.36 93.84L230.36 93.84z" stroke="none" fill="#000000" fill-rule="nonzero" /><path id="739" transform="matrix(1 0 0 -1 0 666)" d="M230.36 93.84L233.36 93.84L233.36 129.48L230.36 129.48z" stroke="none" fill="#000000" fill-rule="nonzero" /><path id="761" transform="matrix(1 0 0 -1 0 666)" d="M219.92 515.88L219.92 519.12L220.52 519L229.76 516.36L231.44 515.88L229.76 515.4L220.52 512.76L219.92 512.64L219.92 513.24L220.28 513.72L229.52 516.36L229.76 515.4L229.52 515.4L220.28 518.04L220.52 519L220.88 518.52L220.88 515.88" stroke="none" fill="#000000" fill-rule="nonzero" /><path id="762" transform="matrix(1 0 0 -1 0 666)" d="M219.92 513.24L219.92 515.88L220.88 515.88L220.88 513.24" stroke="none" fill="#000000" fill-rule="nonzero" /><path id="763" transform="matrix(1 0 0 -1 0 666)" d="M220.4 515.88L220.4 518.52L220.4 518.52L229.64 515.88L229.64 515.88L220.4 513.24" stroke="none" fill="#000000" fill-rule="evenodd" /><path id="764" transform="matrix(1 0 0 -1 0 666)" d="M131.48 515.64L131.72 515.64L131.72 516.12L131.48 516.12z" stroke="none" fill="#000000" fill-rule="nonzero" /><path id="765" transform="matrix(1 0 0 -1 0 666)" d="M219.92 515.64L220.16 515.64L220.16 516.12L219.92 516.12z" stroke="none" fill="#000000" fill-rule="nonzero" /><path id="766" transform="matrix(1 0 0 -1 0 666)" d="M131.72 515.64L219.92 515.64L219.92 516.12L131.72 516.12z" stroke="none" fill="#000000" fill-rule="nonzero" /><path id="767" transform="matrix(1 0 0 -1 0 666)" d="M229.28 523.44L232.28 523.44L232.28 524.88L229.28 524.88z" stroke="none" fill="#000000" fill-rule="nonzero" /><path id="768" transform="matrix(1 0 0 -1 0 666)" d="M229.28 510L232.28 510L232.28 511.44L229.28 511.44z" stroke="none" fill="#000000" fill-rule="nonzero" /><path id="769" transform="matrix(1 0 0 -1 0 666)" d="M229.28 511.44L232.28 511.44L232.28 523.44L229.28 523.44z" stroke="none" fill="#000000" fill-rule="nonzero" /></g></g></g></svg>