<svg xmlns="http://www.w3.org/2000/svg" xmlns:xlink="http://www.w3.org/1999/xlink" id="body_7" preserveAspectRatio="xMinYMin meet" viewBox="0 0 709 888"><defs><clipPath id="1"><path id="" clip-rule="evenodd" transform="matrix(1 0 0 1 0 0)" d="M0 666L0 0L0 0L532 0L532 0L532 666L532 666L0 666z" /></clipPath><clipPath id="2"><path id="" clip-rule="evenodd" transform="matrix(1 0 0 1 0 0)" d="M47.71951 228L457.28 228L457.28 228L457.28 534L457.28 534L47.71951 534z" /></clipPath></defs><g transform="matrix(1.333333 0 0 1.333333 0 0)"><g clip-path="url(#1)"><g clip-path="url(#2)"><path id="850" transform="matrix(1 0 0 -1 0 666)" d="M152.72 145.44L416 145.44L416 252.7195L152.72 252.7195z" stroke="none" fill="#FFFFFF" fill-rule="nonzero" /><path id="851" transform="matrix(1 0 0 -1 0 666)" d="M152.72 252.48L416.24 252.48L416.24 252.96L152.72 252.96z" stroke="none" fill="#0000FF" fill-rule="nonzero" /><path id="852" transform="matrix(1 0 0 -1 0 666)" d="M415.76 145.2L416.24 145.2L416.24 252.72L415.76 252.72z" stroke="none" fill="#0000FF" fill-rule="nonzero" /><path id="853" transform="matrix(1 0 0 -1 0 666)" d="M152.48 145.2L416 145.2L416 145.68L152.48 145.68z" stroke="none" fill="#0000FF" fill-rule="nonzero" /><path id="854" transform="matrix(1 0 0 -1 0 666)" d="M152.48 145.44L152.96 145.44L152.96 252.96L152.48 252.96z" stroke="none" fill="#0000FF" fill-rule="nonzero" /><path id="855" transform="matrix(1 0 0 -1 0 666)" d="M152.48 180.48L152.72 180.48L152.72 180.96L152.48 180.96z" stroke="none" fill="#0000FF" fill-rule="nonzero" /><path id="856" transform="matrix(1 0 0 -1 0 666)" d="M416 180.48L416.24 180.48L416.24 180.96L416 180.96z" stroke="none" fill="#0000FF" fill-rule="nonzero" /><path id="857" transform="matrix(1 0 0 -1 0 666)" d="M152.72 180.48L416 180.48L416 180.96L152.72 180.96z" stroke="none" fill="#0000FF" fill-rule="nonzero" /><path id="858" transform="matrix(1 0 0 -1 0 666)" d="M200.72 239.76L197.12 239.4L197.24 239.4L193.88 238.32L190.76 236.64L190.88 236.64L188.24 234.48L186.08 231.84L186.08 231.96L184.4 228.84L183.32 225.48L183.32 225.6L182.96 222L182.96 208.44L183.32 204.84L184.4 201.48L184.4 201.6L186.08 198.6L188.24 195.84L190.88 193.68L190.76 193.8L193.88 192.12L197.24 191.04L197.12 191.04L200.72 190.68L273.92 190.68L347 190.68L350.6 191.04L353.96 192.12L353.84 192.12L356.96 193.8L356.96 193.68L359.6 195.84L361.76 198.6L363.44 201.6L363.32 201.48L364.4 204.84L364.76 208.44L364.76 222L364.4 225.6L364.4 225.48L363.32 228.84L361.64 231.96L361.76 231.84L359.6 234.48L356.96 236.64L353.84 238.32L353.96 238.32L350.6 239.4L347 239.76L273.92 239.76L200.72 239.76L200.72 240.24L273.92 240.24L347 240.24L350.6 239.88L350.72 239.88L354.08 238.8L357.2 237.12L357.32 237L359.96 234.84L362.12 232.2L363.8 229.08L363.8 228.96L364.88 225.6L365.24 222L365.24 208.44L364.88 204.84L364.88 204.72L363.8 201.36L362.12 198.36L359.96 195.6L359.96 195.48L357.32 193.32L357.2 193.32L354.08 191.64L350.72 190.56L350.6 190.56L347 190.2L273.92 190.2L200.72 190.2L197.12 190.56L193.76 191.64L193.64 191.64L190.52 193.32L187.88 195.48L187.88 195.6L185.72 198.36L184.04 201.36L183.92 201.36L182.84 204.72L182.84 204.84L182.48 208.44L182.48 222L182.84 225.6L183.92 228.96L183.92 229.08L185.6 232.2L185.72 232.2L187.88 234.84L190.52 237L190.52 237.12L193.64 238.8L193.76 238.8L197.12 239.88L200.72 240.24" stroke="none" fill="#000000" fill-rule="nonzero" /><path id="859" transform="matrix(1 0 0 -1 0 666)" d="M200.72 239.76L200.72 240.24" stroke="none" fill="#000000" fill-rule="nonzero" /><path id="860" transform="matrix(1 0 0 -1 0 666)" d="M214.04 232.68L211.4 232.32L208.88 231.6L206.6 230.4L206.72 230.4L204.8 228.84L204.8 228.96L203.24 226.92L202.04 224.76L201.2 222.24L201.2 222.36L200.96 219.72L201.2 217.08L202.04 214.68L202.04 214.8L203.24 212.52L204.8 210.6L206.72 209.04L206.6 209.04L208.88 207.72L208.88 207.84L211.4 207.12L211.28 207.12L213.92 206.88L232.64 206.88L251.36 206.88L254 207.12L256.52 207.84L256.4 207.72L258.56 209.04L260.48 210.6L262.16 212.52L262.04 212.52L263.24 214.8L263.24 214.68L263.96 217.08L264.2 219.72L263.96 222.36L263.96 222.24L263.24 224.76L263.36 224.76L262.16 226.92L262.16 226.8L260.48 228.84L258.56 230.4L256.4 231.6L256.52 231.6L254 232.32L251.36 232.68L232.64 232.68L213.92 232.68L213.92 233.16L232.64 233.16L251.36 233.16L251.48 233.16L254.12 232.8L256.64 232.08L256.64 231.96L258.8 230.76L258.92 230.76L260.84 229.2L262.52 227.16L263.72 225L263.72 224.88L264.44 222.36L264.68 219.72L264.44 217.08L264.44 216.96L263.72 214.56L262.52 212.28L262.52 212.16L260.84 210.24L258.92 208.68L258.8 208.68L256.64 207.36L254.12 206.64L254 206.64L251.36 206.4L232.64 206.4L213.92 206.4L211.28 206.64L208.76 207.36L208.64 207.36L206.36 208.68L204.44 210.24L202.88 212.16L202.76 212.28L201.56 214.56L200.72 216.96L200.72 217.08L200.48 219.72L200.72 222.36L201.56 224.88L201.68 225L202.88 227.16L204.44 229.2L206.36 230.76L206.36 230.88L208.64 232.08L208.76 232.08L211.28 232.8L213.92 233.16" stroke="none" fill="#000000" fill-rule="nonzero" /><path id="861" transform="matrix(1 0 0 -1 0 666)" d="M213.92 232.68L214.04 232.68L213.92 233.16" stroke="none" fill="#000000" fill-rule="nonzero" /><path id="872" transform="matrix(1 0 0 -1 0 666)" d="M270.56 249.96L273.8 249.96L273.68 249.36L271.04 240.24L270.56 238.68L270.08 240.24L267.32 249.36L267.08 249.96L267.8 249.96L268.28 249.6L271.04 240.48L270.08 240.24L270.08 240.48L272.72 249.6L273.68 249.36L273.2 249L270.56 249" stroke="none" fill="#000000" fill-rule="nonzero" /><path id="873" transform="matrix(1 0 0 -1 0 666)" d="M267.8 249.96L270.56 249.96L270.56 249L267.8 249" stroke="none" fill="#000000" fill-rule="nonzero" /><path id="874" transform="matrix(1 0 0 -1 0 666)" d="M270.56 249.48L273.2 249.48L273.2 249.48L270.56 240.36L270.56 240.36L267.8 249.48" stroke="none" fill="#000000" fill-rule="evenodd" /><path id="875" transform="matrix(1 0 0 -1 0 666)" d="M270.32 291L270.8 291L270.8 291.24L270.32 291.24z" stroke="none" fill="#000000" fill-rule="nonzero" /><path id="876" transform="matrix(1 0 0 -1 0 666)" d="M270.32 249.84L270.8 249.84L270.8 250.08L270.32 250.08z" stroke="none" fill="#000000" fill-rule="nonzero" /><path id="877" transform="matrix(1 0 0 -1 0 666)" d="M270.32 250.08L270.8 250.08L270.8 291L270.32 291z" stroke="none" fill="#000000" fill-rule="nonzero" /><path id="878" transform="matrix(1 0 0 -1 0 666)" d="M300.56 233.4L297.8 233.16L297.92 233.16L295.52 232.32L293.24 231.12L293.36 231.12L291.44 229.56L289.88 227.64L289.88 227.76L288.68 225.48L287.84 223.08L287.84 223.2L287.6 220.44L287.84 217.8L288.68 215.4L288.68 215.52L289.88 213.24L291.44 211.32L293.36 209.76L293.24 209.88L295.52 208.68L297.92 207.84L297.8 207.84L300.56 207.6L319.28 207.6L338 207.6L340.64 207.84L343.16 208.68L343.04 208.56L345.2 209.76L347.12 211.32L348.8 213.24L348.68 213.24L349.88 215.52L349.88 215.4L350.6 217.8L350.84 220.44L350.6 223.2L350.6 223.08L349.88 225.48L348.68 227.76L348.8 227.64L347.12 229.56L345.2 231.12L343.04 232.32L343.16 232.32L340.64 233.16L338 233.4L319.28 233.4L300.56 233.4L300.56 233.88L319.28 233.88L338 233.88L340.64 233.64L340.76 233.64L343.28 232.8L343.28 232.68L345.44 231.48L345.56 231.48L347.48 229.92L349.16 228L350.36 225.72L350.36 225.6L351.08 223.2L351.32 220.44L351.08 217.8L351.08 217.68L350.36 215.28L349.16 213L349.16 212.88L347.48 210.96L345.56 209.4L345.44 209.4L343.28 208.2L340.76 207.36L340.64 207.36L338 207.12L319.28 207.12L300.56 207.12L297.8 207.36L295.4 208.2L295.28 208.2L293 209.4L291.08 210.96L289.52 212.88L289.4 213L288.2 215.28L287.36 217.68L287.36 217.8L287.12 220.44L287.36 223.2L288.2 225.6L288.2 225.72L289.4 228L289.52 228L291.08 229.92L293 231.48L293 231.6L295.28 232.8L295.4 232.8L297.8 233.64L300.56 233.88" stroke="none" fill="#000000" fill-rule="nonzero" /><path id="879" transform="matrix(1 0 0 -1 0 666)" d="M300.56 233.4L300.56 233.88" stroke="none" fill="#000000" fill-rule="nonzero" /><path id="890" transform="matrix(1 0 0 -1 0 666)" d="M259.64 312.48L257.6 312.36L257.72 312.36L255.8 311.76L254.12 310.8L252.56 309.6L252.68 309.72L251.48 308.16L250.52 306.48L249.92 304.56L249.92 304.68L249.8 302.64L249.92 300.6L250.52 298.68L250.52 298.8L251.48 297.12L252.68 295.56L252.56 295.56L254.12 294.36L255.8 293.4L255.8 293.52L257.72 292.92L257.6 292.92L259.64 292.68L272 292.68L284.36 292.68L286.4 292.92L288.32 293.52L288.2 293.4L289.88 294.36L291.44 295.56L292.64 297.12L293.6 298.8L293.48 298.68L294.08 300.6L294.32 302.64L294.08 304.68L294.08 304.56L293.48 306.48L293.6 306.48L292.64 308.16L291.44 309.72L291.44 309.6L289.88 310.8L288.2 311.76L288.32 311.76L286.4 312.36L284.36 312.48L272 312.48L259.64 312.48L259.64 312.96L272 312.96L284.36 312.96L286.4 312.84L286.52 312.84L288.44 312.24L288.44 312.12L290.12 311.16L291.68 309.96L291.8 309.96L293 308.4L293.96 306.72L293.96 306.6L294.56 304.68L294.8 302.64L294.56 300.6L294.56 300.48L293.96 298.56L293 296.88L291.8 295.32L291.68 295.2L290.12 294L288.44 293.04L286.52 292.44L286.4 292.44L284.36 292.2L272 292.2L259.64 292.2L257.6 292.44L255.68 293.04L255.56 293.04L253.88 294L252.32 295.2L252.32 295.32L251.12 296.88L250.16 298.56L250.04 298.56L249.44 300.48L249.44 300.6L249.32 302.64L249.44 304.68L250.04 306.6L250.16 306.72L251.12 308.4L252.32 309.96L253.88 311.16L255.56 312.12L255.68 312.24L257.6 312.84L259.64 312.96" stroke="none" fill="#000000" fill-rule="nonzero" /><path id="891" transform="matrix(1 0 0 -1 0 666)" d="M259.64 312.48L259.64 312.96" stroke="none" fill="#000000" fill-rule="nonzero" /><path id="899" transform="matrix(1 0 0 -1 0 666)" d="M364.64 321.12L362.6 320.88L362.72 320.88L360.8 320.4L359.12 319.44L359.24 319.44L357.68 318.12L356.48 316.68L356.48 316.8L355.52 315.12L354.92 313.2L354.92 313.32L354.8 311.28L354.92 309.24L355.52 307.32L355.52 307.44L356.48 305.76L357.68 304.2L357.56 304.2L359.12 303L360.8 302.04L360.8 302.16L362.72 301.56L362.6 301.56L364.64 301.32L377 301.32L389.36 301.32L391.4 301.56L393.32 302.16L393.2 302.04L394.88 303L396.44 304.2L397.64 305.76L398.6 307.44L398.48 307.32L399.08 309.24L399.32 311.28L399.08 313.32L399.08 313.2L398.48 315.12L398.6 315.12L397.64 316.8L397.64 316.68L396.44 318.12L394.88 319.44L393.2 320.4L393.32 320.4L391.4 320.88L389.36 321.12L377 321.12L364.64 321.12L364.64 321.6L377 321.6L389.36 321.6L391.4 321.36L391.52 321.36L393.44 320.88L393.44 320.76L395.12 319.8L395.24 319.8L396.8 318.48L398 317.04L398.96 315.36L398.96 315.24L399.56 313.32L399.8 311.28L399.56 309.24L399.56 309.12L398.96 307.2L398 305.52L396.8 303.96L396.68 303.84L395.12 302.64L393.44 301.68L391.52 301.08L391.4 301.08L389.36 300.84L377 300.84L364.64 300.84L362.6 301.08L360.68 301.68L360.56 301.68L358.88 302.64L357.32 303.84L357.32 303.96L356.12 305.52L355.16 307.2L355.04 307.2L354.44 309.12L354.44 309.24L354.32 311.28L354.44 313.32L355.04 315.24L355.16 315.36L356.12 317.04L357.32 318.48L358.88 319.8L360.56 320.76L360.68 320.88L362.6 321.36L364.64 321.6" stroke="none" fill="#000000" fill-rule="nonzero" /><path id="900" transform="matrix(1 0 0 -1 0 666)" d="M364.64 321.12L364.64 321.6" stroke="none" fill="#000000" fill-rule="nonzero" /><path id="908" transform="matrix(1 0 0 -1 0 666)" d="M165.92 321.12L163.88 320.88L164 320.88L162.08 320.4L160.28 319.44L160.4 319.44L158.96 318.12L157.76 316.68L157.76 316.8L156.8 315.12L156.2 313.2L156.2 313.32L155.96 311.28L156.2 309.24L156.8 307.32L156.8 307.44L157.76 305.76L158.96 304.2L160.4 303L160.28 303.12L162.08 302.16L164 301.56L163.88 301.56L165.92 301.32L178.28 301.32L190.64 301.32L192.68 301.56L194.6 302.16L194.48 302.04L196.16 303L197.72 304.2L198.92 305.76L199.88 307.44L199.76 307.32L200.36 309.24L200.48 311.28L200.36 313.32L200.36 313.2L199.76 315.12L199.88 315.12L198.92 316.8L198.92 316.68L197.72 318.12L196.16 319.44L194.48 320.4L194.6 320.4L192.68 320.88L190.64 321.12L178.28 321.12L165.92 321.12L165.92 321.6L178.28 321.6L190.64 321.6L192.68 321.36L192.8 321.36L194.72 320.88L194.72 320.76L196.4 319.8L196.52 319.8L198.08 318.48L199.28 317.04L200.24 315.36L200.24 315.24L200.84 313.32L200.96 311.28L200.84 309.24L200.84 309.12L200.24 307.2L199.28 305.52L198.08 303.96L197.96 303.84L196.4 302.64L194.72 301.68L192.8 301.08L192.68 301.08L190.64 300.84L178.28 300.84L165.92 300.84L163.88 301.08L161.96 301.68L161.84 301.68L160.04 302.64L158.6 303.84L158.6 303.96L157.4 305.52L156.44 307.2L156.32 307.2L155.72 309.12L155.72 309.24L155.48 311.28L155.72 313.32L156.32 315.24L156.44 315.36L157.4 317.04L158.6 318.48L160.04 319.8L160.04 319.92L161.84 320.88L161.96 320.88L163.88 321.36L165.92 321.6" stroke="none" fill="#000000" fill-rule="nonzero" /><path id="909" transform="matrix(1 0 0 -1 0 666)" d="M165.92 321.12L165.92 321.6" stroke="none" fill="#000000" fill-rule="nonzero" /><path id="917" transform="matrix(1 0 0 -1 0 666)" d="M133.28 338.04L431.96 338.04L431.96 338.52L133.28 338.52z" stroke="none" fill="#FF0000" fill-rule="nonzero" /><path id="918" transform="matrix(1 0 0 -1 0 666)" d="M431.48 262.2L431.96 262.2L431.96 338.28L431.48 338.28z" stroke="none" fill="#FF0000" fill-rule="nonzero" /><path id="919" transform="matrix(1 0 0 -1 0 666)" d="M133.04 262.2L431.72 262.2L431.72 262.68L133.04 262.68z" stroke="none" fill="#FF0000" fill-rule="nonzero" /><path id="920" transform="matrix(1 0 0 -1 0 666)" d="M133.04 262.44L133.52 262.44L133.52 338.52L133.04 338.52z" stroke="none" fill="#FF0000" fill-rule="nonzero" /><path id="921" transform="matrix(1 0 0 -1 0 666)" d="M138.44 428.76L227.96 428.76L227.96 429.24L138.44 429.24z" stroke="none" fill="#9A78E0" fill-rule="nonzero" /><path id="922" transform="matrix(1 0 0 -1 0 666)" d="M227.48 379.32L227.96 379.32L227.96 429L227.48 429z" stroke="none" fill="#9A78E0" fill-rule="nonzero" /><path id="923" transform="matrix(1 0 0 -1 0 666)" d="M138.2 379.32L227.72 379.32L227.72 379.8L138.2 379.8z" stroke="none" fill="#9A78E0" fill-rule="nonzero" /><path id="924" transform="matrix(1 0 0 -1 0 666)" d="M138.2 379.56L138.68 379.56L138.68 429.24L138.2 429.24z" stroke="none" fill="#9A78E0" fill-rule="nonzero" /><path id="925" transform="matrix(1 0 0 -1 0 666)" d="M336.56 426.48L425.96 426.48L425.96 426.96L336.56 426.96z" stroke="none" fill="#000000" fill-rule="nonzero" /><path id="926" transform="matrix(1 0 0 -1 0 666)" d="M425.48 378.48L425.96 378.48L425.96 426.72L425.48 426.72z" stroke="none" fill="#000000" fill-rule="nonzero" /><path id="927" transform="matrix(1 0 0 -1 0 666)" d="M336.32 378.48L425.72 378.48L425.72 378.96L336.32 378.96z" stroke="none" fill="#000000" fill-rule="nonzero" /><path id="928" transform="matrix(1 0 0 -1 0 666)" d="M336.32 378.72L336.8 378.72L336.8 426.96L336.32 426.96z" stroke="none" fill="#000000" fill-rule="nonzero" /><path id="953" transform="matrix(1 0 0 -1 0 666)" d="M337.52 244.2L339.92 242.88L340.4 242.52L340.04 242.04L333.2 235.2L332 234L332.36 235.68L334.52 245.04L334.76 245.64L335.24 245.4L335.48 244.8L333.32 235.44L332.36 235.68L332.48 235.92L339.32 242.76L340.04 242.04L339.44 241.92L337.04 243.24" stroke="none" fill="#000000" fill-rule="nonzero" /><path id="954" transform="matrix(1 0 0 -1 0 666)" d="M335.24 245.4L337.52 244.2L337.04 243.24L334.76 244.44" stroke="none" fill="#000000" fill-rule="nonzero" /><path id="955" transform="matrix(1 0 0 -1 0 666)" d="M337.28 243.72L339.68 242.4L339.68 242.4L332.84 235.56L332.84 235.56L335 244.92" stroke="none" fill="#000000" fill-rule="evenodd" /><path id="956" transform="matrix(1 0 0 -1 0 666)" d="M337.28 244.2L337.16 243.96L337.64 243.72L337.76 243.96" stroke="none" fill="#000000" fill-rule="nonzero" /><path id="957" transform="matrix(1 0 0 -1 0 666)" d="M368.48 300.84L368.6 301.08L369.08 300.84L368.96 300.6" stroke="none" fill="#000000" fill-rule="nonzero" /><path id="958" transform="matrix(1 0 0 -1 0 666)" d="M337.28 244.2L337.76 243.96L368.96 300.6L368.48 300.84" stroke="none" fill="#000000" fill-rule="nonzero" /><path id="959" transform="matrix(1 0 0 -1 0 666)" d="M226.04 244.2L228.32 245.4L228.92 245.4L229.04 245.04L231.08 235.68L231.44 234L230.24 235.2L223.52 242.04L223.16 242.52L223.64 242.88L224.24 242.76L230.96 235.92L230.24 235.2L230.12 235.44L228.08 244.8L229.04 245.04L228.8 244.44L226.52 243.24" stroke="none" fill="#000000" fill-rule="nonzero" /><path id="960" transform="matrix(1 0 0 -1 0 666)" d="M223.64 242.88L226.04 244.2L226.52 243.24L224.12 241.92" stroke="none" fill="#000000" fill-rule="nonzero" /><path id="961" transform="matrix(1 0 0 -1 0 666)" d="M226.28 243.72L228.56 244.92L228.56 244.92L230.6 235.56L230.6 235.56L223.88 242.4" stroke="none" fill="#000000" fill-rule="evenodd" /><path id="962" transform="matrix(1 0 0 -1 0 666)" d="M195.68 300.84L195.56 301.08L195.08 300.84L195.2 300.6" stroke="none" fill="#000000" fill-rule="nonzero" /><path id="963" transform="matrix(1 0 0 -1 0 666)" d="M226.28 244.32L226.4 244.08L225.92 243.84L225.8 244.08" stroke="none" fill="#000000" fill-rule="nonzero" /><path id="964" transform="matrix(1 0 0 -1 0 666)" d="M195.68 300.84L195.2 300.6L225.8 244.08L226.28 244.32" stroke="none" fill="#000000" fill-rule="nonzero" /><path id="991" transform="matrix(1 0 0 -1 0 666)" d="M176.72 368.04L173.48 368.04L173.6 368.64L176.24 377.76L176.72 379.44L177.2 377.76L179.84 368.64L179.96 368.04L179.36 368.04L178.88 368.4L176.24 377.52L177.2 377.76L177.2 377.52L174.56 368.4L173.6 368.64L174.08 369L176.72 369" stroke="none" fill="#000000" fill-rule="nonzero" /><path id="992" transform="matrix(1 0 0 -1 0 666)" d="M179.36 368.04L176.72 368.04L176.72 369L179.36 369" stroke="none" fill="#000000" fill-rule="nonzero" /><path id="993" transform="matrix(1 0 0 -1 0 666)" d="M176.72 368.52L174.08 368.52L174.08 368.52L176.72 377.64L176.72 377.64L179.36 368.52" stroke="none" fill="#000000" fill-rule="evenodd" /><path id="994" transform="matrix(1 0 0 -1 0 666)" d="M176.48 322.2L176.96 322.2L176.96 322.44L176.48 322.44z" stroke="none" fill="#000000" fill-rule="nonzero" /><path id="995" transform="matrix(1 0 0 -1 0 666)" d="M176.48 367.92L176.96 367.92L176.96 368.16L176.48 368.16z" stroke="none" fill="#000000" fill-rule="nonzero" /><path id="996" transform="matrix(1 0 0 -1 0 666)" d="M176.48 322.44L176.96 322.44L176.96 367.92L176.48 367.92z" stroke="none" fill="#000000" fill-rule="nonzero" /><path id="1015" transform="matrix(1 0 0 -1 0 666)" d="M375.56 333.96L378.8 333.96L378.68 333.36L376.04 324.24L375.56 322.56L375.08 324.24L372.44 333.36L372.32 333.96L372.92 333.96L373.4 333.6L376.04 324.48L375.08 324.24L375.08 324.48L377.72 333.6L378.68 333.36L378.2 333L375.56 333" stroke="none" fill="#000000" fill-rule="nonzero" /><path id="1016" transform="matrix(1 0 0 -1 0 666)" d="M372.92 333.96L375.56 333.96L375.56 333L372.92 333" stroke="none" fill="#000000" fill-rule="nonzero" /><path id="1017" transform="matrix(1 0 0 -1 0 666)" d="M375.56 333.48L378.2 333.48L378.2 333.48L375.56 324.36L375.56 324.36L372.92 333.48" stroke="none" fill="#000000" fill-rule="evenodd" /><path id="1018" transform="matrix(1 0 0 -1 0 666)" d="M375.32 333.84L375.8 333.84L375.8 334.08L375.32 334.08z" stroke="none" fill="#000000" fill-rule="nonzero" /><path id="1019" transform="matrix(1 0 0 -1 0 666)" d="M375.32 378.72L375.8 378.72L375.8 378.96L375.32 378.96z" stroke="none" fill="#000000" fill-rule="nonzero" /><path id="1020" transform="matrix(1 0 0 -1 0 666)" d="M375.32 334.08L375.8 334.08L375.8 378.72L375.32 378.72z" stroke="none" fill="#000000" fill-rule="nonzero" /><path id="1112" transform="matrix(1 0 0 -1 0 666)" d="M143.48 172.44L143.48 175.68L144.08 175.56L153.32 172.92L155 172.44L153.32 171.96L144.08 169.32L143.48 169.2L143.48 169.8L143.84 170.28L153.08 172.92L153.32 171.96L153.08 171.96L143.84 174.6L144.08 175.56L144.44 175.08L144.44 172.44" stroke="none" fill="#000000" fill-rule="nonzero" /><path id="1113" transform="matrix(1 0 0 -1 0 666)" d="M143.48 169.8L143.48 172.44L144.44 172.44L144.44 169.8" stroke="none" fill="#000000" fill-rule="nonzero" /><path id="1114" transform="matrix(1 0 0 -1 0 666)" d="M143.96 172.44L143.96 175.08L143.96 175.08L153.2 172.44L153.2 172.44L143.96 169.8" stroke="none" fill="#000000" fill-rule="evenodd" /><path id="1115" transform="matrix(1 0 0 -1 0 666)" d="M135.32 402.48L135.56 402.48L135.56 402.96L135.32 402.96z" stroke="none" fill="#000000" fill-rule="nonzero" /><path id="1116" transform="matrix(1 0 0 -1 0 666)" d="M100.76 402.48L135.32 402.48L135.32 402.96L100.76 402.96z" stroke="none" fill="#000000" fill-rule="nonzero" /><path id="1117" transform="matrix(1 0 0 -1 0 666)" d="M100.76 172.2L101.24 172.2L101.24 402.72L100.76 402.72z" stroke="none" fill="#000000" fill-rule="nonzero" /><path id="1118" transform="matrix(1 0 0 -1 0 666)" d="M143.48 172.2L143.72 172.2L143.72 172.68L143.48 172.68z" stroke="none" fill="#000000" fill-rule="nonzero" /><path id="1119" transform="matrix(1 0 0 -1 0 666)" d="M101 172.2L143.48 172.2L143.48 172.68L101 172.68z" stroke="none" fill="#000000" fill-rule="nonzero" /></g></g></g></svg>